<svg width="32" height="32" viewBox="0 0 32 32" fill="none" xmlns="http://www.w3.org/2000/svg">
<path d="M16.9999 8.80371C12.9999 8.80371 12.9999 23.2037 16.9999 23.2037C20.9999 23.2037 25.9999 20.5037 25.9999 16.0037C25.9999 11.5037 20.9999 8.80371 16.9999 8.80371ZM17.0999 21.2037C16.6999 20.8037 15.9999 19.0037 15.9999 16.0037C15.9999 13.0037 16.6999 11.2037 17.0999 10.8037C19.9999 10.9037 23.9999 12.7037 23.9999 16.0037C23.9999 19.3037 19.8999 21.1037 17.0999 21.2037ZM11.9999 14.5037C11.9999 15.0037 11.8999 15.5037 11.8999 16.0037V16.6037L6.3999 18.0037L5.8999 16.1037L11.9999 14.5037ZM5.9999 11.0037L13.3999 9.10371C13.1999 9.40371 12.9999 9.80371 12.8999 10.3037C12.7999 10.6037 12.6999 11.0037 12.5999 11.4037L6.4999 12.9037L5.9999 11.0037ZM12.1999 19.5037C12.2999 20.2037 12.4999 20.9037 12.6999 21.4037L6.3999 23.0037L5.8999 21.1037L12.1999 19.5037Z" fill="#EEEEEE"/>
</svg>
