<svg width="48" height="48" viewBox="0 0 48 48" fill="none" xmlns="http://www.w3.org/2000/svg">
<path d="M46.3368 25.8956C45.9993 22.1072 45.4434 21.3694 45.2334 21.0919C44.7506 20.4506 43.9781 20.0316 43.1606 19.5919C43.1143 19.5674 43.0744 19.5326 43.044 19.4901C43.0135 19.4476 42.9933 19.3985 42.9851 19.3469C42.9768 19.2953 42.9806 19.2424 42.9963 19.1925C43.0119 19.1426 43.039 19.097 43.0752 19.0594C43.2266 18.9058 43.343 18.7213 43.4163 18.5186C43.4896 18.3158 43.5181 18.0995 43.4999 17.8847C43.4647 17.5037 43.2875 17.1499 43.0036 16.8934C42.7197 16.6369 42.3497 16.4965 41.9671 16.5H40.5046C40.4419 16.5004 40.3793 16.5044 40.3171 16.5122C40.2744 16.4937 40.2302 16.4789 40.1849 16.4681C39.3187 14.6372 38.1327 12.1303 35.6746 10.9069C32.0287 9.09375 25.3124 9 23.9999 9C22.6874 9 15.9712 9.09375 12.3299 10.9041C9.87181 12.1275 8.68587 14.6344 7.81962 16.4653L7.81212 16.4803C7.76891 16.4864 7.72649 16.4971 7.68556 16.5122C7.62335 16.5044 7.56074 16.5004 7.49806 16.5H6.03274C5.65014 16.4965 5.28019 16.6369 4.99627 16.8934C4.71235 17.1499 4.53519 17.5037 4.49993 17.8847C4.48328 18.099 4.5131 18.3145 4.58737 18.5162C4.66164 18.718 4.77859 18.9013 4.93024 19.0538C4.96652 19.0914 4.99355 19.137 5.0092 19.1869C5.02485 19.2368 5.02869 19.2896 5.02042 19.3413C5.01215 19.3929 4.99199 19.4419 4.96153 19.4844C4.93108 19.527 4.89116 19.5618 4.84493 19.5863C4.02743 20.0287 3.25118 20.4478 2.77212 21.0863C2.56212 21.3675 2.00712 22.1016 1.66868 25.89C1.48118 28.0219 1.45306 30.2288 1.60024 31.65C1.90868 34.6031 2.48712 36.3881 2.51149 36.4622C2.60025 36.7317 2.76364 36.9705 2.98269 37.1509C3.20174 37.3313 3.46745 37.4458 3.74899 37.4812V37.5C3.74899 37.8978 3.90703 38.2794 4.18833 38.5607C4.46964 38.842 4.85117 39 5.24899 39H10.499C10.8968 39 11.2783 38.842 11.5597 38.5607C11.841 38.2794 11.999 37.8978 11.999 37.5C12.8062 37.5 13.3677 37.3556 13.9631 37.2019C14.8225 36.9703 15.7011 36.8162 16.5881 36.7416C19.4484 36.4688 22.2927 36.375 23.9999 36.375C25.6724 36.375 28.6424 36.4688 31.5074 36.7416C32.3979 36.8164 33.2799 36.9711 34.1427 37.2038C34.7127 37.35 35.2537 37.485 36.0027 37.4991C36.0027 37.8969 36.1608 38.2784 36.4421 38.5597C36.7234 38.841 37.1049 38.9991 37.5027 38.9991H42.7527C43.1506 38.9991 43.5321 38.841 43.8134 38.5597C44.0947 38.2784 44.2527 37.8969 44.2527 37.4991V37.4878C44.535 37.4531 44.8015 37.3388 45.0212 37.1584C45.241 36.978 45.405 36.7388 45.494 36.4688C45.5184 36.3947 46.0968 34.6097 46.4052 31.6566C46.5524 30.2344 46.5262 28.0312 46.3368 25.8956ZM10.5309 17.7478C11.2809 16.1541 12.1387 14.3503 13.6659 13.59C15.8727 12.4913 20.4468 11.9962 23.9999 11.9962C27.5531 11.9962 32.1271 12.4875 34.334 13.59C35.8612 14.3503 36.7152 16.155 37.469 17.7478L37.5627 17.9513C37.6176 18.0671 37.6418 18.195 37.6331 18.3228C37.6245 18.4507 37.5832 18.5742 37.5133 18.6815C37.4433 18.7889 37.347 18.8765 37.2336 18.9361C37.1202 18.9957 36.9933 19.0252 36.8652 19.0219C33.7499 18.9375 27.1874 18.6675 23.9999 18.6675C20.8124 18.6675 14.2499 18.9441 11.1299 19.0284C11.0018 19.0318 10.875 19.0023 10.7616 18.9427C10.6481 18.8831 10.5519 18.7955 10.4819 18.6881C10.412 18.5807 10.3707 18.4572 10.362 18.3294C10.3534 18.2016 10.3776 18.0736 10.4324 17.9578C10.4652 17.8884 10.4999 17.8181 10.5309 17.7478ZM11.6493 25.2131C10.0366 25.4072 8.41362 25.503 6.78931 25.5C5.79556 25.5 4.77087 25.2188 4.58056 24.3337C4.45024 23.7384 4.46431 23.4038 4.53462 23.0672C4.59368 22.7812 4.68743 22.5731 5.15618 22.5C6.37493 22.3125 7.05649 22.5478 9.05149 23.1356C10.3743 23.5247 11.3287 24.0431 11.8724 24.4537C12.1452 24.6562 11.9999 25.185 11.6493 25.2131ZM32.4037 32.9006C31.1699 33.0413 28.7024 32.9897 24.0281 32.9897C19.3537 32.9897 16.8871 33.0413 15.6534 32.9006C14.3802 32.7591 12.7574 31.5553 13.8656 30.4828C14.6034 29.7759 16.3246 29.2472 18.6168 28.95C20.909 28.6528 21.8793 28.5 24.0187 28.5C26.1581 28.5 27.0299 28.5938 29.4206 28.9509C31.8112 29.3081 33.6177 29.8434 34.1718 30.4837C35.1824 31.6313 33.6759 32.7516 32.4037 32.9062V32.9006ZM43.4193 24.3328C43.2318 25.2216 42.2006 25.4991 41.2106 25.4991C39.5551 25.4994 37.9011 25.4037 36.2568 25.2122C35.9699 25.185 35.8368 24.6816 36.1274 24.4528C36.6627 24.0319 37.6274 23.5238 38.9484 23.1347C40.9434 22.5469 42.0937 22.3116 43.0818 22.5075C43.3227 22.5553 43.4502 22.8141 43.4652 22.9762C43.5314 23.4278 43.5158 23.8877 43.4193 24.3337V24.3328Z" fill="#00CCB8"/>
</svg>
