<svg width="107" height="66" viewBox="0 0 107 66" fill="none" xmlns="http://www.w3.org/2000/svg">
<g clip-path="url(#clip0_225_2492)">
<g filter="url(#filter0_f_225_2492)">
<path d="M84.4754 55.424C89.2536 53.9813 97.9524 50.0392 101.079 47.1215C104.684 44.0676 97.2063 40.6508 96.3191 40.136C95.4319 39.6211 51.8323 17.996 44.2278 14.6493C36.6232 11.3025 12.5427 18.3629 6.71185 21.6002C1.95898 24.239 5.31767 26.1054 5.95138 26.6203C6.5851 27.1352 42.9037 47.379 55.9583 53.5576C65.8444 58.2366 75.0964 58.2559 84.4754 55.424Z" fill="black" fill-opacity="0.2"/>
</g>
<path fill-rule="evenodd" clip-rule="evenodd" d="M49.9989 40.7185L54.8223 38.4814L54.8232 38.4834C54.8528 38.4691 54.8827 38.4552 54.9129 38.4416C57.7859 37.1521 61.8846 40.0736 64.0676 44.9668C66.2505 49.8601 65.691 54.8722 62.8179 56.1617C62.7832 56.1773 62.7483 56.1923 62.7132 56.2066L58.0517 58.3716L55.4779 52.7292C54.7944 51.8265 54.176 50.7859 53.6632 49.6365C53.1902 48.5761 52.8459 47.51 52.626 46.4775L49.9989 40.7185Z" fill="black"/>
<ellipse cx="5.70451" cy="9.69003" rx="5.70451" ry="9.69003" transform="matrix(-0.911941 0.409292 0.407585 0.913628 55.3428 38.3369)" fill="black"/>
<g filter="url(#filter1_i_225_2492)">
<ellipse cx="4.27858" cy="7.26787" rx="4.27858" ry="7.26787" transform="matrix(-0.911941 0.409292 0.407585 0.913628 54.8652 41.1387)" fill="url(#paint0_linear_225_2492)"/>
</g>
<g filter="url(#filter2_di_225_2492)">
<path fill-rule="evenodd" clip-rule="evenodd" d="M55.0911 45.1011C55.3594 45.3485 55.6204 45.628 55.8691 45.9362L55.0911 47.2879L55.0911 45.1011ZM55.0911 51.612L55.0911 51.6163L56.8854 54.7336C57.318 54.3719 57.6277 53.8365 57.808 53.1853L55.0911 51.612ZM55.0911 54.1112L55.0911 55.2093C55.3092 55.2414 55.5235 55.2469 55.7317 55.2241L55.0911 54.1112ZM53.8469 54.7634L53.8469 51.9496L53.8453 51.947L52.7109 53.9178C53.0791 54.2631 53.4619 54.5479 53.8469 54.7634ZM53.8469 47.4804L53.8469 44.2147C53.013 43.7879 52.1762 43.6907 51.4611 44.0116C51.2614 44.1012 51.0797 44.2196 50.9163 44.3635L52.7571 47.5616C52.8206 47.5057 52.8911 47.4598 52.9686 47.425C53.2325 47.3065 53.5391 47.3349 53.8469 47.4804ZM52.1489 49.9082L50.4293 50.3704C50.2121 49.7855 50.0573 49.2039 49.963 48.6423L52.1489 49.9082ZM50.9391 51.5232L52.9669 50.9783L51.8355 52.9438C51.5097 52.5177 51.2072 52.0415 50.9391 51.5232ZM55.5442 48.9957L56.6511 47.0726C56.8364 47.3889 57.0088 47.7235 57.1653 48.0745C57.2302 48.2198 57.2911 48.3654 57.3482 48.5108L55.5442 48.9957ZM51.6906 48.2036L49.8549 47.1406C49.8741 46.5448 49.9735 45.998 50.1501 45.5273L51.6906 48.2036ZM57.9925 51.853L55.5038 50.4118C55.5039 50.374 55.5031 50.3357 55.5015 50.2971L57.731 49.6979C57.9216 50.4511 58.0074 51.1821 57.9925 51.853Z" fill="#4C4C4C"/>
</g>
<path fill-rule="evenodd" clip-rule="evenodd" d="M49.9994 40.6168L54.8228 38.3798L54.8237 38.3818C54.8541 38.367 54.8848 38.3527 54.9158 38.3388C57.7889 37.0492 61.8875 39.9707 64.0705 44.864C66.2534 49.7572 65.6939 54.7694 62.8208 56.0589C62.7862 56.0744 62.7515 56.0893 62.7165 56.1036L58.0522 58.27L55.4733 52.6166C54.7929 51.7161 54.177 50.6789 53.6662 49.5337C53.195 48.4775 52.8516 47.4157 52.6316 46.3871L49.9994 40.6168Z" fill="black"/>
<path d="M48.8296 51.742C51.0108 56.6314 55.1082 59.5497 57.9813 58.2603C60.8543 56.9708 61.4152 51.9618 59.2339 47.0724C57.0527 42.1829 52.832 39.0014 49.9589 40.2909C47.0859 41.5803 46.6483 46.8526 48.8296 51.742Z" fill="black"/>
<g filter="url(#filter3_i_225_2492)">
<ellipse cx="4.0101" cy="7.00866" rx="4.0101" ry="7.00866" transform="matrix(-0.907858 0.419439 0.394517 0.918869 54.8506 41.408)" fill="url(#paint1_linear_225_2492)"/>
</g>
<g filter="url(#filter4_di_225_2492)">
<path fill-rule="evenodd" clip-rule="evenodd" d="M56.6102 48.1454C55.5379 45.7534 53.6468 44.2752 52.2093 44.6557L53.2805 47.1026C53.9335 47.0648 54.7213 47.7117 55.2119 48.7226L56.6102 48.1454ZM57.3389 51.8914C57.2571 52.8688 56.9188 53.6638 56.3432 54.0986L55.6773 52.5774L57.3389 51.8914Z" fill="#474747"/>
</g>
<path fill-rule="evenodd" clip-rule="evenodd" d="M13.7579 22.4896L18.0082 21.3905L18.0087 21.3925C18.0363 21.3848 18.0641 21.3775 18.092 21.3707C20.6173 20.7509 23.5128 23.7343 24.5591 28.0342C25.6055 32.3342 24.4066 36.3224 21.8813 36.9422C21.8494 36.95 21.8175 36.9572 21.7855 36.9639L17.6771 38.0287L16.4196 33.0427C16.0027 32.2122 15.6581 31.2812 15.4142 30.2786C15.1892 29.3541 15.068 28.444 15.0415 27.5787L13.7579 22.4896Z" fill="black"/>
<ellipse cx="4.7112" cy="8.00156" rx="4.7112" ry="8.00156" transform="matrix(-0.970558 0.238188 0.236603 0.972266 18.4463 21.3496)" fill="black"/>
<g filter="url(#filter5_i_225_2492)">
<ellipse cx="3.53357" cy="6.00145" rx="3.53357" ry="6.00145" transform="matrix(-0.970558 0.238188 0.236603 0.972266 17.6445 23.5537)" fill="url(#paint2_linear_225_2492)"/>
</g>
<g filter="url(#filter6_di_225_2492)">
<path fill-rule="evenodd" clip-rule="evenodd" d="M17.2369 26.8048C17.419 27.0466 17.5902 27.3135 17.7471 27.6022L16.9107 28.5886L17.2369 26.8048ZM16.2697 32.0945L16.2691 32.0976L17.2647 34.8999C17.6703 34.6706 18.0017 34.2815 18.2451 33.7789L16.2697 32.0945ZM15.8986 34.1241L15.7352 35.0178C15.9079 35.0767 16.0816 35.1133 16.2545 35.1259L15.8986 34.1241ZM14.791 34.4695L15.2086 32.1857L13.9962 33.6156C14.2433 33.9498 14.5111 34.2375 14.791 34.4695ZM15.8725 28.555L16.3578 25.9005C15.7444 25.4309 15.0799 25.2279 14.4521 25.382C14.2762 25.4251 14.1107 25.4945 13.9563 25.5873L14.9762 28.4582C15.0358 28.4225 15.0996 28.3959 15.1673 28.3793C15.3993 28.3223 15.6441 28.391 15.8725 28.555ZM14.1353 30.2745L12.6695 30.3939C12.58 29.8865 12.5406 29.3908 12.5474 28.9205L14.1353 30.2745ZM12.9125 31.4065L14.641 31.2656L13.4298 32.6941C13.2283 32.2994 13.0533 31.8675 12.9125 31.4065ZM17.029 30.0387L18.2134 28.6417C18.3169 28.926 18.4072 29.2234 18.4822 29.5316C18.5133 29.6594 18.5412 29.7868 18.566 29.9135L17.029 30.0387ZM14.0142 28.8199L12.6827 27.6845C12.7866 27.2039 12.9483 26.775 13.1613 26.4192L14.0142 28.8199ZM18.5929 32.724L16.7836 31.1813C16.789 31.1512 16.794 31.1208 16.7983 31.0898L18.7005 30.9348C18.7435 31.5749 18.7045 32.1814 18.5929 32.724Z" fill="#4C4C4C"/>
</g>
<path fill-rule="evenodd" clip-rule="evenodd" d="M13.7444 22.6006L17.9946 21.5015L17.9952 21.5038C18.0212 21.4966 18.0473 21.4898 18.0736 21.4834C20.5989 20.8636 23.4943 23.847 24.5407 28.1469C25.5871 32.4469 24.3881 36.4351 21.8628 37.0548C21.8286 37.0632 21.7944 37.071 21.76 37.078L17.6636 38.1398L16.4118 33.1766C15.9901 32.3408 15.6418 31.4024 15.3957 30.3913C15.1687 29.4583 15.0473 28.5399 15.0223 27.6675L13.7444 22.6006Z" fill="black"/>
<ellipse cx="4.76355" cy="8.09046" rx="4.76355" ry="8.09046" transform="matrix(-0.970558 0.238188 0.236603 0.972266 18.4629 21.2683)" fill="black"/>
<g filter="url(#filter7_i_225_2492)">
<g filter="url(#filter8_i_225_2492)">
<ellipse cx="3.315" cy="5.79468" rx="3.315" ry="5.79468" transform="matrix(-0.955903 0.291403 0.304367 0.953226 16.877 24.3169)" fill="url(#paint3_linear_225_2492)"/>
</g>
<g filter="url(#filter9_di_225_2492)">
<path fill-rule="evenodd" clip-rule="evenodd" d="M17.7192 30.0728C17.1126 27.9877 15.7222 26.5215 14.4893 26.6212L15.0881 28.7496C15.6329 28.8119 16.2095 29.4481 16.4974 30.3356L17.7192 30.0728ZM17.8575 33.3042C17.6672 34.0301 17.3043 34.5821 16.801 34.8371L16.4546 33.606L17.8575 33.3042Z" fill="url(#paint4_linear_225_2492)"/>
</g>
</g>
<g filter="url(#filter10_ii_225_2492)">
<path fill-rule="evenodd" clip-rule="evenodd" d="M77.2615 20.1449C77.4727 20.2732 77.6596 20.3617 77.8231 20.4054C79.6139 20.8847 94.6154 29.1113 97.8861 32.4172C101.069 35.6343 100.892 37.5572 100.81 38.4499C100.799 38.5788 100.789 38.6863 100.791 38.773C100.804 39.2056 100.801 40.0761 100.796 41.1836C100.794 41.8359 100.791 42.5704 100.791 43.346L100.791 45.9814C100.785 46.1782 100.786 46.3791 100.787 46.5842C100.791 47.4551 100.795 48.402 100.261 49.4395C99.6026 50.7184 96.4246 55.4077 81.0022 60.252C75.7802 61.8922 69.7151 60.0747 65.841 58.4713C64.866 58.1086 64.0329 57.7531 63.3914 57.4614C63.1698 57.3607 62.971 57.2274 62.7968 57.0689C62.5835 56.9607 62.4045 56.8679 62.2631 56.7946C62.18 56.7515 62.1099 56.7152 62.0535 56.6865C61.9565 55.3799 61.6467 53.5225 61.1893 51.6593C60.6671 49.6473 59.9748 47.6477 59.2143 46.3476C57.4431 43.3193 53.6733 39.5845 50.7088 40.6078C47.3445 41.7691 47.6029 46.6063 47.6675 47.7613C47.6866 48.101 47.7259 48.3275 47.7648 48.5512L47.7648 48.5513C47.7873 48.681 47.7828 48.8029 47.7564 48.9143C47.8281 49.0904 47.8859 49.3302 47.8521 50.0778L46.9043 49.5881C46.7207 49.6002 46.5269 49.5641 46.3427 49.4699L21.9917 37.0148C21.6449 36.8374 21.3484 36.5835 21.1372 36.2762L20.8926 36.1499C20.8624 35.9869 20.8506 35.8227 20.853 35.656C20.8186 35.5215 20.7987 35.3817 20.7953 35.2377C20.7878 34.9223 20.7886 34.5879 20.7895 34.2363V34.2356C20.7947 32.1874 20.8013 29.5549 19.1666 26.6948C17.6723 24.0806 15.4954 22.3502 13.5192 22.9703C11.5429 23.5903 11.0054 25.7184 10.8977 26.9035C10.7919 28.0674 10.8548 29.1356 10.8913 29.7551C10.9059 30.0044 10.9163 30.181 10.9097 30.262C10.8867 30.5441 8.04125 28.0962 7.85835 27.1634C7.30163 24.3247 7.18562 21.6664 7.47775 18.785C7.5142 18.4255 7.62386 17.6477 7.7327 17.091C7.80339 16.7295 7.84509 16.3582 7.84637 15.9898C7.84966 15.0511 8.00967 13.9073 8.24173 13.3794C8.26588 13.3245 8.28943 13.2666 8.31417 13.2059L8.31433 13.2055C8.60363 12.4947 9.05545 11.3847 12.5376 9.82777C17.482 7.61702 30.9457 2.6956 31.4666 2.58057C32.6975 2.30877 34.274 2.42554 35.5503 2.52007C36.2991 2.57554 36.9446 2.62335 37.3563 2.58052C43.2998 1.96207 50.1894 2.78198 59.2792 7.36419C60.5001 7.88168 61.7071 8.47238 62.8758 9.14698C65.7976 10.8334 68.2576 12.6243 70.3018 14.271C72.6714 16.0827 74.4997 17.7111 75.8133 18.8811L75.8133 18.8812C76.3968 19.4009 76.8788 19.8302 77.2615 20.1449Z" fill="url(#paint5_linear_225_2492)"/>
</g>
<g filter="url(#filter11_ddi_225_2492)">
<path d="M53.3933 30.4048C50.317 29.1317 48.4941 25.1543 44.2153 20.369C43.6256 19.7094 43.8508 18.6496 44.672 18.3199L63.5604 10.7355C63.7465 10.6608 63.9477 10.636 64.137 10.7021C64.8791 10.9613 67.146 12.0449 72.2386 16.522C75.1789 19.1071 75.7676 19.7804 77.2867 20.804C77.527 20.9659 77.4852 21.3224 76.6025 22.0497C73.7888 24.3683 58.2831 32.4284 53.3933 30.4048Z" fill="url(#paint6_linear_225_2492)"/>
</g>
<g filter="url(#filter12_di_225_2492)">
<path d="M30.0724 12.9928C25.7258 11.6251 25.1123 11.7522 21.7745 11.7523C19.7064 11.7523 16.2636 11.6371 15.9059 12.5665C15.5483 13.4959 19.5172 16.415 21.16 17.3238C21.9629 17.768 49.6622 31.6464 48.7814 30.0061C47.6963 27.9853 42.7017 22.2127 40.9959 19.8556C38.1519 15.9256 34.4189 14.3605 30.0724 12.9928Z" fill="url(#paint7_linear_225_2492)"/>
</g>
<g filter="url(#filter13_di_225_2492)">
<path d="M20.2225 10.2566L38.458 2.83105C38.458 2.83105 38.0493 2.97511 35.8117 2.94217C35.0308 2.93068 16.1051 10.7089 15.9669 10.8304L20.2225 10.2566Z" fill="url(#paint8_linear_225_2492)"/>
</g>
<g filter="url(#filter14_f_225_2492)">
<path d="M61.7731 40.4168C54.7699 37.1621 50.8347 33.0764 46.6157 29.3418C59.1797 33.0663 85.4769 41.2168 85.0649 41.7472C84.5498 42.4102 82.6611 43.1967 76.3853 43.6198C70.2066 44.0363 62.575 40.7895 61.7731 40.4168Z" fill="url(#paint9_linear_225_2492)" fill-opacity="0.21"/>
</g>
<g filter="url(#filter15_di_225_2492)">
<path d="M36.8571 30.7703C36.8571 30.6084 36.7648 30.4607 36.6194 30.39L34.5763 29.3965C34.2953 29.2599 33.9689 29.4645 33.9689 29.7772C33.9689 29.94 34.062 30.0885 34.2083 30.1594L36.253 31.1496C36.5327 31.285 36.8571 31.0813 36.8571 30.7703Z" fill="#323232"/>
</g>
<g filter="url(#filter16_di_225_2492)">
<path d="M23.4548 24.8584C23.4548 24.6966 23.3624 24.5488 23.217 24.4781L21.174 23.4847C20.893 23.3481 20.5666 23.5526 20.5666 23.8653C20.5666 24.0281 20.6596 24.1766 20.806 24.2475L22.8506 25.2377C23.1303 25.3732 23.4548 25.1695 23.4548 24.8584Z" fill="#323232"/>
</g>
<path d="M67.0332 27.3435L51.0713 15.717C49.2432 16.2119 45.083 18.074 44.2903 18.3717C43.2632 18.7575 43.0925 18.9724 43.0925 18.9724C43.0925 19.2825 43.2508 19.4181 43.7494 19.9026C44.4642 20.5971 44.7668 20.9168 46.5376 23.1773C49.0877 26.4327 51.028 29.4617 52.8885 30.1885C54.3687 30.7667 56.6772 31.2724 59.9624 30.1885C62.8989 29.2196 64.7065 28.1248 67.0332 27.3435Z" fill="#C4C4C4" fill-opacity="0.2"/>
<g opacity="0.17" filter="url(#filter17_f_225_2492)">
<path d="M95.3398 36.5549C90.9908 39.9955 81.3157 44.9138 76.9959 45.6638" stroke="url(#paint10_linear_225_2492)" stroke-width="21" stroke-linecap="round" stroke-linejoin="round"/>
</g>
<g filter="url(#filter18_dii_225_2492)">
<path d="M98.6566 37.8105C99.449 36.7407 99.2854 35.8731 99.1606 34.5813C99.142 34.3887 99.0733 34.2001 99.0615 34.0069C99.0324 33.5335 100.354 35.5904 100.504 37.0555C100.559 37.5897 100.525 37.8603 100.475 38.3534C100.452 38.5789 99.9878 39.9562 100.057 40.2535C100.126 40.5508 99.9742 42.6001 99.9847 42.9098C99.9951 43.2195 98.7017 45.5239 95.3037 47.7465C92.481 49.5928 88.428 50.8046 88.0126 50.8644C87.5971 50.9241 87.1899 49.5305 86.8882 49.4534C86.0989 49.2519 83.7673 50.1083 82.8968 50.3271C81.8812 50.5824 79.5112 51.1711 76.9212 50.8384C73.7175 50.4269 73.2272 50.0628 70.2821 48.4591C69.5154 48.0416 68.8359 47.4697 68.2626 46.8593C67.0629 45.5819 68.2298 44.29 69.9057 44.8025C72.0846 45.4688 74.9242 46.2071 77.9896 46.5214C85.0597 47.2463 90.644 43.8869 91.444 43.404C94.807 41.374 96.5734 40.6234 98.6566 37.8105Z" fill="#211F1F"/>
</g>
<mask id="mask0_225_2492" style="mask-type:alpha" maskUnits="userSpaceOnUse" x="67" y="36" width="34" height="15">
<path d="M98.66 37.7968C98.7174 37.7192 98.7701 37.6404 98.8185 37.5608C99.3972 36.6069 100.682 36.0018 100.852 37.1046C100.907 37.6388 100.894 37.9781 100.844 38.4712C100.821 38.6968 99.9924 39.9416 100.061 40.2389C100.131 40.5362 99.9805 42.5856 99.9911 42.8953C100.002 43.205 98.7098 45.5103 95.3132 47.7352C92.4916 49.5833 88.4395 50.7979 88.024 50.8579C87.6086 50.9179 87.2005 49.5245 86.8988 49.4477C86.1094 49.2467 83.7783 50.1047 82.908 50.324C81.8925 50.58 79.523 51.1703 76.9327 50.8393C73.7288 50.4299 73.2384 50.066 70.2923 48.4644C69.5252 48.0473 68.8454 47.4758 68.2717 46.8657C67.0712 45.5891 68.2374 44.2965 69.9135 44.8079C72.0928 45.4728 74.9328 46.2092 77.9985 46.5215C85.069 47.2417 90.6511 43.8786 91.4508 43.3951C94.8125 41.3629 96.5785 40.6111 98.66 37.7968Z" fill="#999999"/>
</mask>
<g mask="url(#mask0_225_2492)">
<g filter="url(#filter19_d_225_2492)">
<path d="M72.9633 45.5515L80.4427 45.6641C80.4512 45.8016 80.4432 45.9464 80.4082 46.0873C80.3553 46.2998 80.2338 46.5393 79.9313 46.7658C79.6132 47.0039 79.0511 47.2591 78.0713 47.3905C77.5199 47.4645 76.7272 47.4638 75.9077 47.3084C75.0855 47.1523 74.303 46.8533 73.7139 46.3838C73.5082 46.2197 73.2397 45.9119 72.9633 45.5515Z" stroke="white" stroke-opacity="0.5" stroke-width="1.8525"/>
</g>
<g filter="url(#filter20_d_225_2492)">
<path d="M98.3093 37.1846L98.991 36.1516C99.0295 36.4993 98.9923 36.8888 98.8041 37.2939C98.7879 37.3288 98.7714 37.3565 98.7564 37.3778C98.6105 37.2776 98.452 37.2194 98.3093 37.1846Z" stroke="white" stroke-opacity="0.5" stroke-width="1.54375"/>
</g>
</g>
</g>
<defs>
<filter id="filter0_f_225_2492" x="-13.1483" y="-3.58605" width="132.559" height="78.2947" filterUnits="userSpaceOnUse" color-interpolation-filters="sRGB">
<feFlood flood-opacity="0" result="BackgroundImageFix"/>
<feBlend mode="normal" in="SourceGraphic" in2="BackgroundImageFix" result="shape"/>
<feGaussianBlur stdDeviation="8.67815" result="effect1_foregroundBlur_225_2492"/>
</filter>
<filter id="filter1_i_225_2492" x="49.0264" y="42.6611" width="9.79883" height="13.7378" filterUnits="userSpaceOnUse" color-interpolation-filters="sRGB">
<feFlood flood-opacity="0" result="BackgroundImageFix"/>
<feBlend mode="normal" in="SourceGraphic" in2="BackgroundImageFix" result="shape"/>
<feColorMatrix in="SourceAlpha" type="matrix" values="0 0 0 0 0 0 0 0 0 0 0 0 0 0 0 0 0 0 127 0" result="hardAlpha"/>
<feMorphology radius="0.622509" operator="erode" in="SourceAlpha" result="effect1_innerShadow_225_2492"/>
<feOffset/>
<feGaussianBlur stdDeviation="0.311254"/>
<feComposite in2="hardAlpha" operator="arithmetic" k2="-1" k3="1"/>
<feColorMatrix type="matrix" values="0 0 0 0 0 0 0 0 0 0 0 0 0 0 0 0 0 0 0.25 0"/>
<feBlend mode="normal" in2="shape" result="effect1_innerShadow_225_2492"/>
</filter>
<filter id="filter2_di_225_2492" x="47.987" y="43.697" width="10.3807" height="12.786" filterUnits="userSpaceOnUse" color-interpolation-filters="sRGB">
<feFlood flood-opacity="0" result="BackgroundImageFix"/>
<feColorMatrix in="SourceAlpha" type="matrix" values="0 0 0 0 0 0 0 0 0 0 0 0 0 0 0 0 0 0 127 0" result="hardAlpha"/>
<feOffset dy="0.249004"/>
<feGaussianBlur stdDeviation="0.186753"/>
<feColorMatrix type="matrix" values="0 0 0 0 1 0 0 0 0 1 0 0 0 0 1 0 0 0 0.41 0"/>
<feBlend mode="normal" in2="BackgroundImageFix" result="effect1_dropShadow_225_2492"/>
<feBlend mode="normal" in="SourceGraphic" in2="effect1_dropShadow_225_2492" result="shape"/>
<feColorMatrix in="SourceAlpha" type="matrix" values="0 0 0 0 0 0 0 0 0 0 0 0 0 0 0 0 0 0 127 0" result="hardAlpha"/>
<feOffset dx="-1.86753" dy="1.24502"/>
<feGaussianBlur stdDeviation="0.933763"/>
<feComposite in2="hardAlpha" operator="arithmetic" k2="-1" k3="1"/>
<feColorMatrix type="matrix" values="0 0 0 0 0 0 0 0 0 0 0 0 0 0 0 0 0 0 0.25 0"/>
<feBlend mode="normal" in2="shape" result="effect2_innerShadow_225_2492"/>
</filter>
<filter id="filter3_i_225_2492" x="49.4033" y="42.8723" width="9.14355" height="13.3154" filterUnits="userSpaceOnUse" color-interpolation-filters="sRGB">
<feFlood flood-opacity="0" result="BackgroundImageFix"/>
<feBlend mode="normal" in="SourceGraphic" in2="BackgroundImageFix" result="shape"/>
<feColorMatrix in="SourceAlpha" type="matrix" values="0 0 0 0 0 0 0 0 0 0 0 0 0 0 0 0 0 0 127 0" result="hardAlpha"/>
<feMorphology radius="0.45706" operator="erode" in="SourceAlpha" result="effect1_innerShadow_225_2492"/>
<feOffset/>
<feGaussianBlur stdDeviation="0.22853"/>
<feComposite in2="hardAlpha" operator="arithmetic" k2="-1" k3="1"/>
<feColorMatrix type="matrix" values="0 0 0 0 0 0 0 0 0 0 0 0 0 0 0 0 0 0 0.25 0"/>
<feBlend mode="normal" in2="shape" result="effect1_innerShadow_225_2492"/>
</filter>
<filter id="filter4_di_225_2492" x="50.3415" y="44.4717" width="7.37091" height="10.872" filterUnits="userSpaceOnUse" color-interpolation-filters="sRGB">
<feFlood flood-opacity="0" result="BackgroundImageFix"/>
<feColorMatrix in="SourceAlpha" type="matrix" values="0 0 0 0 0 0 0 0 0 0 0 0 0 0 0 0 0 0 127 0" result="hardAlpha"/>
<feOffset dy="0.249003"/>
<feGaussianBlur stdDeviation="0.186753"/>
<feColorMatrix type="matrix" values="0 0 0 0 1 0 0 0 0 1 0 0 0 0 1 0 0 0 0.41 0"/>
<feBlend mode="normal" in2="BackgroundImageFix" result="effect1_dropShadow_225_2492"/>
<feBlend mode="normal" in="SourceGraphic" in2="effect1_dropShadow_225_2492" result="shape"/>
<feColorMatrix in="SourceAlpha" type="matrix" values="0 0 0 0 0 0 0 0 0 0 0 0 0 0 0 0 0 0 127 0" result="hardAlpha"/>
<feOffset dx="-1.86753" dy="1.24502"/>
<feGaussianBlur stdDeviation="0.933763"/>
<feComposite in2="hardAlpha" operator="arithmetic" k2="-1" k3="1"/>
<feColorMatrix type="matrix" values="0 0 0 0 0 0 0 0 0 0 0 0 0 0 0 0 0 0 0.25 0"/>
<feBlend mode="normal" in2="shape" result="effect2_innerShadow_225_2492"/>
</filter>
<filter id="filter5_i_225_2492" x="11.9219" y="24.3342" width="7.42578" height="11.7922" filterUnits="userSpaceOnUse" color-interpolation-filters="sRGB">
<feFlood flood-opacity="0" result="BackgroundImageFix"/>
<feBlend mode="normal" in="SourceGraphic" in2="BackgroundImageFix" result="shape"/>
<feColorMatrix in="SourceAlpha" type="matrix" values="0 0 0 0 0 0 0 0 0 0 0 0 0 0 0 0 0 0 127 0" result="hardAlpha"/>
<feMorphology radius="0.514076" operator="erode" in="SourceAlpha" result="effect1_innerShadow_225_2492"/>
<feOffset/>
<feGaussianBlur stdDeviation="0.257038"/>
<feComposite in2="hardAlpha" operator="arithmetic" k2="-1" k3="1"/>
<feColorMatrix type="matrix" values="0 0 0 0 0 0 0 0 0 0 0 0 0 0 0 0 0 0 0.25 0"/>
<feBlend mode="normal" in2="shape" result="effect1_innerShadow_225_2492"/>
</filter>
<filter id="filter6_di_225_2492" x="11.0046" y="25.2282" width="8.02157" height="10.9259" filterUnits="userSpaceOnUse" color-interpolation-filters="sRGB">
<feFlood flood-opacity="0" result="BackgroundImageFix"/>
<feColorMatrix in="SourceAlpha" type="matrix" values="0 0 0 0 0 0 0 0 0 0 0 0 0 0 0 0 0 0 127 0" result="hardAlpha"/>
<feOffset dy="0.20563"/>
<feGaussianBlur stdDeviation="0.154223"/>
<feColorMatrix type="matrix" values="0 0 0 0 1 0 0 0 0 1 0 0 0 0 1 0 0 0 0.41 0"/>
<feBlend mode="normal" in2="BackgroundImageFix" result="effect1_dropShadow_225_2492"/>
<feBlend mode="normal" in="SourceGraphic" in2="effect1_dropShadow_225_2492" result="shape"/>
<feColorMatrix in="SourceAlpha" type="matrix" values="0 0 0 0 0 0 0 0 0 0 0 0 0 0 0 0 0 0 127 0" result="hardAlpha"/>
<feOffset dx="-1.54223" dy="1.02815"/>
<feGaussianBlur stdDeviation="0.771114"/>
<feComposite in2="hardAlpha" operator="arithmetic" k2="-1" k3="1"/>
<feColorMatrix type="matrix" values="0 0 0 0 0 0 0 0 0 0 0 0 0 0 0 0 0 0 0.25 0"/>
<feBlend mode="normal" in2="shape" result="effect2_innerShadow_225_2492"/>
</filter>
<filter id="filter7_i_225_2492" x="11.8447" y="25.1982" width="7.25391" height="11.2168" filterUnits="userSpaceOnUse" color-interpolation-filters="sRGB">
<feFlood flood-opacity="0" result="BackgroundImageFix"/>
<feBlend mode="normal" in="SourceGraphic" in2="BackgroundImageFix" result="shape"/>
<feColorMatrix in="SourceAlpha" type="matrix" values="0 0 0 0 0 0 0 0 0 0 0 0 0 0 0 0 0 0 127 0" result="hardAlpha"/>
<feMorphology radius="0.45706" operator="erode" in="SourceAlpha" result="effect1_innerShadow_225_2492"/>
<feOffset/>
<feGaussianBlur stdDeviation="0.22853"/>
<feComposite in2="hardAlpha" operator="arithmetic" k2="-1" k3="1"/>
<feColorMatrix type="matrix" values="0 0 0 0 0 0 0 0 0 0 0 0 0 0 0 0 0 0 0.25 0"/>
<feBlend mode="normal" in2="shape" result="effect1_innerShadow_225_2492"/>
</filter>
<filter id="filter8_i_225_2492" x="11.8447" y="25.1982" width="7.25391" height="11.2168" filterUnits="userSpaceOnUse" color-interpolation-filters="sRGB">
<feFlood flood-opacity="0" result="BackgroundImageFix"/>
<feBlend mode="normal" in="SourceGraphic" in2="BackgroundImageFix" result="shape"/>
<feColorMatrix in="SourceAlpha" type="matrix" values="0 0 0 0 0 0 0 0 0 0 0 0 0 0 0 0 0 0 127 0" result="hardAlpha"/>
<feMorphology radius="0.462662" operator="erode" in="SourceAlpha" result="effect1_innerShadow_225_2492"/>
<feOffset/>
<feGaussianBlur stdDeviation="0.231331"/>
<feComposite in2="hardAlpha" operator="arithmetic" k2="-1" k3="1"/>
<feColorMatrix type="matrix" values="0 0 0 0 0 0 0 0 0 0 0 0 0 0 0 0 0 0 0.25 0"/>
<feBlend mode="normal" in2="shape" result="effect1_innerShadow_225_2492"/>
</filter>
<filter id="filter9_di_225_2492" x="12.6217" y="26.492" width="5.6092" height="9.59022" filterUnits="userSpaceOnUse" color-interpolation-filters="sRGB">
<feFlood flood-opacity="0" result="BackgroundImageFix"/>
<feColorMatrix in="SourceAlpha" type="matrix" values="0 0 0 0 0 0 0 0 0 0 0 0 0 0 0 0 0 0 127 0" result="hardAlpha"/>
<feOffset dy="0.249004"/>
<feGaussianBlur stdDeviation="0.186753"/>
<feColorMatrix type="matrix" values="0 0 0 0 1 0 0 0 0 1 0 0 0 0 1 0 0 0 0.41 0"/>
<feBlend mode="normal" in2="BackgroundImageFix" result="effect1_dropShadow_225_2492"/>
<feBlend mode="normal" in="SourceGraphic" in2="effect1_dropShadow_225_2492" result="shape"/>
<feColorMatrix in="SourceAlpha" type="matrix" values="0 0 0 0 0 0 0 0 0 0 0 0 0 0 0 0 0 0 127 0" result="hardAlpha"/>
<feOffset dx="-1.86753" dy="1.24502"/>
<feGaussianBlur stdDeviation="0.933763"/>
<feComposite in2="hardAlpha" operator="arithmetic" k2="-1" k3="1"/>
<feColorMatrix type="matrix" values="0 0 0 0 0 0 0 0 0 0 0 0 0 0 0 0 0 0 0.25 0"/>
<feBlend mode="normal" in2="shape" result="effect2_innerShadow_225_2492"/>
</filter>
<filter id="filter10_ii_225_2492" x="7.32227" y="-2.58041" width="97.2565" height="63.4776" filterUnits="userSpaceOnUse" color-interpolation-filters="sRGB">
<feFlood flood-opacity="0" result="BackgroundImageFix"/>
<feBlend mode="normal" in="SourceGraphic" in2="BackgroundImageFix" result="shape"/>
<feColorMatrix in="SourceAlpha" type="matrix" values="0 0 0 0 0 0 0 0 0 0 0 0 0 0 0 0 0 0 127 0" result="hardAlpha"/>
<feOffset dx="3.73505" dy="-4.98007"/>
<feGaussianBlur stdDeviation="14.9402"/>
<feComposite in2="hardAlpha" operator="arithmetic" k2="-1" k3="1"/>
<feColorMatrix type="matrix" values="0 0 0 0 0 0 0 0 0 0 0 0 0 0 0 0 0 0 0.07 0"/>
<feBlend mode="normal" in2="shape" result="effect1_innerShadow_225_2492"/>
<feColorMatrix in="SourceAlpha" type="matrix" values="0 0 0 0 0 0 0 0 0 0 0 0 0 0 0 0 0 0 127 0" result="hardAlpha"/>
<feOffset dy="-0.622509"/>
<feGaussianBlur stdDeviation="1.24502"/>
<feComposite in2="hardAlpha" operator="arithmetic" k2="-1" k3="1"/>
<feColorMatrix type="matrix" values="0 0 0 0 0 0 0 0 0 0 0 0 0 0 0 0 0 0 0.25 0"/>
<feBlend mode="normal" in2="effect1_innerShadow_225_2492" result="effect2_innerShadow_225_2492"/>
</filter>
<filter id="filter11_ddi_225_2492" x="41.3938" y="8.79629" width="37.2634" height="23.7988" filterUnits="userSpaceOnUse" color-interpolation-filters="sRGB">
<feFlood flood-opacity="0" result="BackgroundImageFix"/>
<feColorMatrix in="SourceAlpha" type="matrix" values="0 0 0 0 0 0 0 0 0 0 0 0 0 0 0 0 0 0 127 0" result="hardAlpha"/>
<feOffset dx="-1.24502" dy="0.622509"/>
<feGaussianBlur stdDeviation="0.622509"/>
<feColorMatrix type="matrix" values="0 0 0 0 1 0 0 0 0 1 0 0 0 0 1 0 0 0 0.28 0"/>
<feBlend mode="normal" in2="BackgroundImageFix" result="effect1_dropShadow_225_2492"/>
<feColorMatrix in="SourceAlpha" type="matrix" values="0 0 0 0 0 0 0 0 0 0 0 0 0 0 0 0 0 0 127 0" result="hardAlpha"/>
<feOffset dy="-0.622509"/>
<feGaussianBlur stdDeviation="0.622509"/>
<feColorMatrix type="matrix" values="0 0 0 0 1 0 0 0 0 1 0 0 0 0 1 0 0 0 0.56 0"/>
<feBlend mode="normal" in2="effect1_dropShadow_225_2492" result="effect2_dropShadow_225_2492"/>
<feBlend mode="normal" in="SourceGraphic" in2="effect2_dropShadow_225_2492" result="shape"/>
<feColorMatrix in="SourceAlpha" type="matrix" values="0 0 0 0 0 0 0 0 0 0 0 0 0 0 0 0 0 0 127 0" result="hardAlpha"/>
<feOffset dx="-0.622509" dy="1.86753"/>
<feGaussianBlur stdDeviation="0.933763"/>
<feComposite in2="hardAlpha" operator="arithmetic" k2="-1" k3="1"/>
<feColorMatrix type="matrix" values="0 0 0 0 0 0 0 0 0 0 0 0 0 0 0 0 0 0 0.75 0"/>
<feBlend mode="normal" in2="shape" result="effect3_innerShadow_225_2492"/>
</filter>
<filter id="filter12_di_225_2492" x="13.3928" y="11.7478" width="36.0527" height="20.8831" filterUnits="userSpaceOnUse" color-interpolation-filters="sRGB">
<feFlood flood-opacity="0" result="BackgroundImageFix"/>
<feColorMatrix in="SourceAlpha" type="matrix" values="0 0 0 0 0 0 0 0 0 0 0 0 0 0 0 0 0 0 127 0" result="hardAlpha"/>
<feOffset dy="0.643755"/>
<feGaussianBlur stdDeviation="0.321877"/>
<feColorMatrix type="matrix" values="0 0 0 0 0.925374 0 0 0 0 0.925374 0 0 0 0 0.925374 0 0 0 0.37 0"/>
<feBlend mode="normal" in2="BackgroundImageFix" result="effect1_dropShadow_225_2492"/>
<feBlend mode="normal" in="SourceGraphic" in2="effect1_dropShadow_225_2492" result="shape"/>
<feColorMatrix in="SourceAlpha" type="matrix" values="0 0 0 0 0 0 0 0 0 0 0 0 0 0 0 0 0 0 127 0" result="hardAlpha"/>
<feOffset dx="-2.49003" dy="3.11254"/>
<feGaussianBlur stdDeviation="1.24502"/>
<feComposite in2="hardAlpha" operator="arithmetic" k2="-1" k3="1"/>
<feColorMatrix type="matrix" values="0 0 0 0 0 0 0 0 0 0 0 0 0 0 0 0 0 0 0.8 0"/>
<feBlend mode="normal" in2="shape" result="effect2_innerShadow_225_2492"/>
</filter>
<filter id="filter13_di_225_2492" x="13.4768" y="2.83105" width="25.625" height="10.4893" filterUnits="userSpaceOnUse" color-interpolation-filters="sRGB">
<feFlood flood-opacity="0" result="BackgroundImageFix"/>
<feColorMatrix in="SourceAlpha" type="matrix" values="0 0 0 0 0 0 0 0 0 0 0 0 0 0 0 0 0 0 127 0" result="hardAlpha"/>
<feOffset dy="0.643755"/>
<feGaussianBlur stdDeviation="0.321877"/>
<feColorMatrix type="matrix" values="0 0 0 0 0.925374 0 0 0 0 0.925374 0 0 0 0 0.925374 0 0 0 0.37 0"/>
<feBlend mode="normal" in2="BackgroundImageFix" result="effect1_dropShadow_225_2492"/>
<feBlend mode="normal" in="SourceGraphic" in2="effect1_dropShadow_225_2492" result="shape"/>
<feColorMatrix in="SourceAlpha" type="matrix" values="0 0 0 0 0 0 0 0 0 0 0 0 0 0 0 0 0 0 127 0" result="hardAlpha"/>
<feOffset dx="-2.49003" dy="3.11254"/>
<feGaussianBlur stdDeviation="1.24502"/>
<feComposite in2="hardAlpha" operator="arithmetic" k2="-1" k3="1"/>
<feColorMatrix type="matrix" values="0 0 0 0 0 0 0 0 0 0 0 0 0 0 0 0 0 0 0.8 0"/>
<feBlend mode="normal" in2="shape" result="effect2_innerShadow_225_2492"/>
</filter>
<filter id="filter14_f_225_2492" x="29.186" y="11.9116" width="73.3136" height="49.1752" filterUnits="userSpaceOnUse" color-interpolation-filters="sRGB">
<feFlood flood-opacity="0" result="BackgroundImageFix"/>
<feBlend mode="normal" in="SourceGraphic" in2="BackgroundImageFix" result="shape"/>
<feGaussianBlur stdDeviation="8.71512" result="effect1_foregroundBlur_225_2492"/>
</filter>
<filter id="filter15_di_225_2492" x="33.66" y="28.736" width="3.50617" height="3.99988" filterUnits="userSpaceOnUse" color-interpolation-filters="sRGB">
<feFlood flood-opacity="0" result="BackgroundImageFix"/>
<feColorMatrix in="SourceAlpha" type="matrix" values="0 0 0 0 0 0 0 0 0 0 0 0 0 0 0 0 0 0 127 0" result="hardAlpha"/>
<feOffset dy="-0.308751"/>
<feGaussianBlur stdDeviation="0.154375"/>
<feColorMatrix type="matrix" values="0 0 0 0 0.78755 0 0 0 0 0.78755 0 0 0 0 0.78755 0 0 0 0.19 0"/>
<feBlend mode="normal" in2="BackgroundImageFix" result="effect1_dropShadow_225_2492"/>
<feBlend mode="normal" in="SourceGraphic" in2="effect1_dropShadow_225_2492" result="shape"/>
<feColorMatrix in="SourceAlpha" type="matrix" values="0 0 0 0 0 0 0 0 0 0 0 0 0 0 0 0 0 0 127 0" result="hardAlpha"/>
<feOffset dy="1.54375"/>
<feGaussianBlur stdDeviation="0.771877"/>
<feComposite in2="hardAlpha" operator="arithmetic" k2="-1" k3="1"/>
<feColorMatrix type="matrix" values="0 0 0 0 0 0 0 0 0 0 0 0 0 0 0 0 0 0 0.74 0"/>
<feBlend mode="normal" in2="shape" result="effect2_innerShadow_225_2492"/>
</filter>
<filter id="filter16_di_225_2492" x="20.2577" y="22.8241" width="3.50617" height="3.99988" filterUnits="userSpaceOnUse" color-interpolation-filters="sRGB">
<feFlood flood-opacity="0" result="BackgroundImageFix"/>
<feColorMatrix in="SourceAlpha" type="matrix" values="0 0 0 0 0 0 0 0 0 0 0 0 0 0 0 0 0 0 127 0" result="hardAlpha"/>
<feOffset dy="-0.308751"/>
<feGaussianBlur stdDeviation="0.154375"/>
<feColorMatrix type="matrix" values="0 0 0 0 0.78755 0 0 0 0 0.78755 0 0 0 0 0.78755 0 0 0 0.19 0"/>
<feBlend mode="normal" in2="BackgroundImageFix" result="effect1_dropShadow_225_2492"/>
<feBlend mode="normal" in="SourceGraphic" in2="effect1_dropShadow_225_2492" result="shape"/>
<feColorMatrix in="SourceAlpha" type="matrix" values="0 0 0 0 0 0 0 0 0 0 0 0 0 0 0 0 0 0 127 0" result="hardAlpha"/>
<feOffset dy="1.54375"/>
<feGaussianBlur stdDeviation="0.771877"/>
<feComposite in2="hardAlpha" operator="arithmetic" k2="-1" k3="1"/>
<feColorMatrix type="matrix" values="0 0 0 0 0 0 0 0 0 0 0 0 0 0 0 0 0 0 0.74 0"/>
<feBlend mode="normal" in2="shape" result="effect2_innerShadow_225_2492"/>
</filter>
<filter id="filter17_f_225_2492" x="60.2691" y="19.8294" width="51.7959" height="42.5613" filterUnits="userSpaceOnUse" color-interpolation-filters="sRGB">
<feFlood flood-opacity="0" result="BackgroundImageFix"/>
<feBlend mode="normal" in="SourceGraphic" in2="BackgroundImageFix" result="shape"/>
<feGaussianBlur stdDeviation="3.11254" result="effect1_foregroundBlur_225_2492"/>
</filter>
<filter id="filter18_dii_225_2492" x="64.2786" y="31.0278" width="39.7456" height="23.9838" filterUnits="userSpaceOnUse" color-interpolation-filters="sRGB">
<feFlood flood-opacity="0" result="BackgroundImageFix"/>
<feColorMatrix in="SourceAlpha" type="matrix" values="0 0 0 0 0 0 0 0 0 0 0 0 0 0 0 0 0 0 127 0" result="hardAlpha"/>
<feOffset dy="0.581988"/>
<feGaussianBlur stdDeviation="1.74596"/>
<feColorMatrix type="matrix" values="0 0 0 0 0 0 0 0 0 0 0 0 0 0 0 0 0 0 0.85 0"/>
<feBlend mode="normal" in2="BackgroundImageFix" result="effect1_dropShadow_225_2492"/>
<feBlend mode="normal" in="SourceGraphic" in2="effect1_dropShadow_225_2492" result="shape"/>
<feColorMatrix in="SourceAlpha" type="matrix" values="0 0 0 0 0 0 0 0 0 0 0 0 0 0 0 0 0 0 127 0" result="hardAlpha"/>
<feOffset dy="0.581988"/>
<feGaussianBlur stdDeviation="0.581988"/>
<feComposite in2="hardAlpha" operator="arithmetic" k2="-1" k3="1"/>
<feColorMatrix type="matrix" values="0 0 0 0 0 0 0 0 0 0 0 0 0 0 0 0 0 0 0.25 0"/>
<feBlend mode="normal" in2="shape" result="effect2_innerShadow_225_2492"/>
<feColorMatrix in="SourceAlpha" type="matrix" values="0 0 0 0 0 0 0 0 0 0 0 0 0 0 0 0 0 0 127 0" result="hardAlpha"/>
<feOffset dy="-0.581988"/>
<feGaussianBlur stdDeviation="0.581988"/>
<feComposite in2="hardAlpha" operator="arithmetic" k2="-1" k3="1"/>
<feColorMatrix type="matrix" values="0 0 0 0 0 0 0 0 0 0 0 0 0 0 0 0 0 0 0.25 0"/>
<feBlend mode="normal" in2="effect2_innerShadow_225_2492" result="effect3_innerShadow_225_2492"/>
</filter>
<filter id="filter19_d_225_2492" x="70.2642" y="44.5984" width="13.2691" height="6.85362" filterUnits="userSpaceOnUse" color-interpolation-filters="sRGB">
<feFlood flood-opacity="0" result="BackgroundImageFix"/>
<feColorMatrix in="SourceAlpha" type="matrix" values="0 0 0 0 0 0 0 0 0 0 0 0 0 0 0 0 0 0 127 0" result="hardAlpha"/>
<feOffset dx="0.617501" dy="1.54375"/>
<feGaussianBlur stdDeviation="0.771877"/>
<feColorMatrix type="matrix" values="0 0 0 0 1 0 0 0 0 1 0 0 0 0 1 0 0 0 0.24 0"/>
<feBlend mode="normal" in2="BackgroundImageFix" result="effect1_dropShadow_225_2492"/>
<feBlend mode="normal" in="SourceGraphic" in2="effect1_dropShadow_225_2492" result="shape"/>
</filter>
<filter id="filter20_d_225_2492" x="96.8535" y="34.4932" width="4.49695" height="5.26868" filterUnits="userSpaceOnUse" color-interpolation-filters="sRGB">
<feFlood flood-opacity="0" result="BackgroundImageFix"/>
<feColorMatrix in="SourceAlpha" type="matrix" values="0 0 0 0 0 0 0 0 0 0 0 0 0 0 0 0 0 0 127 0" result="hardAlpha"/>
<feOffset dx="0.926252" dy="0.926252"/>
<feGaussianBlur stdDeviation="0.323923"/>
<feColorMatrix type="matrix" values="0 0 0 0 1 0 0 0 0 1 0 0 0 0 1 0 0 0 0.24 0"/>
<feBlend mode="normal" in2="BackgroundImageFix" result="effect1_dropShadow_225_2492"/>
<feBlend mode="normal" in="SourceGraphic" in2="effect1_dropShadow_225_2492" result="shape"/>
</filter>
<linearGradient id="paint0_linear_225_2492" x1="10.0922" y1="11.087" x2="10.5947" y2="3.61266" gradientUnits="userSpaceOnUse">
<stop stop-color="#3F3F3F"/>
<stop offset="1" stop-color="#5C5C5C"/>
</linearGradient>
<linearGradient id="paint1_linear_225_2492" x1="9.43647" y1="9.73094" x2="6.60577" y2="-3.25918" gradientUnits="userSpaceOnUse">
<stop stop-color="#3F3F3F"/>
<stop offset="1" stop-color="#777676"/>
</linearGradient>
<linearGradient id="paint2_linear_225_2492" x1="8.33492" y1="9.15507" x2="8.74978" y2="2.98315" gradientUnits="userSpaceOnUse">
<stop stop-color="#3F3F3F"/>
<stop offset="1" stop-color="#5C5C5C"/>
</linearGradient>
<linearGradient id="paint3_linear_225_2492" x1="7.80079" y1="8.04544" x2="5.46007" y2="-2.69451" gradientUnits="userSpaceOnUse">
<stop stop-color="#3F3F3F"/>
<stop offset="1" stop-color="#777676"/>
</linearGradient>
<linearGradient id="paint4_linear_225_2492" x1="12.9798" y1="31.7518" x2="15.7863" y2="25.045" gradientUnits="userSpaceOnUse">
<stop stop-color="#3F3F3F"/>
<stop offset="1" stop-color="#777676"/>
</linearGradient>
<linearGradient id="paint5_linear_225_2492" x1="63.937" y1="58.3236" x2="92.9591" y2="15.9567" gradientUnits="userSpaceOnUse">
<stop stop-color="#2C2C2C"/>
<stop offset="0.628054" stop-color="#515151"/>
<stop offset="1" stop-color="#7D7D7D"/>
</linearGradient>
<linearGradient id="paint6_linear_225_2492" x1="64.0468" y1="-7.08597" x2="39.632" y2="16.0179" gradientUnits="userSpaceOnUse">
<stop stop-color="#E8EAE9"/>
<stop offset="0.498386" stop-color="#707072"/>
<stop offset="1" stop-color="#2F3032"/>
</linearGradient>
<linearGradient id="paint7_linear_225_2492" x1="23.9544" y1="70.2933" x2="47.2762" y2="27.6629" gradientUnits="userSpaceOnUse">
<stop stop-color="#E8EAE9"/>
<stop offset="0.498386" stop-color="#707072"/>
<stop offset="1" stop-color="#2F3032"/>
</linearGradient>
<linearGradient id="paint8_linear_225_2492" x1="14.0055" y1="26.2401" x2="27.0102" y2="7.20469" gradientUnits="userSpaceOnUse">
<stop stop-color="#E8EAE9"/>
<stop offset="0.498386" stop-color="#707072"/>
<stop offset="1" stop-color="#2F3032"/>
</linearGradient>
<linearGradient id="paint9_linear_225_2492" x1="64.5719" y1="44.4861" x2="67.6016" y2="35.6283" gradientUnits="userSpaceOnUse">
<stop stop-color="#ECEAEA"/>
<stop offset="1" stop-color="white" stop-opacity="0"/>
</linearGradient>
<linearGradient id="paint10_linear_225_2492" x1="86.4494" y1="45.5671" x2="84.4066" y2="41.594" gradientUnits="userSpaceOnUse">
<stop stop-color="#4B4B4B"/>
<stop offset="0.899322" stop-opacity="0"/>
</linearGradient>
<clipPath id="clip0_225_2492">
<rect width="107" height="66" fill="white"/>
</clipPath>
</defs>
</svg>
