<svg width="49" height="48" viewBox="0 0 49 48" fill="none" xmlns="http://www.w3.org/2000/svg">
<path d="M36.7802 33.3999C34.9602 36.4199 32.6602 35.4599 30.5002 34.1799C28.3402 32.8999 26.3002 31.3599 25.0002 33.1799C23.5802 34.7399 24.6802 37.2399 25.2402 39.4399C25.8002 41.6599 25.8402 43.5799 22.3002 43.9999C19.5002 43.6199 19.6602 41.2999 20.1202 38.8399C20.5802 36.3799 21.3002 33.7799 19.5002 32.8599C18.0602 31.8999 17.0602 33.5599 15.8002 35.1999C14.5002 36.8199 13.0202 38.3999 10.5802 37.2399C8.38016 35.4199 9.22016 34.3599 10.3802 32.9999C11.5402 31.6399 13.0402 29.8199 12.1802 26.6199C11.8202 25.3199 10.0202 25.6199 8.24016 25.5799C6.50016 25.5399 4.74016 25.1799 4.56016 22.5799C4.42016 20.9999 5.60016 20.3599 6.82016 19.8599C8.06016 19.3599 9.32016 18.9999 9.34016 17.7399C9.40016 16.5199 8.58016 15.6599 8.06016 14.7599C7.54016 13.8599 7.32016 12.9199 8.56016 11.5199C10.6602 9.79994 12.3402 11.2599 14.0202 12.8399C15.7002 14.4199 17.3602 16.0799 19.4202 14.7799C21.0602 13.6999 19.5602 11.7999 18.4002 9.93994C17.2402 8.07994 16.4202 6.29994 19.4202 5.47994C22.0202 4.75994 23.0202 6.53994 23.9202 8.59994C24.8402 10.6599 25.6402 12.9999 27.8402 13.4199C30.9802 13.9999 33.2602 10.3199 35.4402 7.39994C37.6202 4.47994 39.7602 2.29994 42.5002 5.89994C45.5002 9.67994 42.6402 11.4399 39.3002 12.9999C35.9602 14.4599 32.1202 15.7399 33.0402 18.5599C33.5802 20.1999 35.3402 19.2999 37.2002 18.6799C39.0402 18.0599 41.0202 17.7199 41.9802 20.5399C43.0002 23.5199 40.5802 24.1999 37.8602 24.4799C35.1402 24.7599 32.1002 24.6399 31.9002 25.9999C31.6802 27.4199 33.5002 27.9999 35.0802 28.8399C36.6602 29.6999 38.0002 30.8399 36.7802 33.3999ZM41.5002 37.9999C39.6002 37.9999 38.6202 36.5199 38.6202 34.9999C38.6202 33.4799 39.5802 31.9999 41.5002 31.9999C43.5002 31.9999 44.5002 33.4799 44.5002 34.9999C44.5002 36.5199 43.5002 37.9999 41.5002 37.9999Z" fill="#EEEEEE"/>
</svg>
