<svg width="41" height="40" viewBox="0 0 41 40" fill="none" xmlns="http://www.w3.org/2000/svg">
<path fill-rule="evenodd" clip-rule="evenodd" d="M28.7945 15.3428L27.9111 16.5724C32.2868 20.566 34.8232 26.1864 34.8232 32.1308H36.3335C36.3335 25.7036 33.5616 19.6264 28.7945 15.3428Z" fill="#EEEEEE"/>
<path fill-rule="evenodd" clip-rule="evenodd" d="M23.3136 22.7842L22.4189 23.9926C24.819 25.951 26.2491 28.9358 26.2491 32.1302H27.761C27.7614 28.465 26.1044 25.0298 23.3136 22.7842Z" fill="#EEEEEE"/>
<path fill-rule="evenodd" clip-rule="evenodd" d="M26.1285 18.9795L25.2314 20.1923C28.6355 23.1563 30.6279 27.5103 30.6279 32.1299H32.1382C32.1382 27.0379 29.9272 22.2339 26.1285 18.9795Z" fill="#EEEEEE"/>
<path fill-rule="evenodd" clip-rule="evenodd" d="M18.4758 9.14683C18.2867 9.01963 18.1843 8.85483 18.1924 8.68803C18.2113 8.34683 18.6774 8.09243 19.2342 8.12163C19.7885 8.15083 20.2256 8.44843 20.2082 8.79043C20.1917 9.13163 19.7256 9.38403 19.1688 9.35683C18.9068 9.34243 18.6588 9.26723 18.4758 9.14683ZM25.8071 14.4864C25.6285 14.3508 25.4733 14.1316 25.3785 13.878C25.1834 13.3592 25.2878 12.8424 25.6116 12.724C25.9329 12.6048 26.3526 12.9304 26.5453 13.4468C26.7405 13.9656 26.636 14.4824 26.3123 14.6008C26.176 14.6508 26.0123 14.6216 25.8523 14.5196C25.8386 14.5088 25.8212 14.4968 25.8071 14.4864ZM21.8084 19.5844C20.9436 18.6532 19.799 17.6324 18.5246 16.6844C17.2308 15.7612 15.908 14.986 14.7529 14.4468L16.2986 11.6092C16.324 11.5656 16.3426 11.4048 16.9498 11.4652C17.5586 11.524 18.4379 11.5304 20.973 13.3756V13.3776L20.9755 13.3756C23.5078 15.2212 23.7763 16.0528 24.0158 16.6092C24.2553 17.1676 24.1081 17.2344 24.0727 17.2696L21.8084 19.5844ZM11.4037 26.3088C10.2825 25.4924 8.3065 23.772 8.28553 22.2804L10.736 19.82C11.3952 20.5636 13.1652 21.9304 14.138 22.6136C15.0871 23.3304 16.9312 24.5968 17.8444 24.9968L16.2128 28.0528C14.7718 28.4804 12.5253 27.126 11.4037 26.3088ZM5.88785 27.5548C5.41936 26.6216 5.38791 25.8844 5.71932 25.4368L6.51559 24.3616C6.61235 24.5388 6.6942 24.7076 6.75105 24.862C7.05746 25.7076 6.85345 26.2512 6.62042 26.566L5.88785 27.5548ZM11.8597 31.9032L12.5918 30.9132C12.8249 30.5984 13.2849 30.242 14.1904 30.28C14.3557 30.2864 14.5432 30.3132 14.7424 30.3528L13.9461 31.4276C13.6151 31.876 12.897 32.0652 11.8597 31.9032ZM7.69085 31.328C10.4691 33.3508 13.6336 33.73 14.7843 32.1756L17.3001 28.774L18.2097 28.8736C18.9886 28.9592 19.5515 27.7968 18.4004 27.4944L18.273 27.4612L27.0626 15.5796C27.802 14.5796 28.2786 12.2484 24.0727 9.18403C19.8667 6.12163 17.7666 7.27363 17.0272 8.27363L8.23755 20.1532L8.16579 20.0424C7.532 19.0424 6.58212 19.9244 6.8974 20.6368L7.26751 21.4676L4.74928 24.8696C3.60104 26.4236 4.91136 29.3032 7.69085 31.328Z" fill="#EEEEEE"/>
</svg>
