<svg width="39" height="58" viewBox="0 0 39 58" fill="none" xmlns="http://www.w3.org/2000/svg">
<g clip-path="url(#clip0_470_4268)">
<path d="M3.75 4.5C3.75 3.30653 4.22411 2.16193 5.06802 1.31802C5.91193 0.474106 7.05653 0 8.25 0L21.75 0C22.9435 0 24.0881 0.474106 24.932 1.31802C25.7759 2.16193 26.25 3.30653 26.25 4.5V22.5C27.4435 22.5 28.5881 22.9741 29.432 23.818C30.2759 24.6619 30.75 25.8065 30.75 27V28.125C30.75 28.4234 30.8685 28.7095 31.0795 28.9205C31.2905 29.1315 31.5766 29.25 31.875 29.25C32.1734 29.25 32.4595 29.1315 32.6705 28.9205C32.8815 28.7095 33 28.4234 33 28.125V18H31.875C31.5766 18 31.2905 17.8815 31.0795 17.6705C30.8685 17.4595 30.75 17.1734 30.75 16.875V9.84375C30.75 9.54538 30.8685 9.25923 31.0795 9.04825C31.2905 8.83728 31.5766 8.71875 31.875 8.71875H35.2388C35.214 7.64775 35.1195 6.70725 34.7865 5.96925C34.6082 5.54014 34.2977 5.17912 33.9 4.93875C33.486 4.69125 32.856 4.5 31.875 4.5C31.5766 4.5 31.2905 4.38147 31.0795 4.1705C30.8685 3.95952 30.75 3.67337 30.75 3.375C30.75 3.07663 30.8685 2.79048 31.0795 2.5795C31.2905 2.36853 31.5766 2.25 31.875 2.25C33.144 2.247 34.203 2.499 35.052 3.006C35.9137 3.519 36.4785 4.24575 36.8385 5.04675C37.5023 6.5205 37.5 8.343 37.5 9.729V16.875C37.5 17.1734 37.3815 17.4595 37.1705 17.6705C36.9595 17.8815 36.6734 18 36.375 18H35.25V28.125C35.25 29.0201 34.8944 29.8786 34.2615 30.5115C33.6286 31.1444 32.7701 31.5 31.875 31.5C30.9799 31.5 30.1214 31.1444 29.4885 30.5115C28.8556 29.8786 28.5 29.0201 28.5 28.125V27C28.5 26.4033 28.2629 25.831 27.841 25.409C27.419 24.9871 26.8467 24.75 26.25 24.75V33.75H27.375C27.6734 33.75 27.9595 33.8685 28.1705 34.0795C28.3815 34.2905 28.5 34.5766 28.5 34.875C28.5 35.1734 28.3815 35.4595 28.1705 35.6705C27.9595 35.8815 27.6734 36 27.375 36H2.625C2.32663 36 2.04048 35.8815 1.8295 35.6705C1.61853 35.4595 1.5 35.1734 1.5 34.875C1.5 34.5766 1.61853 34.2905 1.8295 34.0795C2.04048 33.8685 2.32663 33.75 2.625 33.75H3.75V4.5ZM9.375 4.5C9.07663 4.5 8.79048 4.61853 8.5795 4.8295C8.36853 5.04048 8.25 5.32663 8.25 5.625V16.875C8.25 17.1734 8.36853 17.4595 8.5795 17.6705C8.79048 17.8815 9.07663 18 9.375 18H20.625C20.9234 18 21.2095 17.8815 21.4205 17.6705C21.6315 17.4595 21.75 17.1734 21.75 16.875V5.625C21.75 5.32663 21.6315 5.04048 21.4205 4.8295C21.2095 4.61853 20.9234 4.5 20.625 4.5H9.375Z" fill="#EEEEEE"/>
</g>
<path d="M1.44815 54V43.0909H8.67116V44.9925H3.75462V47.592H8.19176V49.4936H3.75462V54H1.44815ZM16.9608 43.0909H19.2673V50.1754C19.2673 50.9709 19.0773 51.6669 18.6974 52.2635C18.3209 52.8601 17.7936 53.3253 17.1153 53.6591C16.4371 53.9893 15.6469 54.1545 14.7449 54.1545C13.8394 54.1545 13.0475 53.9893 12.3692 53.6591C11.691 53.3253 11.1636 52.8601 10.7872 52.2635C10.4108 51.6669 10.2226 50.9709 10.2226 50.1754V43.0909H12.529V49.9783C12.529 50.3938 12.6196 50.7631 12.8007 51.0863C12.9854 51.4094 13.2446 51.6634 13.5784 51.848C13.9122 52.0327 14.301 52.125 14.7449 52.125C15.1924 52.125 15.5812 52.0327 15.9115 51.848C16.2453 51.6634 16.5028 51.4094 16.6839 51.0863C16.8685 50.7631 16.9608 50.3938 16.9608 49.9783V43.0909ZM21.165 54V43.0909H28.5158V44.9925H23.4714V47.592H28.1376V49.4936H23.4714V52.0984H28.5371V54H21.165ZM30.3495 54V43.0909H32.656V52.0984H37.3328V54H30.3495Z" fill="white"/>
<defs>
<clipPath id="clip0_470_4268">
<rect width="36" height="36" fill="white" transform="translate(1.5)"/>
</clipPath>
</defs>
</svg>
