<svg width="45" height="24" viewBox="0 0 45 24" fill="none" xmlns="http://www.w3.org/2000/svg">
<g clip-path="url(#clip0_462_7697)">
<path d="M11.8855 9.11285C10.4416 8.13576 8.88633 7.52418 7.23092 7.16786C6.88247 7.0923 6.52789 7.03921 6.1825 6.95141C5.70938 6.83093 5.42633 6.39803 5.51114 5.96104C5.60311 5.48832 6.04353 5.16364 6.52686 5.23818C8.76882 5.58429 10.8738 6.31737 12.8195 7.49253C13.312 7.79066 13.7994 8.09594 14.2439 8.37059C14.7487 7.89378 15.2433 7.45476 15.7062 6.98408C17.52 5.14118 19.717 4.13857 22.2951 4.04974C23.9608 3.99256 25.6346 3.97827 27.2971 4.06914C29.4624 4.18757 31.2681 5.15139 32.7681 6.70535C33.1105 7.05963 33.4589 7.41187 33.837 7.72634C34.6116 8.37059 35.5231 8.64626 36.5265 8.6728C38.3281 8.72079 39.8404 9.71524 40.1286 11.2682C40.383 12.6404 40.5455 14.0871 39.7147 15.3756C38.9637 16.5406 37.857 17.143 36.4826 17.2308C35.9206 17.2665 35.3555 17.2369 34.8047 17.2369C34.1936 18.6796 32.9674 19.7363 31.5623 19.9017C29.2846 20.1692 27.524 17.973 27.4024 17.6341C27.2971 17.34 27.153 17.2512 26.8495 17.2522C23.224 17.2624 19.5974 17.2624 15.9719 17.2522C15.6531 17.2522 15.5018 17.3492 15.369 17.6443C14.108 20.4449 10.2423 20.841 8.44387 18.3631C8.42343 18.3355 8.40197 18.31 8.38256 18.2814C8.09337 17.8546 7.03064 16.902 6.60963 16.66C5.42837 15.9831 4.62008 15.0111 4.38812 13.6461C4.01514 11.453 5.66748 9.50491 7.93805 9.39464C9.16019 9.33543 10.3813 9.23537 11.6024 9.15267C11.6975 9.14654 11.7925 9.12714 11.8875 9.11387L11.8855 9.11285ZM34.82 15.5094C35.4107 15.5094 36.0115 15.5747 36.5929 15.4941C37.486 15.3705 38.1421 14.8519 38.3751 13.9626C38.4967 13.496 38.4711 12.9875 38.4824 12.4974C38.513 11.164 37.8314 10.4412 36.4857 10.383C35.2175 10.3278 34.0189 10.0491 32.997 9.26089C32.4606 8.84739 31.9404 8.4002 31.4745 7.91012C30.0418 6.40619 28.3047 5.67925 26.2303 5.71396C25.0388 5.73438 23.8463 5.70681 22.6538 5.72519C22.2134 5.73234 21.7699 5.78237 21.3356 5.8569C19.3328 6.19995 17.7315 7.24239 16.4552 8.78307C15.3414 10.1277 13.9609 10.8036 12.2023 10.8312C10.7921 10.8536 9.37784 10.966 7.9779 11.1395C7.49661 11.1998 6.9448 11.4652 6.61372 11.8144C5.57449 12.912 6.38891 14.955 7.95849 15.3093C8.15673 14.9754 8.32329 14.616 8.55934 14.3107C10.3629 11.9818 14.1908 12.4556 15.3659 15.1541C15.4845 15.4257 15.6071 15.538 15.9147 15.5369C19.5586 15.5257 23.2025 15.5288 26.8465 15.5329C27.0989 15.5329 27.2736 15.5165 27.3911 15.2215C27.9858 13.7216 29.5145 12.7568 31.1352 12.8201C32.947 12.8915 34.304 13.8809 34.82 15.5104V15.5094ZM31.0678 18.2783C32.0488 18.3028 33.2229 17.5554 33.1462 16.3507C33.0849 15.3766 32.1387 14.5057 31.0524 14.516C29.911 14.5262 28.9781 15.3797 28.9801 16.4109C28.9822 17.4442 29.9151 18.2783 31.0667 18.2793L31.0678 18.2783ZM11.7302 18.2783C12.8818 18.2722 13.7964 17.436 13.7902 16.3946C13.7841 15.3654 12.8614 14.5343 11.7067 14.519C10.602 14.5047 9.63842 15.393 9.64761 16.415C9.65783 17.4554 10.5836 18.2834 11.7302 18.2773V18.2783Z" fill="#00CCB8"/>
</g>
<defs>
<clipPath id="clip0_462_7697">
<rect width="36" height="16" fill="white" transform="translate(4.3335 4.00391)"/>
</clipPath>
</defs>
</svg>
