<svg width="16" height="17" viewBox="0 0 16 17" fill="none" xmlns="http://www.w3.org/2000/svg">
<path d="M13.3332 7.16634C13.3332 11.1663 7.99984 15.1663 7.99984 15.1663C7.99984 15.1663 2.6665 11.1663 2.6665 7.16634C2.6665 5.75185 3.22841 4.3953 4.2286 3.3951C5.2288 2.39491 6.58535 1.83301 7.99984 1.83301C9.41433 1.83301 10.7709 2.39491 11.7711 3.3951C12.7713 4.3953 13.3332 5.75185 13.3332 7.16634Z" stroke="#00CCB8" stroke-linecap="round" stroke-linejoin="round"/>
<path d="M8 9.16699C9.10457 9.16699 10 8.27156 10 7.16699C10 6.06242 9.10457 5.16699 8 5.16699C6.89543 5.16699 6 6.06242 6 7.16699C6 8.27156 6.89543 9.16699 8 9.16699Z" stroke="#00CCB8" stroke-linecap="round" stroke-linejoin="round"/>
</svg>
