<svg width="38" height="42" viewBox="0 0 38 42" fill="none" xmlns="http://www.w3.org/2000/svg">
<rect x="13" y="4.50391" width="12" height="4" rx="2" fill="#00CCB8"/>
<g clip-path="url(#clip0_541_55)">
<path d="M4.80225 18.3277V12.583H8.65293V13.5844H6.00722V14.9547H8.44992V15.9561H6.00722V17.3264H8.65948V18.3277H4.80225Z" fill="#EEEEEE"/>
<path d="M14.3891 12.583V18.3277H13.3478L10.8659 14.7109H10.8266V18.3277H9.62158V12.583H10.6825L13.1448 16.1998H13.1972V12.583H14.4022H14.3891Z" fill="#EEEEEE"/>
<path d="M19.1701 14.4405C19.1308 14.3022 19.0784 14.1836 19.0063 14.0782C18.9343 13.9728 18.8492 13.8805 18.7509 13.8081C18.6527 13.7356 18.5348 13.6763 18.4038 13.6368C18.2729 13.5973 18.1288 13.5775 17.9782 13.5775C17.6835 13.5775 17.4281 13.65 17.212 13.7949C16.9893 13.9398 16.819 14.1507 16.6946 14.4273C16.5702 14.704 16.5112 15.0466 16.5112 15.4419C16.5112 15.8372 16.5702 16.1797 16.6946 16.463C16.819 16.7463 16.9893 16.9571 17.2054 17.1021C17.4281 17.247 17.69 17.3195 17.9913 17.3195C18.2663 17.3195 18.4955 17.2734 18.692 17.1745C18.8885 17.0757 19.0325 16.9374 19.1373 16.7595C19.2421 16.5816 19.2945 16.3708 19.2945 16.1205L19.5433 16.1534H18.0699V15.2377H20.4602V15.9623C20.4602 16.4696 20.3554 16.8978 20.1393 17.2602C19.9297 17.6225 19.635 17.8992 19.2617 18.0969C18.8885 18.2945 18.4628 18.3933 17.9847 18.3933C17.4477 18.3933 16.9762 18.2747 16.5767 18.0376C16.1707 17.8004 15.8564 17.4578 15.6272 17.0164C15.4045 16.575 15.2866 16.0546 15.2866 15.4485C15.2866 14.9807 15.3521 14.5657 15.4896 14.2034C15.6272 13.841 15.8105 13.5248 16.0594 13.2745C16.3017 13.0175 16.5833 12.8265 16.9107 12.6947C17.2316 12.563 17.5852 12.4971 17.9585 12.4971C18.2794 12.4971 18.5807 12.5432 18.8623 12.6354C19.1439 12.7276 19.3862 12.866 19.6023 13.0373C19.8184 13.2086 19.9952 13.4128 20.1327 13.65C20.2702 13.8871 20.3554 14.1441 20.3947 14.4339H19.1701V14.4405Z" fill="#EEEEEE"/>
<path d="M22.5619 12.583V18.3277H21.3569V12.583H22.5619Z" fill="#EEEEEE"/>
<path d="M28.3383 12.583V18.3277H27.2971L24.8151 14.7109H24.7758V18.3277H23.5708V12.583H24.6317L27.094 16.1998H27.1464V12.583H28.3514H28.3383Z" fill="#EEEEEE"/>
<path d="M29.3335 18.3277V12.583H33.1842V13.5844H30.545V14.9547H32.9877V15.9561H30.545V17.3264H33.1973V18.3277H29.34H29.3335Z" fill="#EEEEEE"/>
<path d="M11.6199 24.976C11.4824 24.8706 11.3383 24.785 11.1746 24.7257C11.0174 24.6598 10.8603 24.6137 10.7096 24.5742L10.2447 24.4556C10.153 24.4292 10.0548 24.4029 9.95653 24.3634C9.8583 24.3238 9.76007 24.2843 9.67493 24.225C9.5898 24.1657 9.51776 24.0998 9.46537 24.0208C9.41298 23.9351 9.38679 23.8429 9.38679 23.7243C9.38679 23.586 9.42608 23.4674 9.50466 23.362C9.58325 23.2566 9.69458 23.1709 9.83865 23.1116C9.98273 23.0524 10.153 23.0194 10.3429 23.0194C10.618 23.0194 10.8406 23.0787 11.024 23.2039C11.2008 23.329 11.3056 23.5003 11.3318 23.7177H12.0259C12.0259 23.4608 11.9474 23.2302 11.8033 23.0326C11.6592 22.8349 11.4628 22.6768 11.2204 22.5648C10.9781 22.4528 10.69 22.3936 10.3626 22.3936C10.0351 22.3936 9.75352 22.4528 9.50466 22.5648C9.25581 22.6768 9.04625 22.8415 8.90218 23.0458C8.75155 23.25 8.67952 23.4937 8.67952 23.7704C8.67952 24.1064 8.79085 24.3699 9.0135 24.5742C9.23616 24.7784 9.53741 24.9299 9.91724 25.0353L10.4804 25.1869C10.6507 25.233 10.8013 25.2857 10.9388 25.345C11.0764 25.4043 11.1812 25.4767 11.2597 25.569C11.3383 25.6612 11.3776 25.7732 11.3776 25.9181C11.3776 26.0762 11.3318 26.208 11.2401 26.3266C11.1484 26.4452 11.024 26.5308 10.8668 26.5967C10.7096 26.6626 10.5263 26.6955 10.3233 26.6955C10.1399 26.6955 9.96963 26.6692 9.81246 26.6099C9.65529 26.5572 9.53086 26.4715 9.43263 26.3529C9.3344 26.2343 9.27546 26.096 9.26236 25.9181H8.54199C8.55509 26.208 8.64022 26.4583 8.7843 26.6626C8.92837 26.8734 9.13793 27.0315 9.39333 27.1501C9.65529 27.2621 9.96308 27.3214 10.3167 27.3214C10.6703 27.3214 11.0043 27.2621 11.2663 27.1369C11.5282 27.0183 11.7313 26.847 11.8688 26.6362C12.0063 26.4254 12.0783 26.1882 12.0783 25.9115C12.0783 25.6941 12.039 25.5097 11.9539 25.3581C11.8688 25.2066 11.7574 25.0749 11.6199 24.9695V24.976Z" fill="#00CCB8"/>
<path d="M12.7002 23.079H14.1868V27.2492H14.9006V23.079H16.3872V22.4531H12.7002V23.079Z" fill="#00CCB8"/>
<path d="M18.5546 22.4531L16.8389 27.2426H17.6051L18.0438 25.9777H19.9037L20.3359 27.2426H21.0956L19.3798 22.4531H18.5481H18.5546ZM18.2469 25.3716L18.9476 23.3293H18.9869L19.6876 25.3716H18.2469Z" fill="#00CCB8"/>
<path d="M24.3962 25.2457C24.6385 25.1205 24.8218 24.9492 24.9463 24.7252C25.0707 24.5013 25.1296 24.2443 25.1296 23.9545C25.1296 23.6646 25.0707 23.4011 24.9463 23.1771C24.8218 22.9531 24.645 22.7752 24.3962 22.65C24.1539 22.5249 23.8461 22.459 23.4793 22.459H21.7832V27.2484H22.5036V25.4367H23.4793C23.4793 25.4367 23.5055 25.4367 23.5252 25.4367L24.4944 27.255H25.313L24.2521 25.305C24.2979 25.2852 24.3569 25.2786 24.4027 25.2523L24.3962 25.2457ZM22.5036 23.0717H23.4073C23.6431 23.0717 23.8395 23.1046 23.9836 23.1771C24.1277 23.2495 24.239 23.3484 24.3045 23.4801C24.3765 23.6119 24.4093 23.77 24.4093 23.9479C24.4093 24.1257 24.3765 24.2839 24.3045 24.409C24.239 24.5342 24.1277 24.633 23.9836 24.6989C23.8395 24.7648 23.6496 24.7977 23.4139 24.7977H22.5036V23.0585V23.0717Z" fill="#00CCB8"/>
<path d="M25.7715 22.4531V23.079H27.2581V27.2492H27.9719V23.079H29.4585V22.4531H25.7715Z" fill="#00CCB8"/>
<path d="M33.6726 29.9801H4.32744C4.14407 29.9801 4 29.8352 4 29.6507C4 29.4662 4.14407 29.3213 4.32744 29.3213H33.6726C33.8559 29.3213 34 29.4662 34 29.6507C34 29.8352 33.8559 29.9801 33.6726 29.9801Z" fill="#EEEEEE"/>
<path d="M13.5579 34.5698C13.4204 34.4644 13.2763 34.3787 13.1126 34.3194C12.9554 34.2536 12.7983 34.2075 12.6476 34.1679L12.1827 34.0493C12.091 34.023 11.9928 33.9966 11.8945 33.9571C11.7963 33.9176 11.6981 33.8781 11.6129 33.8188C11.5278 33.7595 11.4558 33.6936 11.4034 33.6145C11.351 33.5289 11.3248 33.4367 11.3248 33.3181C11.3248 33.1797 11.3641 33.0611 11.4427 32.9557C11.5212 32.8503 11.6326 32.7647 11.7766 32.7054C11.9207 32.6461 12.091 32.6132 12.2809 32.6132C12.5559 32.6132 12.7786 32.6725 12.962 32.7976C13.1388 32.9228 13.2436 33.0941 13.2698 33.3115H13.9639C13.9639 33.0546 13.8854 32.824 13.7413 32.6263C13.5972 32.4287 13.4007 32.2706 13.1584 32.1586C12.9161 32.0466 12.628 31.9873 12.3005 31.9873C11.9731 31.9873 11.6915 32.0466 11.4427 32.1586C11.1938 32.2706 10.9842 32.4353 10.8402 32.6395C10.6895 32.8437 10.6175 33.0875 10.6175 33.3642C10.6175 33.7002 10.7288 33.9637 10.9515 34.1679C11.1742 34.3722 11.4754 34.5237 11.8552 34.6291L12.4184 34.7806C12.5887 34.8267 12.7393 34.8794 12.8768 34.9387C13.0144 34.998 13.1191 35.0705 13.1977 35.1627C13.2763 35.2549 13.3156 35.3669 13.3156 35.5119C13.3156 35.67 13.2698 35.8017 13.1781 35.9203C13.0864 36.0389 12.962 36.1246 12.8048 36.1904C12.6476 36.2563 12.4643 36.2893 12.2613 36.2893C12.0779 36.2893 11.9076 36.2629 11.7504 36.2036C11.5933 36.1509 11.4688 36.0653 11.3706 35.9467C11.2724 35.8281 11.2134 35.6897 11.2003 35.5119H10.48C10.4931 35.8017 10.5782 36.0521 10.7223 36.2563C10.8664 36.4671 11.0759 36.6252 11.3313 36.7438C11.5933 36.8558 11.9011 36.9151 12.2547 36.9151C12.6083 36.9151 12.9423 36.8558 13.2043 36.7306C13.4662 36.6121 13.6692 36.4408 13.8068 36.23C13.9443 36.0191 14.0163 35.782 14.0163 35.5053C14.0163 35.2879 13.977 35.1034 13.8919 34.9519C13.8068 34.8004 13.6954 34.6686 13.5579 34.5632V34.5698Z" fill="#EEEEEE"/>
<path d="M14.645 32.6661H16.125V36.8363H16.8454V32.6661H18.3254V32.0469H14.645V32.6661Z" fill="#EEEEEE"/>
<path d="M22.2347 32.2769C21.9138 32.0793 21.5471 31.9805 21.1345 31.9805C20.722 31.9805 20.3552 32.0793 20.0278 32.2769C19.7003 32.4746 19.4515 32.7578 19.2616 33.1268C19.0717 33.4957 18.98 33.9305 18.98 34.4444C18.98 34.9582 19.0717 35.393 19.2616 35.762C19.4515 36.1309 19.7003 36.4142 20.0278 36.6118C20.3552 36.8095 20.722 36.9083 21.1345 36.9083C21.5471 36.9083 21.9138 36.8095 22.2347 36.6118C22.5556 36.4142 22.811 36.1309 23.0009 35.762C23.1843 35.393 23.2825 34.9582 23.2825 34.4444C23.2825 33.9305 23.1909 33.4957 23.0009 33.1268C22.811 32.7578 22.5622 32.4746 22.2347 32.2769ZM22.3788 35.426C22.2544 35.6961 22.0841 35.8937 21.868 36.0321C21.6519 36.1704 21.4096 36.2363 21.1345 36.2363C20.8595 36.2363 20.6172 36.1704 20.4011 36.0321C20.185 35.8937 20.0147 35.6895 19.8903 35.426C19.7658 35.1559 19.7003 34.8265 19.7003 34.4378C19.7003 34.0491 19.7658 33.7197 19.8903 33.4496C20.0147 33.1795 20.185 32.9818 20.4011 32.8435C20.6172 32.7051 20.8595 32.6393 21.1345 32.6393C21.4096 32.6393 21.6519 32.7117 21.868 32.8435C22.0841 32.9818 22.2544 33.1861 22.3788 33.4496C22.5032 33.7197 22.5687 34.0425 22.5687 34.4378C22.5687 34.8331 22.5032 35.1559 22.3788 35.426Z" fill="#EEEEEE"/>
<path d="M27.3364 32.8045C27.212 32.5673 27.0352 32.3829 26.7929 32.2511C26.5506 32.1128 26.2428 32.0469 25.8695 32.0469H24.1733V36.8363H24.8937V35.1498H25.8695C26.2362 35.1498 26.544 35.0839 26.7863 34.9456C27.0286 34.8072 27.212 34.6228 27.3364 34.3856C27.4608 34.1484 27.5198 33.8849 27.5198 33.5885C27.5198 33.292 27.4608 33.0285 27.3364 32.7979V32.8045ZM26.6881 34.0826C26.6226 34.2275 26.5113 34.3395 26.3672 34.4185C26.2231 34.4976 26.0332 34.5437 25.7974 34.5437H24.8872V32.6727H25.7909C26.0266 32.6727 26.2231 32.7123 26.3672 32.7913C26.5113 32.8704 26.6226 32.9824 26.6881 33.1207C26.7536 33.2591 26.7929 33.4238 26.7929 33.6016C26.7929 33.7795 26.7601 33.9442 26.6881 34.0826Z" fill="#EEEEEE"/>
</g>
<defs>
<clipPath id="clip0_541_55">
<rect width="30" height="25" fill="white" transform="translate(4 12.5039)"/>
</clipPath>
</defs>
</svg>
