<svg width="30" height="24" viewBox="0 0 30 24" fill="none" xmlns="http://www.w3.org/2000/svg">
<g clip-path="url(#clip0_541_1573)">
<path d="M4.07031 17.6609V15.9993C5.54584 15.9993 7.01391 15.9962 8.48882 16.0018C8.66245 16.0024 8.76762 15.9679 8.83981 15.7826C9.86664 12.9418 14.3268 12.9273 15.345 15.8152C15.3748 15.8881 15.4638 15.9893 15.5248 15.9886C16.7396 16.1293 18.3215 15.8008 18.3303 14.2654C18.3962 13.1673 18.367 11.8487 16.9898 11.7073C14.0736 11.4981 13.6473 10.7631 11.6502 8.87598C9.54802 7.03405 6.61873 7.84005 4.07965 7.69368V6.0509C15.1601 5.18773 11.9682 9.70083 16.9524 10.0463C19.1642 10.1004 20.3416 12.0139 20.0821 14.0751C20.2196 16.647 17.8193 17.8544 15.6568 17.6691C15.5491 17.6785 15.3879 17.752 15.3537 17.8381C14.3754 20.7109 9.91332 20.709 8.8423 17.9355C8.83296 17.6289 8.65311 17.6126 8.40667 17.617C6.95852 17.6396 5.52033 17.6547 4.07031 17.6609ZM12.1139 18.3752C13.3909 18.46 14.3561 16.8066 13.3548 15.8303C12.7499 15.1776 11.4828 15.0074 10.657 15.9641C9.76458 16.9498 10.97 18.5404 12.1145 18.3752H12.1139Z" fill="#EEEEEE"/>
<path d="M22.1507 7.50258C22.445 7.49818 22.5875 7.74193 22.4786 8.03908C22.1426 8.95941 21.8015 9.87849 21.463 10.7982C21.29 11.2681 21.1232 11.7411 20.9371 12.2054C20.8967 12.3059 20.7853 12.3775 20.7062 12.4623C20.6359 12.3712 20.5332 12.2908 20.4996 12.1878C20.0621 10.8522 19.1473 10.0236 17.8436 9.59077C17.7216 9.55056 17.6214 9.44314 17.5112 9.36649C17.617 9.27352 17.7085 9.14034 17.8317 9.09385C19.1679 8.58876 20.5083 8.09687 21.8482 7.60247C21.9546 7.56289 22.0642 7.53085 22.1507 7.50195V7.50258Z" fill="#EEEEEE"/>
<path d="M16.2717 5.28735C17.0142 4.85765 17.7267 4.44491 18.4878 4.00391C18.4287 4.36136 18.3802 4.65599 18.3285 4.96884C19.5221 5.34514 20.5347 5.93504 21.012 7.22288C20.6765 7.35292 20.3548 7.47793 20.0374 7.60106C19.4188 6.64932 18.9147 6.2504 18.1263 6.10654C18.0615 6.46337 17.9968 6.82271 17.9184 7.25555C17.3484 6.57393 16.82 5.94258 16.2717 5.28735Z" fill="#00CCB8"/>
<path d="M24.6623 13.9688C24.0126 13.4166 23.3915 12.8876 22.7194 12.3159C23.1333 12.2343 23.4905 12.1639 23.8744 12.0879C23.623 11.2442 23.2222 10.5582 22.3616 10.2051C22.486 9.86967 22.6074 9.54363 22.7406 9.18555C24.0107 9.66362 24.597 10.6801 24.9772 11.8932C25.2772 11.846 25.5647 11.8008 25.9294 11.743C25.4869 12.5207 25.083 13.2306 24.6623 13.9694V13.9688Z" fill="#EEEEEE"/>
</g>
<defs>
<clipPath id="clip0_541_1573">
<rect width="21.8592" height="16" fill="white" transform="translate(4.07031 4.00391)"/>
</clipPath>
</defs>
</svg>
