<svg width="48" height="48" viewBox="0 0 48 48" fill="none" xmlns="http://www.w3.org/2000/svg">
<path d="M24 44C21.9012 44 19.8556 43.3396 18.1529 42.1124C16.4502 40.8852 15.1769 39.1534 14.5132 37.1623C13.8495 35.1712 13.8291 33.0217 14.4549 31.0183C15.0807 29.015 16.3209 27.2593 18 26V10C18 8.4087 18.6321 6.88258 19.7574 5.75736C20.8826 4.63214 22.4087 4 24 4C25.5913 4 27.1174 4.63214 28.2426 5.75736C29.3679 6.88258 30 8.4087 30 10V26C31.6791 27.2593 32.9193 29.015 33.5451 31.0183C34.1709 33.0217 34.1505 35.1712 33.4868 37.1623C32.8231 39.1534 31.5498 40.8852 29.8471 42.1124C28.1444 43.3396 26.0988 44 24 44ZM24 8C23.4696 8 22.9609 8.21071 22.5858 8.58579C22.2107 8.96086 22 9.46957 22 10V27.08C22.0014 27.4324 21.9096 27.7789 21.734 28.0845C21.5584 28.3901 21.3052 28.6438 21 28.82C20.0903 29.3452 19.3343 30.1001 18.8079 31.0092C18.2814 31.9182 18.0028 32.9495 18 34C18 35.5913 18.6321 37.1174 19.7574 38.2426C20.8826 39.3679 22.4087 40 24 40C25.5913 40 27.1174 39.3679 28.2426 38.2426C29.3679 37.1174 30 35.5913 30 34C29.9972 32.9495 29.7186 31.9182 29.1921 31.0092C28.6657 30.1001 27.9097 29.3452 27 28.82C26.6948 28.6438 26.4416 28.3901 26.266 28.0845C26.0903 27.7789 25.9986 27.4324 26 27.08V10C26.0042 9.74235 25.9548 9.48663 25.855 9.24908C25.7551 9.01152 25.607 8.7973 25.42 8.62C25.2364 8.4274 25.0163 8.27336 24.7725 8.1669C24.5286 8.06044 24.266 8.0037 24 8Z" fill="#00CCB8"/>
</svg>
