<svg width="33" height="32" viewBox="0 0 33 32" fill="none" xmlns="http://www.w3.org/2000/svg">
<path d="M26.0634 22.0044L18.0634 8.00437C17.889 7.69658 17.636 7.44056 17.3303 7.26244C17.0247 7.08432 16.6772 6.99048 16.3234 6.99048C15.9696 6.99048 15.6222 7.08432 15.3165 7.26244C15.0108 7.44056 14.7579 7.69658 14.5834 8.00437L6.58343 22.0044C6.40711 22.3097 6.31465 22.6563 6.31543 23.0089C6.31622 23.3615 6.4102 23.7076 6.58787 24.0122C6.76554 24.3168 7.02057 24.569 7.32712 24.7432C7.63367 24.9174 7.98083 25.0075 8.33343 25.0044H24.3334C24.6843 25.004 25.029 24.9113 25.3327 24.7357C25.6365 24.56 25.8886 24.3075 26.0639 24.0035C26.2392 23.6995 26.3315 23.3548 26.3314 23.0039C26.3313 22.653 26.2389 22.3083 26.0634 22.0044Z" stroke="#EEEEEE" stroke-width="2" stroke-linecap="round" stroke-linejoin="round"/>
<path d="M16.333 13.0044V17.0044" stroke="#EEEEEE" stroke-width="2" stroke-linecap="round" stroke-linejoin="round"/>
<path d="M16.333 21.0044H16.343" stroke="#EEEEEE" stroke-width="2" stroke-linecap="round" stroke-linejoin="round"/>
</svg>
