<svg width="32" height="32" viewBox="0 0 32 32" fill="none" xmlns="http://www.w3.org/2000/svg">
<path d="M25.7299 22.0002L17.7299 8.00022C17.5555 7.69243 17.3025 7.43641 16.9969 7.25829C16.6912 7.08017 16.3437 6.98633 15.9899 6.98633C15.6361 6.98633 15.2887 7.08017 14.983 7.25829C14.6773 7.43641 14.4244 7.69243 14.2499 8.00022L6.24993 22.0002C6.07361 22.3056 5.98116 22.6521 5.98194 23.0047C5.98272 23.3573 6.07671 23.7035 6.25438 24.008C6.43204 24.3126 6.68708 24.5648 6.99362 24.7391C7.30017 24.9133 7.64734 25.0034 7.99993 25.0002H23.9999C24.3508 24.9999 24.6955 24.9072 24.9992 24.7315C25.303 24.5558 25.5551 24.3033 25.7304 23.9993C25.9057 23.6954 25.998 23.3506 25.9979 22.9997C25.9978 22.6488 25.9054 22.3041 25.7299 22.0002Z" stroke="#F59E0B" stroke-width="2" stroke-linecap="round" stroke-linejoin="round"/>
<path d="M16 13V17" stroke="#F59E0B" stroke-width="2" stroke-linecap="round" stroke-linejoin="round"/>
<path d="M16 21H16.01" stroke="#F59E0B" stroke-width="2" stroke-linecap="round" stroke-linejoin="round"/>
</svg>
