<svg width="32" height="32" viewBox="0 0 32 32" fill="none" xmlns="http://www.w3.org/2000/svg">
<path d="M17.5 11C17.7761 11 18 10.7761 18 10.5C18 10.2239 17.7761 10 17.5 10C17.2239 10 17 10.2239 17 10.5C17 10.7761 17.2239 11 17.5 11Z" fill="#EEEEEE" stroke="#EEEEEE" stroke-width="2" stroke-linecap="round" stroke-linejoin="round"/>
<path d="M21.5 15C21.7761 15 22 14.7761 22 14.5C22 14.2239 21.7761 14 21.5 14C21.2239 14 21 14.2239 21 14.5C21 14.7761 21.2239 15 21.5 15Z" fill="#EEEEEE" stroke="#EEEEEE" stroke-width="2" stroke-linecap="round" stroke-linejoin="round"/>
<path d="M12.5 12C12.7761 12 13 11.7761 13 11.5C13 11.2239 12.7761 11 12.5 11C12.2239 11 12 11.2239 12 11.5C12 11.7761 12.2239 12 12.5 12Z" fill="#EEEEEE" stroke="#EEEEEE" stroke-width="2" stroke-linecap="round" stroke-linejoin="round"/>
<path d="M10.5 17C10.7761 17 11 16.7761 11 16.5C11 16.2239 10.7761 16 10.5 16C10.2239 16 10 16.2239 10 16.5C10 16.7761 10.2239 17 10.5 17Z" fill="#EEEEEE" stroke="#EEEEEE" stroke-width="2" stroke-linecap="round" stroke-linejoin="round"/>
<path d="M16 6C10.5 6 6 10.5 6 16C6 21.5 10.5 26 16 26C16.926 26 17.648 25.254 17.648 24.312C17.648 23.875 17.468 23.477 17.211 23.187C16.921 22.898 16.773 22.535 16.773 22.062C16.7692 21.8419 16.8098 21.6233 16.8922 21.4192C16.9747 21.2151 17.0975 21.0298 17.2531 20.8741C17.4088 20.7185 17.5941 20.5957 17.7982 20.5132C18.0023 20.4308 18.2209 20.3902 18.441 20.394H20.437C23.488 20.394 25.992 17.891 25.992 14.84C25.965 10.012 21.461 6 16 6Z" stroke="#EEEEEE" stroke-width="2" stroke-linecap="round" stroke-linejoin="round"/>
</svg>
