<svg width="33" height="32" viewBox="0 0 33 32" fill="none" xmlns="http://www.w3.org/2000/svg">
<path d="M17.6674 8.80444C13.6674 8.80444 13.6674 23.2044 17.6674 23.2044C21.6674 23.2044 26.6674 20.5044 26.6674 16.0044C26.6674 11.5044 21.6674 8.80444 17.6674 8.80444ZM17.7674 21.2044C17.3674 20.8044 16.6674 19.0044 16.6674 16.0044C16.6674 13.0044 17.3674 11.2044 17.7674 10.8044C20.6674 10.9044 24.6674 12.7044 24.6674 16.0044C24.6674 19.3044 20.5674 21.1044 17.7674 21.2044ZM12.6674 14.5044C12.6674 15.0044 12.5674 15.5044 12.5674 16.0044V16.6044L7.06738 18.0044L6.56738 16.1044L12.6674 14.5044ZM6.66738 11.0044L14.0674 9.10444C13.8674 9.40444 13.6674 9.80444 13.5674 10.3044C13.4674 10.6044 13.3674 11.0044 13.2674 11.4044L7.16738 12.9044L6.66738 11.0044ZM12.8674 19.5044C12.9674 20.2044 13.1674 20.9044 13.3674 21.4044L7.06738 23.0044L6.56738 21.1044L12.8674 19.5044Z" fill="#EEEEEE"/>
</svg>
