<svg width="38" height="24" viewBox="0 0 38 24" fill="none" xmlns="http://www.w3.org/2000/svg">
<g clip-path="url(#clip0_330_283)">
<path d="M14.2415 10.7996C19.7483 10.7996 25.2543 10.8021 30.7611 10.7971C32.0607 10.7052 33.6371 11.4268 33.8746 12.7765C34.2788 14.9581 33.7969 17.396 31.1268 17.7067C30.6398 17.8638 29.5589 17.4988 29.3684 18.0266C28.4635 20.5656 24.2606 20.6483 23.278 18.0993C23.1857 17.888 23.096 17.7376 22.7952 17.7393C19.7919 17.7552 16.7877 17.7552 13.7844 17.7485C12.7616 17.6825 13.082 19.9944 10.0411 20.0036C8.62785 19.9509 7.50342 19.1742 7.00614 17.9381C6.94633 17.7903 6.77203 17.6374 6.61566 17.584C3.19964 16.7254 2.99287 11.6791 6.82244 11.3433C8.11263 11.2473 9.40368 11.1471 10.6956 11.0886C12.695 11.0552 13.5041 8.78175 15.1908 8.1161C15.5616 8.06348 15.8239 8.25391 15.9546 8.58715C16.287 9.34468 14.6414 10.1097 14.18 10.6568C14.2013 10.7044 14.2218 10.752 14.2432 10.7996H14.2415ZM6.9882 16.1934C7.97165 13.514 12.1951 13.4004 13.2068 16.1107C13.3178 16.3771 13.4853 16.3679 13.7015 16.3679C16.5621 16.3654 19.4228 16.3545 22.2826 16.3754C22.8166 16.3796 23.1284 16.3028 23.4104 15.7574C24.5451 13.4288 28.4174 13.6393 29.3581 16.0505C29.5786 16.5934 30.4791 16.3211 30.9525 16.3153C32.3187 16.1307 32.6203 14.842 32.5024 13.671C32.4922 12.7632 31.9658 12.252 31.0473 12.2587C26.2804 12.2955 21.5136 12.3464 16.7467 12.3664C13.5161 12.3798 10.288 12.4425 7.06766 12.7181C6.39693 12.7757 5.86974 13.0572 5.58949 13.6819C5.1768 14.604 5.81335 15.7657 6.9882 16.1942V16.1934ZM24.5622 17.0636C24.61 19.0673 27.9611 19.0648 28.0397 17.0995C28.0064 15.0307 24.6254 15.0241 24.5622 17.0636ZM11.861 17.0419C11.8012 15.0374 8.4245 15.0383 8.39972 17.0703C8.46722 19.0974 11.8439 19.0598 11.861 17.0419Z" fill="#EEEEEE"/>
<path d="M31.0869 10.4128C29.9377 10.4128 28.7876 10.4487 27.641 10.3928C25.0426 9.51246 22.6588 8.08427 19.7768 8.27302C18.8104 8.24295 17.8423 8.26467 16.8751 8.26634C16.5829 8.26634 16.3069 8.22458 16.2847 7.87463C16.2616 7.51215 16.5086 7.42529 16.8367 7.40274C18.4251 7.29416 20.01 7.12963 21.5993 7.06365C25.1076 6.74627 28.4587 8.16278 31.1262 10.3243C31.1125 10.3535 31.0997 10.3836 31.086 10.4128H31.0869Z" fill="#EEEEEE"/>
<path d="M29.4403 8.4493C29.6975 8.2547 29.9555 8.05926 30.2631 7.82541C29.6821 7.34516 29.125 7.08792 28.4645 7.06453C28.0399 7.0495 27.7109 6.71208 27.7835 6.30617C28.4722 5.57453 30.3101 6.45233 30.962 7.00022C31.1671 6.8098 31.3679 6.62355 31.643 6.36797C31.7208 7.19566 31.7917 7.94317 31.8694 8.77086C31.0449 8.70738 30.2768 8.64808 29.5086 8.58878C29.4856 8.54201 29.4625 8.49607 29.4403 8.4493Z" fill="#EEEEEE"/>
<path d="M24.508 5.0341C24.2901 5.32976 24.126 5.55192 23.95 5.78996C23.1913 5.38822 22.4385 5.49012 21.6362 5.72899C21.7909 6.06975 21.9327 6.37961 22.1027 6.75545C21.285 6.54498 20.5246 6.34871 19.7129 6.13991C20.0598 5.40827 20.3905 4.71004 20.7245 4.00513C21.221 4.58559 20.9971 4.79189 21.8755 4.58392C22.8017 4.38849 23.7168 4.46867 24.5071 5.03493L24.508 5.0341Z" fill="#EEEEEE"/>
</g>
<defs>
<clipPath id="clip0_330_283">
<rect width="30" height="16" fill="white" transform="translate(4 4.00439)"/>
</clipPath>
</defs>
</svg>
