<svg width="33" height="22" viewBox="0 0 33 22" fill="none" xmlns="http://www.w3.org/2000/svg">
<g clip-path="url(#clip0_330_552)">
<path d="M28.333 5.46078C28.1464 5.90902 27.8094 6.05076 27.3447 6.04183C26.2838 6.02012 25.2217 6.03927 24.1608 6.03289C23.5971 6.03033 23.2314 5.52719 23.4168 5.01383C23.5295 4.69968 23.7637 4.51324 24.0894 4.51069C25.2605 4.50047 26.4304 4.50302 27.6015 4.50813C27.9785 4.50941 28.1827 4.76353 28.333 5.07768V5.45951V5.46078Z" fill="#EEEEEE"/>
<path d="M16.3575 4.50439C18.0447 4.50439 19.7306 4.50439 21.4178 4.50439C22.0679 4.50439 22.3509 4.79938 22.3296 5.45194C22.237 8.29713 20.2579 10.689 17.5174 11.2687C14.2946 11.9507 11.0618 9.74781 10.4443 6.44418C10.3804 6.10194 10.3528 5.74948 10.3365 5.40086C10.3102 4.82237 10.6146 4.50695 11.1795 4.50567C12.9055 4.50439 14.6315 4.50567 16.3575 4.50567V4.50439ZM11.9172 6.04575C12.1715 7.95872 13.9288 9.87679 16.37 9.85508C18.8275 9.83337 20.5185 7.8706 20.7439 6.04575H11.9172Z" fill="#EEEEEE"/>
<path d="M6.81558 4.50431C7.36921 4.50431 7.92408 4.50175 8.47771 4.50431C8.95618 4.50686 9.29311 4.82229 9.29687 5.26413C9.29938 5.7047 8.96244 6.03162 8.48773 6.03289C7.37171 6.03545 6.25569 6.03545 5.14093 6.03289C4.66371 6.03289 4.32928 5.70726 4.33304 5.26413C4.3368 4.82995 4.66747 4.51069 5.12966 4.50686C5.69205 4.50175 6.25319 4.50686 6.81558 4.50686V4.50431Z" fill="#EEEEEE"/>
<path d="M17.0822 14.9874C17.0822 15.5518 17.0847 16.1175 17.0822 16.682C17.0797 17.166 16.7615 17.5069 16.3257 17.5044C15.8998 17.5006 15.5841 17.1634 15.5829 16.6935C15.5791 15.548 15.5791 14.4025 15.5829 13.257C15.5841 12.7871 15.901 12.4487 16.3269 12.4449C16.7603 12.441 17.0797 12.7858 17.0822 13.2698C17.0859 13.8432 17.0822 14.4153 17.0822 14.9887V14.9874Z" fill="#EEEEEE"/>
<path d="M25.0474 13.2724C25.0186 13.6963 24.8833 13.9428 24.5902 14.0756C24.2984 14.2084 24.019 14.1637 23.7861 13.9441C23.5055 13.6797 23.2412 13.3975 22.9707 13.1217C22.4183 12.5598 21.8647 12.0005 21.3173 11.4335C21.0568 11.164 21.0179 10.7924 21.1971 10.4923C21.3687 10.2024 21.7006 10.0543 22.0237 10.1526C22.159 10.1935 22.2968 10.2791 22.397 10.3812C23.1974 11.1845 23.994 11.9915 24.7781 12.8114C24.9159 12.9557 24.9873 13.1677 25.0461 13.2724H25.0474Z" fill="#EEEEEE"/>
<path d="M11.5785 10.9915C11.5284 11.086 11.4695 11.2955 11.3368 11.4334C10.5427 12.2647 9.73477 13.0833 8.92562 13.9006C8.60372 14.2249 8.15781 14.2275 7.85595 13.9274C7.54782 13.6222 7.54407 13.1535 7.86847 12.8202C8.66885 11.9953 9.47674 11.1754 10.2846 10.3581C10.5239 10.1155 10.8132 10.0555 11.1238 10.1896C11.4169 10.3173 11.5597 10.5599 11.5785 10.9915Z" fill="#EEEEEE"/>
</g>
<defs>
<clipPath id="clip0_330_552">
<rect width="24" height="13" fill="white" transform="translate(4.33301 4.50439)"/>
</clipPath>
</defs>
</svg>
