<svg width="33" height="32" viewBox="0 0 33 32" fill="none" xmlns="http://www.w3.org/2000/svg">
<g clip-path="url(#clip0_330_628)">
<path fill-rule="evenodd" clip-rule="evenodd" d="M12.6066 17.0643C12.3257 16.783 12.168 16.4018 12.168 16.0043C12.168 15.6068 12.3257 15.2255 12.6066 14.9443L18.2626 9.28629C18.544 9.00503 18.9256 8.84707 19.3235 8.84717C19.5205 8.84721 19.7156 8.88606 19.8975 8.96149C20.0795 9.03692 20.2449 9.14746 20.3841 9.28679C20.5234 9.42613 20.6339 9.59153 20.7092 9.77355C20.7846 9.95557 20.8233 10.1506 20.8233 10.3476C20.8232 10.5446 20.7844 10.7397 20.709 10.9217C20.6335 11.1037 20.523 11.269 20.3836 11.4083L15.7886 16.0043L20.3846 20.6003C20.528 20.7386 20.6423 20.9041 20.721 21.087C20.7997 21.27 20.8412 21.4668 20.843 21.666C20.8448 21.8651 20.807 22.0627 20.7316 22.2471C20.6563 22.4314 20.545 22.599 20.4042 22.7399C20.2635 22.8808 20.096 22.9922 19.9117 23.0677C19.7274 23.1433 19.5299 23.1813 19.3308 23.1797C19.1316 23.178 18.9347 23.1367 18.7517 23.0582C18.5687 22.9797 18.4031 22.8655 18.2646 22.7223L12.6046 17.0643H12.6066Z" fill="#EEEEEE"/>
</g>
<defs>
<clipPath id="clip0_330_628">
<rect width="24" height="24" fill="white" transform="translate(4.66699 4.00439)"/>
</clipPath>
</defs>
</svg>
