<svg width="32" height="32" viewBox="0 0 32 32" fill="none" xmlns="http://www.w3.org/2000/svg">
<g clip-path="url(#clip0_442_6299)">
<path fill-rule="evenodd" clip-rule="evenodd" d="M11.9401 17.0599C11.6592 16.7787 11.5015 16.3974 11.5015 15.9999C11.5015 15.6024 11.6592 15.2212 11.9401 14.9399L17.5961 9.2819C17.8775 9.00064 18.2591 8.84268 18.657 8.84277C18.854 8.84282 19.0491 8.88167 19.231 8.9571C19.413 9.03253 19.5784 9.14307 19.7176 9.2824C19.8569 9.42173 19.9674 9.58713 20.0427 9.76915C20.1181 9.95117 20.1568 10.1463 20.1568 10.3433C20.1567 10.5403 20.1179 10.7353 20.0424 10.9173C19.967 11.0993 19.8565 11.2646 19.7171 11.4039L15.1221 15.9999L19.7181 20.5959C19.8615 20.7342 19.9758 20.8997 20.0545 21.0826C20.1332 21.2656 20.1747 21.4624 20.1765 21.6616C20.1783 21.8607 20.1405 22.0583 20.0651 22.2427C19.9898 22.427 19.8785 22.5946 19.7377 22.7355C19.597 22.8764 19.4295 22.9878 19.2452 23.0633C19.0609 23.1389 18.8634 23.1769 18.6643 23.1753C18.4651 23.1736 18.2682 23.1323 18.0852 23.0538C17.9022 22.9753 17.7366 22.8611 17.5981 22.7179L11.9381 17.0599H11.9401Z" fill="#F59E0B"/>
</g>
<defs>
<clipPath id="clip0_442_6299">
<rect width="24" height="24" fill="white" transform="translate(4 4)"/>
</clipPath>
</defs>
</svg>
