<svg width="32" height="32" viewBox="0 0 32 32" fill="none" xmlns="http://www.w3.org/2000/svg">
<g clip-path="url(#clip0_754_5499)">
<path d="M15.8124 28H9.95288C9.29472 27.2894 8.62779 26.5869 7.98027 25.8669C6.83867 24.5969 6.61636 22.7275 7.40102 21.2119C7.84564 20.3525 8.53072 19.7494 9.37863 19.315C9.51703 19.2437 9.57902 19.1587 9.57777 18.99C9.56838 17.865 9.57339 16.74 9.57276 15.615C9.57276 15.5469 9.56587 15.4788 9.56086 15.39H4V4H28V15.4H13.8073C13.8073 16.3294 13.8035 17.2344 13.8148 18.1394C13.8154 18.2044 13.9094 18.2894 13.9801 18.3287C14.6759 18.715 15.3841 19.0794 16.073 19.4769C17.6817 20.405 18.4539 22.2456 18.0205 24.0531C17.8702 24.6806 17.5389 25.2156 17.2033 25.7525C16.7355 26.4994 16.2759 27.2506 15.8124 28ZM12.015 10.7787C12.015 10.7206 12.015 10.6438 12.015 10.5675C12.015 9.91937 12.0056 9.27063 12.0188 8.6225C12.0401 7.59375 12.9068 6.73938 13.9325 6.71875C15.0052 6.69688 15.912 7.49625 15.9565 8.5475C15.989 9.32688 15.9853 10.11 15.9584 10.89C15.9289 11.7506 15.3221 12.4669 14.4861 12.6731C14.2701 12.7263 14.0434 12.735 13.8242 12.7644V13.9644H26.5822V5.42H5.42528V13.9631H9.56462V9.29625C9.29597 9.70375 9.05738 10.0662 8.80501 10.4506C8.55014 10.0644 8.30967 9.7 8.06982 9.33625L8.01847 9.35875V12.7006H6.63515V6.59875C6.99836 6.59875 7.34841 6.61125 7.69785 6.59375C7.89573 6.58375 8.00908 6.6525 8.11053 6.81938C8.32595 7.175 8.56329 7.51688 8.80564 7.88625C9.06552 7.48938 9.30223 7.12187 9.54708 6.76062C9.59092 6.69562 9.66669 6.61 9.72994 6.6075C10.142 6.59375 10.5541 6.60063 10.9861 6.60063V10.8781C11.3287 10.845 11.6524 10.8144 12.0163 10.7794L12.015 10.7787ZM9.5784 20.8194C9.44751 20.9219 9.36611 20.9788 9.29158 21.0444C8.11366 22.0737 8.02223 23.8244 9.08931 25.0012C9.53519 25.4931 9.98857 25.9775 10.4507 26.4544C10.5252 26.5312 10.6605 26.5875 10.7682 26.5881C12.119 26.5969 13.4704 26.5919 14.8211 26.5969C14.9627 26.5969 15.0453 26.5562 15.1205 26.4331C15.495 25.8206 15.8801 25.215 16.2596 24.6056C17.1851 23.12 16.7349 21.425 15.1969 20.5938C14.3458 20.1338 13.5011 19.6637 12.645 19.2137C12.4496 19.1112 12.3951 18.99 12.3964 18.7794C12.4045 16.8975 12.4014 15.015 12.4008 13.1331C12.4008 13.055 12.4027 12.9769 12.3989 12.8988C12.3814 12.54 12.129 12.2606 11.7789 12.2113C11.4546 12.1656 11.1177 12.3744 11.0181 12.7031C10.983 12.8194 10.9818 12.9488 10.9818 13.0725C10.9799 15.97 10.9805 18.8669 10.9805 21.7644V22.0369H9.57902V20.8181L9.5784 20.8194ZM13.4209 9.71625C13.4209 10.0519 13.4171 10.3875 13.4222 10.7231C13.4272 11.0856 13.6607 11.3313 13.9926 11.3325C14.3139 11.3337 14.5569 11.0994 14.5619 10.7481C14.5713 10.0694 14.5713 9.39062 14.5619 8.71187C14.5569 8.35875 14.317 8.12563 13.9951 8.125C13.667 8.125 13.4272 8.37563 13.4222 8.73313C13.4178 9.06063 13.4209 9.38875 13.4215 9.71625H13.4209Z" fill="#393E46"/>
<path d="M17.0221 12.7297V6.7303C17.0991 6.72592 17.1674 6.71717 17.2357 6.71842C17.9452 6.7303 18.6616 6.68217 19.3611 6.77092C20.2904 6.88905 20.9529 7.71842 20.9661 8.65405C20.9761 9.37217 20.9773 10.0903 20.9661 10.8078C20.951 11.8122 20.172 12.6647 19.1744 12.7215C18.4681 12.7622 17.7573 12.7297 17.0215 12.7297H17.0221ZM18.4292 11.3247C18.6616 11.3247 18.872 11.3422 19.0786 11.3203C19.3529 11.2915 19.5533 11.0778 19.5571 10.7997C19.5677 10.0903 19.5665 9.3803 19.5583 8.6703C19.5552 8.39655 19.3517 8.1653 19.0886 8.13655C18.8751 8.11342 18.6572 8.13155 18.4292 8.13155V11.324V11.3247Z" fill="#393E46"/>
<path d="M23.4645 11.3387H25.2767V12.7244H22.0542V6.73438H25.2818V8.1125H23.4676V9.01125H24.4533V10.4256H23.4645V11.3387Z" fill="#393E46"/>
</g>
<defs>
<clipPath id="clip0_754_5499">
<rect width="24" height="24" fill="white" transform="translate(4 4)"/>
</clipPath>
</defs>
</svg>
