<svg width="44" height="32" viewBox="0 0 44 32" fill="none" xmlns="http://www.w3.org/2000/svg">
<path d="M11.5505 10.0826C13.0005 9.97363 13.0005 9.97363 13.909 9.34031C14.4138 8.86351 14.9083 8.42448 15.3712 7.9538C17.185 6.11091 19.382 5.10829 21.9602 5.01947C23.6258 4.96229 25.2996 4.948 26.9622 5.03887C29.1275 5.1573 30.9331 6.12112 32.4332 7.67507C32.7755 8.02936 33.124 8.3816 33.502 8.69607C34.2766 9.34031 35.1881 9.61598 36.1916 9.64253C37.9931 9.69051 39.5054 10.685 39.7936 12.2379C40.0481 13.6101 40.2105 15.0569 39.3798 16.3454C38.6287 17.5103 37.522 18.1127 36.1476 18.2005C35.5856 18.2362 35.0205 18.2066 34.4697 18.2066C33.8587 19.6493 32.6324 20.706 31.2274 20.8714C28.9497 21.1389 27.189 18.9428 27.0674 18.6038C26.9622 18.3097 26.8181 18.2209 26.5146 18.2219C22.889 18.2321 19.2625 18.2321 15.6369 18.2219C15.3181 18.2219 15.1669 18.3189 15.034 18.614C13.7731 21.4146 9.90737 21.8107 8.10891 19.3328C8.08847 19.3052 8.06701 19.2797 8.04759 19.2511C7.75841 18.8243 6.69568 17.8717 6.27467 17.6298C5.09341 16.9528 4.28512 15.9809 4.05316 14.6158C3.68018 12.4227 5.33252 10.4746 7.60309 10.3644C8.82523 10.3052 10.0463 10.2051 11.2675 10.1224C11.3625 10.1163 11.4575 10.0969 11.5526 10.0836L11.5505 10.0826ZM34.4851 16.4791C35.0757 16.4791 35.6766 16.5444 36.258 16.4638C37.1511 16.3402 37.8071 15.8216 38.0401 14.9323C38.1617 14.4657 38.1362 13.9572 38.1474 13.4672C38.1781 12.1338 37.4965 11.4109 36.1507 11.3527C34.8826 11.2976 33.6839 11.0188 32.6621 10.2306C32.1256 9.81712 31.6055 9.36992 31.1395 8.87984C29.7069 7.37592 27.9697 6.64897 25.8953 6.68369C24.7039 6.70411 23.5113 6.67654 22.3188 6.69492C21.8784 6.70206 21.4349 6.75209 21.0006 6.82663C18.9978 7.16968 17.3966 8.21211 16.1203 9.75279C15.0064 11.0974 13.6259 11.7733 11.8673 11.8009C10.4571 11.8234 9.04288 11.9357 7.64294 12.1092C7.16165 12.1695 6.60984 12.4349 6.27876 12.7841C5.23953 13.8817 6.05395 15.9247 7.62352 16.279C7.82176 15.9451 7.98833 15.5857 8.22438 15.2805C10.028 12.9516 13.8558 13.4253 15.031 16.1238C15.1495 16.3954 15.2721 16.5077 15.5797 16.5067C19.2236 16.4954 22.8676 16.4985 26.5115 16.5026C26.7639 16.5026 26.9387 16.4862 27.0562 16.1912C27.6509 14.6913 29.1796 13.7265 30.8003 13.7898C32.612 13.8613 33.969 14.8506 34.4851 16.4801V16.4791ZM30.7328 19.248C31.7138 19.2725 32.8879 18.5252 32.8113 17.3204C32.75 16.3464 31.8037 15.4755 30.7175 15.4857C29.5761 15.4959 28.6431 16.3494 28.6452 17.3806C28.6472 18.4139 29.5802 19.248 30.7318 19.2491L30.7328 19.248ZM11.3952 19.248C12.5468 19.2419 13.4614 18.4057 13.4553 17.3643C13.4491 16.3351 12.5264 15.5041 11.3717 15.4887C10.2671 15.4744 9.30346 16.3627 9.31265 17.3847C9.32287 18.4251 10.2487 19.2531 11.3952 19.247V19.248Z" fill="#EEEEEE"/>
<path d="M17.2445 22.8465C17.1944 22.941 17.1356 23.1505 17.0028 23.2884C16.2087 24.1197 15.4008 24.9383 14.5916 25.7556C14.2697 26.0799 13.8238 26.0825 13.522 25.7824C13.2138 25.4772 13.2101 25.0085 13.5345 24.6752C14.3349 23.8503 15.1428 23.0304 15.9506 22.2131C16.1899 21.9705 16.4792 21.9105 16.7899 22.0446C17.0829 22.1723 17.2257 22.4149 17.2445 22.8465Z" fill="#00CCB8"/>
<path d="M22.7467 24.5172C22.7467 25.0816 22.7492 25.6473 22.7467 26.2118C22.7442 26.6958 22.4261 27.0367 21.9902 27.0342C21.5643 27.0303 21.2487 26.6932 21.2474 26.2233C21.2437 25.0778 21.2437 23.9323 21.2474 22.7868C21.2487 22.3169 21.5656 21.9785 21.9915 21.9746C22.4248 21.9708 22.7442 22.3156 22.7467 22.7996C22.7505 23.373 22.7467 23.9451 22.7467 24.5185V24.5172Z" fill="#00CCB8"/>
<path d="M30.709 25.1247C30.6802 25.5486 30.5449 25.7951 30.2518 25.9279C29.96 26.0607 29.6807 26.016 29.4477 25.7964C29.1671 25.532 28.9028 25.2498 28.6323 24.974C28.0799 24.4121 27.5263 23.8528 26.9789 23.2858C26.7184 23.0163 26.6796 22.6447 26.8587 22.3446C27.0303 22.0547 27.3622 21.9066 27.6854 22.0049C27.8206 22.0458 27.9584 22.1313 28.0586 22.2335C28.859 23.0367 29.6556 23.8438 30.4397 24.6637C30.5775 24.808 30.6489 25.02 30.7077 25.1247H30.709Z" fill="#00CCB8"/>
</svg>
