<svg width="32" height="32" viewBox="0 0 32 32" fill="none" xmlns="http://www.w3.org/2000/svg">
<g clip-path="url(#clip0_442_6314)">
<path fill-rule="evenodd" clip-rule="evenodd" d="M20.0599 14.9438C20.3408 15.2251 20.4986 15.6063 20.4986 16.0038C20.4986 16.4013 20.3408 16.7826 20.0599 17.0638L14.4039 22.7218C14.1225 23.0031 13.7409 23.161 13.343 23.1609C12.9452 23.1609 12.5637 23.0027 12.2824 22.7213C12.0011 22.4399 11.8432 22.0583 11.8433 21.6605C11.8434 21.2626 12.0015 20.8811 12.2829 20.5998L16.8789 16.0038L12.2829 11.4078C12.0095 11.125 11.8581 10.7462 11.8614 10.3529C11.8646 9.95961 12.0222 9.58332 12.3002 9.30507C12.5781 9.02683 12.9543 8.8689 13.3476 8.8653C13.7409 8.8617 14.1199 9.01271 14.4029 9.28582L20.0609 14.9428L20.0599 14.9438Z" fill="#F59E0B"/>
</g>
<defs>
<clipPath id="clip0_442_6314">
<rect width="24" height="24" fill="white" transform="translate(4 4.00391)"/>
</clipPath>
</defs>
</svg>
