<svg width="32" height="32" viewBox="0 0 32 32" fill="none" xmlns="http://www.w3.org/2000/svg">
<g clip-path="url(#clip0_330_433)">
<path fill-rule="evenodd" clip-rule="evenodd" d="M20.0604 14.9443C20.3413 15.2256 20.4991 15.6068 20.4991 16.0043C20.4991 16.4018 20.3413 16.7831 20.0604 17.0643L14.4044 22.7223C14.123 23.0036 13.7414 23.1615 13.3435 23.1614C12.9457 23.1613 12.5641 23.0032 12.2829 22.7218C12.0016 22.4404 11.8437 22.0588 11.8438 21.661C11.8438 21.2631 12.002 20.8816 12.2834 20.6003L16.8794 16.0043L12.2834 11.4083C12.01 11.1255 11.8586 10.7467 11.8619 10.3534C11.8651 9.9601 12.0227 9.58381 12.3007 9.30556C12.5786 9.02732 12.9548 8.86939 13.3481 8.86579C13.7414 8.86218 14.1203 9.0132 14.4034 9.28631L20.0614 14.9433L20.0604 14.9443Z" fill="#EEEEEE"/>
</g>
<defs>
<clipPath id="clip0_330_433">
<rect width="24" height="24" fill="white" transform="translate(4 4.00439)"/>
</clipPath>
</defs>
</svg>
