<svg width="38" height="32" viewBox="0 0 38 32" fill="none" xmlns="http://www.w3.org/2000/svg">
<g clip-path="url(#clip0_330_573)">
<path d="M4.80566 9.82821V4.0835H8.65635V5.08487H6.01064V6.45517H8.45334V7.45654H6.01064V8.82684H8.6629V9.82821H4.80566Z" fill="#EEEEEE"/>
<path d="M14.3925 4.0835V9.82821H13.3513L10.8693 6.21141H10.83V9.82821H9.625V4.0835H10.6859L13.1482 7.7003H13.2006V4.0835H14.4056H14.3925Z" fill="#EEEEEE"/>
<path d="M19.1735 5.94126C19.1342 5.80291 19.0818 5.68432 19.0098 5.57892C18.9377 5.47351 18.8526 5.38128 18.7543 5.30881C18.6561 5.23634 18.5382 5.17705 18.4073 5.13752C18.2763 5.09799 18.1322 5.07823 17.9816 5.07823C17.6869 5.07823 17.4315 5.1507 17.2154 5.29563C16.9927 5.44057 16.8225 5.65138 16.698 5.92808C16.5736 6.20478 16.5147 6.54735 16.5147 6.94263C16.5147 7.33791 16.5736 7.68048 16.698 7.96377C16.8225 8.24705 16.9927 8.45786 17.2088 8.6028C17.4315 8.74773 17.6934 8.8202 17.9947 8.8202C18.2697 8.8202 18.4989 8.77409 18.6954 8.67527C18.8919 8.57645 19.0359 8.4381 19.1407 8.26022C19.2455 8.08235 19.2979 7.87153 19.2979 7.62119L19.5468 7.65413H18.0733V6.7384H20.4636V7.46308C20.4636 7.97035 20.3588 8.39857 20.1427 8.76091C19.9331 9.12325 19.6384 9.39994 19.2652 9.59758C18.8919 9.79522 18.4662 9.89404 17.9881 9.89404C17.4511 9.89404 16.9796 9.77546 16.5802 9.53829C16.1741 9.30112 15.8598 8.95855 15.6306 8.51715C15.4079 8.07576 15.29 7.55531 15.29 6.94922C15.29 6.48147 15.3555 6.06643 15.4931 5.70409C15.6306 5.34175 15.8139 5.02553 16.0628 4.77518C16.3051 4.51825 16.5867 4.3272 16.9141 4.19544C17.235 4.06368 17.5887 3.9978 17.9619 3.9978C18.2828 3.9978 18.5841 4.04392 18.8657 4.13615C19.1473 4.22838 19.3896 4.36673 19.6057 4.53802C19.8218 4.7093 19.9986 4.91353 20.1361 5.1507C20.2737 5.38787 20.3588 5.6448 20.3981 5.93467H19.1735V5.94126Z" fill="#EEEEEE"/>
<path d="M22.5653 4.0835V9.82821H21.3604V4.0835H22.5653Z" fill="#EEEEEE"/>
<path d="M28.3417 4.0835V9.82821H27.3005L24.8185 6.21141H24.7792V9.82821H23.5742V4.0835H24.6351L27.0975 7.7003H27.1499V4.0835H28.3548H28.3417Z" fill="#EEEEEE"/>
<path d="M29.3369 9.82821V4.0835H33.1876V5.08487H30.5484V6.45517H32.9911V7.45654H30.5484V8.82684H33.2007V9.82821H29.3435H29.3369Z" fill="#EEEEEE"/>
<path d="M11.6229 16.1064C11.4853 16.001 11.3413 15.9154 11.1775 15.8561C11.0204 15.7902 10.8632 15.7441 10.7126 15.7045L10.2476 15.586C10.1559 15.5596 10.0577 15.5333 9.95946 15.4937C9.86123 15.4542 9.763 15.4147 9.67786 15.3554C9.59273 15.2961 9.52069 15.2302 9.4683 15.1512C9.41591 15.0655 9.38972 14.9733 9.38972 14.8547C9.38972 14.7163 9.42901 14.5978 9.50759 14.4924C9.58618 14.387 9.69751 14.3013 9.84158 14.242C9.98566 14.1827 10.1559 14.1498 10.3458 14.1498C10.6209 14.1498 10.8435 14.2091 11.0269 14.3342C11.2037 14.4594 11.3085 14.6307 11.3347 14.8481H12.0289C12.0289 14.5912 11.9503 14.3606 11.8062 14.163C11.6621 13.9653 11.4657 13.8072 11.2234 13.6952C10.9811 13.5832 10.6929 13.5239 10.3655 13.5239C10.038 13.5239 9.75645 13.5832 9.50759 13.6952C9.25874 13.8072 9.04918 13.9719 8.90511 14.1761C8.75448 14.3804 8.68245 14.6241 8.68245 14.9008C8.68245 15.2368 8.79378 15.5003 9.01643 15.7045C9.23909 15.9088 9.54034 16.0603 9.92017 16.1657L10.4834 16.3172C10.6536 16.3633 10.8043 16.416 10.9418 16.4753C11.0793 16.5346 11.1841 16.6071 11.2627 16.6993C11.3413 16.7916 11.3805 16.9036 11.3805 17.0485C11.3805 17.2066 11.3347 17.3384 11.243 17.4569C11.1513 17.5755 11.0269 17.6612 10.8697 17.7271C10.7126 17.7929 10.5292 17.8259 10.3262 17.8259C10.1428 17.8259 9.97256 17.7995 9.81539 17.7402C9.65822 17.6875 9.53379 17.6019 9.43556 17.4833C9.33733 17.3647 9.27839 17.2264 9.26529 17.0485H8.54492C8.55802 17.3384 8.64315 17.5887 8.78723 17.7929C8.9313 18.0038 9.14086 18.1619 9.39626 18.2804C9.65822 18.3924 9.96601 18.4517 10.3196 18.4517C10.6733 18.4517 11.0073 18.3924 11.2692 18.2673C11.5312 18.1487 11.7342 17.9774 11.8717 17.7666C12.0092 17.5558 12.0813 17.3186 12.0813 17.0419C12.0813 16.8245 12.042 16.64 11.9568 16.4885C11.8717 16.337 11.7604 16.2052 11.6229 16.0998V16.1064Z" fill="#00CCB8"/>
<path d="M12.7031 14.2091H14.1897V18.3793H14.9035V14.2091H16.3901V13.5833H12.7031V14.2091Z" fill="#00CCB8"/>
<path d="M18.5576 13.5833L16.8418 18.3727H17.608L18.0468 17.1078H19.9066L20.3389 18.3727H21.0985L19.3827 13.5833H18.551H18.5576ZM18.2498 16.5017L18.9505 14.4595H18.9898L19.6905 16.5017H18.2498Z" fill="#00CCB8"/>
<path d="M24.3991 16.3766C24.6414 16.2514 24.8248 16.0801 24.9492 15.8561C25.0736 15.6321 25.1326 15.3752 25.1326 15.0853C25.1326 14.7954 25.0736 14.5319 24.9492 14.3079C24.8248 14.0839 24.648 13.9061 24.3991 13.7809C24.1568 13.6557 23.849 13.5898 23.4823 13.5898H21.7861V18.3793H22.5065V16.5676H23.4823C23.4823 16.5676 23.5085 16.5676 23.5281 16.5676L24.4973 18.3859H25.3159L24.255 16.4359C24.3009 16.4161 24.3598 16.4095 24.4056 16.3831L24.3991 16.3766ZM22.5065 14.2025H23.4102C23.646 14.2025 23.8425 14.2355 23.9865 14.3079C24.1306 14.3804 24.2419 14.4792 24.3074 14.611C24.3795 14.7427 24.4122 14.9009 24.4122 15.0787C24.4122 15.2566 24.3795 15.4147 24.3074 15.5399C24.2419 15.6651 24.1306 15.7639 23.9865 15.8298C23.8425 15.8956 23.6525 15.9286 23.4168 15.9286H22.5065V14.1893V14.2025Z" fill="#00CCB8"/>
<path d="M25.7744 13.5833V14.2091H27.261V18.3793H27.9748V14.2091H29.4614V13.5833H25.7744Z" fill="#00CCB8"/>
<path d="M13.5613 25.6591C13.4238 25.5537 13.2797 25.4681 13.116 25.4088C12.9588 25.3429 12.8017 25.2968 12.651 25.2573L12.1861 25.1387C12.0944 25.1123 11.9962 25.086 11.8979 25.0465C11.7997 25.0069 11.7015 24.9674 11.6163 24.9081C11.5312 24.8488 11.4592 24.7829 11.4068 24.7039C11.3544 24.6182 11.3282 24.526 11.3282 24.4074C11.3282 24.2691 11.3675 24.1505 11.4461 24.0451C11.5247 23.9397 11.636 23.854 11.7801 23.7947C11.9241 23.7355 12.0944 23.7025 12.2843 23.7025C12.5594 23.7025 12.782 23.7618 12.9654 23.887C13.1422 24.0122 13.247 24.1834 13.2732 24.4008H13.9674C13.9674 24.1439 13.8888 23.9133 13.7447 23.7157C13.6006 23.5181 13.4042 23.3599 13.1619 23.2479C12.9195 23.136 12.6314 23.0767 12.304 23.0767C11.9765 23.0767 11.6949 23.136 11.4461 23.2479C11.1972 23.3599 10.9877 23.5246 10.8436 23.7289C10.693 23.9331 10.6209 24.1769 10.6209 24.4535C10.6209 24.7895 10.7323 25.0531 10.9549 25.2573C11.1776 25.4615 11.4788 25.613 11.8586 25.7184L12.4218 25.87C12.5921 25.9161 12.7427 25.9688 12.8803 26.0281C13.0178 26.0874 13.1226 26.1598 13.2011 26.2521C13.2797 26.3443 13.319 26.4563 13.319 26.6012C13.319 26.7593 13.2732 26.8911 13.1815 27.0097C13.0898 27.1283 12.9654 27.2139 12.8082 27.2798C12.651 27.3457 12.4677 27.3786 12.2647 27.3786C12.0813 27.3786 11.911 27.3523 11.7539 27.293C11.5967 27.2403 11.4723 27.1546 11.374 27.036C11.2758 26.9174 11.2169 26.7791 11.2038 26.6012H10.4834C10.4965 26.8911 10.5816 27.1414 10.7257 27.3457C10.8698 27.5565 11.0793 27.7146 11.3347 27.8332C11.5967 27.9452 11.9045 28.0045 12.2581 28.0045C12.6118 28.0045 12.9457 27.9452 13.2077 27.82C13.4696 27.7014 13.6727 27.5301 13.8102 27.3193C13.9477 27.1085 14.0197 26.8713 14.0197 26.5946C14.0197 26.3772 13.9805 26.1928 13.8953 26.0412C13.8102 25.8897 13.6989 25.758 13.5613 25.6526V25.6591Z" fill="#EEEEEE"/>
<path d="M14.6484 23.7553H16.1285V27.9254H16.8488V23.7553H18.3289V23.136H14.6484V23.7553Z" fill="#EEEEEE"/>
<path d="M22.2381 23.3665C21.9173 23.1689 21.5505 23.0701 21.138 23.0701C20.7254 23.0701 20.3586 23.1689 20.0312 23.3665C19.7038 23.5642 19.4549 23.8474 19.265 24.2164C19.0751 24.5853 18.9834 25.0201 18.9834 25.534C18.9834 26.0478 19.0751 26.4826 19.265 26.8516C19.4549 27.2205 19.7038 27.5038 20.0312 27.7014C20.3586 27.8991 20.7254 27.9979 21.138 27.9979C21.5505 27.9979 21.9173 27.8991 22.2381 27.7014C22.559 27.5038 22.8144 27.2205 23.0044 26.8516C23.1877 26.4826 23.286 26.0478 23.286 25.534C23.286 25.0201 23.1943 24.5853 23.0044 24.2164C22.8144 23.8474 22.5656 23.5642 22.2381 23.3665ZM22.3822 26.5156C22.2578 26.7857 22.0875 26.9833 21.8714 27.1217C21.6553 27.26 21.413 27.3259 21.138 27.3259C20.8629 27.3259 20.6206 27.26 20.4045 27.1217C20.1884 26.9833 20.0181 26.7791 19.8937 26.5156C19.7693 26.2455 19.7038 25.9161 19.7038 25.5274C19.7038 25.1387 19.7693 24.8093 19.8937 24.5392C20.0181 24.2691 20.1884 24.0714 20.4045 23.9331C20.6206 23.7947 20.8629 23.7289 21.138 23.7289C21.413 23.7289 21.6553 23.8013 21.8714 23.9331C22.0875 24.0714 22.2578 24.2757 22.3822 24.5392C22.5066 24.8093 22.5721 25.1321 22.5721 25.5274C22.5721 25.9227 22.5066 26.2455 22.3822 26.5156Z" fill="#EEEEEE"/>
<path d="M27.3398 23.8936C27.2154 23.6564 27.0386 23.472 26.7963 23.3402C26.554 23.2019 26.2462 23.136 25.8729 23.136H24.1768V27.9254H24.8971V26.2389H25.8729C26.2396 26.2389 26.5474 26.173 26.7897 26.0347C27.032 25.8963 27.2154 25.7119 27.3398 25.4747C27.4642 25.2376 27.5232 24.974 27.5232 24.6776C27.5232 24.3811 27.4642 24.1176 27.3398 23.887V23.8936ZM26.6915 25.1717C26.626 25.3166 26.5147 25.4286 26.3706 25.5077C26.2265 25.5867 26.0366 25.6328 25.8009 25.6328H24.8906V23.7618H25.7943C26.0301 23.7618 26.2265 23.8014 26.3706 23.8804C26.5147 23.9595 26.626 24.0715 26.6915 24.2098C26.757 24.3482 26.7963 24.5129 26.7963 24.6907C26.7963 24.8686 26.7635 25.0333 26.6915 25.1717Z" fill="#EEEEEE"/>
<path d="M33.6726 20.9816H4.32744C4.14407 20.9816 4 20.8366 4 20.6522C4 20.4677 4.14407 20.3228 4.32744 20.3228H33.6726C33.8559 20.3228 34 20.4677 34 20.6522C34 20.8366 33.8559 20.9816 33.6726 20.9816Z" fill="#EEEEEE"/>
</g>
<defs>
<clipPath id="clip0_330_573">
<rect width="30" height="24" fill="white" transform="translate(4 4.00439)"/>
</clipPath>
</defs>
</svg>
