<svg width="36" height="32" viewBox="0 0 36 32" fill="none" xmlns="http://www.w3.org/2000/svg">
<g clip-path="url(#clip0_685_952)">
<path d="M31.6378 4.01563C31.8377 4.01563 31.9992 4.1817 31.9992 4.38717C31.9992 11.4117 32.0001 18.4353 31.9982 25.4599C31.9982 26.6786 31.344 27.6103 30.2756 27.903C30.0265 27.9715 29.7591 27.9997 29.5 27.9997C22.8155 28.0044 16.1309 28.0053 9.44641 28.0025C7.96188 28.0025 6.68537 27.0173 6.25927 25.5575C5.56855 23.1959 4.86688 20.8381 4.19989 18.47C3.74094 16.8413 4.07489 15.3532 5.16525 14.0894C7.2739 11.6463 9.38437 9.205 11.545 6.81063C13.1774 5.00265 15.2532 4.0541 17.6465 4.0297C22.3036 3.98279 26.9616 4.01563 31.6187 4.01563H31.6387H31.6378ZM8.49292 14.7903H29.2865C29.4863 14.7903 29.6478 14.6242 29.6478 14.4188V6.78811C29.6478 6.58264 29.4863 6.41657 29.2865 6.41657H29.229C25.4551 6.41657 21.6804 6.3978 17.9065 6.42407C16.0908 6.43627 14.3572 7.21688 13.1199 8.58389C11.837 10.0016 10.5952 11.4586 9.3351 12.8979C8.9683 13.3173 8.60241 13.7367 8.22375 14.1701C8.0148 14.4094 8.17995 14.7894 8.492 14.7894L8.49292 14.7903ZM25.3712 19.5772H29.2801C29.4799 19.5772 29.6414 19.4111 29.6414 19.2056V17.6003C29.6414 17.3948 29.4799 17.2288 29.2801 17.2288H25.3712C25.1714 17.2288 25.0099 17.3948 25.0099 17.6003V19.2056C25.0099 19.4111 25.1714 19.5772 25.3712 19.5772Z" fill="#EEEEEE"/>
<path d="M17.7631 16.0073C19.3954 15.8879 20.9889 17.2479 21.0463 18.9551C21.0663 19.4862 21.0583 20.0145 21.061 20.5456C21.5401 20.4976 21.9538 20.735 21.9405 21.2675C21.9431 22.6 21.9431 23.9312 21.9391 25.2637C21.9525 25.6795 21.6402 26.0144 21.2278 25.9897C19.1298 25.9883 17.0318 25.9897 14.9338 25.9897C14.4453 26.0556 13.9769 25.8058 14.0009 25.2445C14.0076 23.8873 13.9929 22.5287 14.0076 21.17C14.0329 20.7048 14.4693 20.4894 14.8831 20.5484C14.9071 19.7661 14.7963 18.9674 15.0285 18.2099C15.4116 16.9913 16.5233 16.1006 17.7645 16.0073H17.7631ZM19.7264 20.5401C19.7477 20.0447 19.7384 19.5424 19.725 19.0443C19.6596 17.9944 18.7334 17.2328 17.7058 17.3892C16.0949 17.6665 16.1483 19.2213 16.219 20.5401H19.7264Z" fill="#191919"/>
</g>
<defs>
<clipPath id="clip0_685_952">
<rect width="28" height="24" fill="white" transform="translate(4 4.00439)"/>
</clipPath>
</defs>
</svg>
