<svg width="36" height="36" viewBox="0 0 36 36" fill="none" xmlns="http://www.w3.org/2000/svg">
<g clip-path="url(#clip0_473_7129)">
<path d="M4.3814 6.01646C9.03849 6.01646 13.6965 5.98268 18.3536 6.03053C20.7469 6.05492 22.8227 7.00348 24.4541 8.81145C26.6148 11.2049 28.7253 13.6471 30.8339 16.0903C31.9252 17.3541 32.2582 18.8421 31.7993 20.4709C31.1323 22.839 30.4306 25.1968 29.7399 27.5583C29.3129 29.0182 28.0373 30.0024 26.5527 30.0033C19.8682 30.0071 13.1837 30.0061 6.49917 30.0005C6.24004 30.0005 5.9736 29.9714 5.7236 29.9039C4.65604 29.6111 4.00182 28.6795 4.00091 27.4607C4 20.4362 4 13.4125 4 6.388C4 6.18252 4.1615 6.01646 4.36133 6.01646H4.3814ZM27.7754 16.1719C27.3967 15.7384 27.0309 15.319 26.6641 14.8996C25.404 13.4604 24.1622 12.0024 22.8793 10.5857C21.642 9.21865 19.9093 8.43804 18.0926 8.42584C14.3188 8.40051 10.544 8.41833 6.77016 8.41833H6.71268C6.51286 8.41833 6.35135 8.5844 6.35135 8.78987V16.4205C6.35135 16.626 6.51286 16.7921 6.71268 16.7921H27.5062C27.8183 16.7921 27.9834 16.4111 27.7745 16.1728L27.7754 16.1719ZM10.9893 21.2074V19.6021C10.9893 19.3966 10.8278 19.2305 10.628 19.2305H6.71998C6.52015 19.2305 6.35865 19.3966 6.35865 19.6021V21.2074C6.35865 21.4129 6.52015 21.5789 6.71998 21.5789H10.6289C10.8287 21.5789 10.9902 21.4129 10.9902 21.2074H10.9893Z" fill="#00CCB8"/>
<path d="M21.9554 23.2721C21.9674 22.7391 21.5544 22.4994 21.0747 22.5487V22.5432H16.2076C16.2236 21.976 16.1716 21.4006 16.2409 20.8362C16.6659 18.74 19.6997 19.0113 19.7543 21.154C19.7637 21.4897 19.9422 21.6595 20.2686 21.6609C20.647 21.6897 21.1054 21.6541 21.084 21.1485C21.1054 19.3538 19.4759 17.8646 17.7518 18.0098C16.2303 18.1208 14.8952 19.4744 14.8832 21.0636C14.8739 21.5595 14.8739 22.0555 14.8753 22.5501C14.4143 22.4774 13.9666 22.7816 14.0026 23.2899C14.0026 24.6106 14.0026 25.9326 14.0012 27.2533C13.9786 27.6438 14.2717 28.0041 14.6607 27.9986C16.8538 28.0014 19.0469 27.9986 21.2399 28C21.533 28 21.7595 27.8863 21.8861 27.6109C22.0633 26.1902 21.9034 24.7092 21.9541 23.2693L21.9554 23.2721Z" fill="#191919"/>
</g>
<defs>
<clipPath id="clip0_473_7129">
<rect width="28" height="24" fill="white" transform="translate(4 6.00488)"/>
</clipPath>
</defs>
</svg>
