<svg width="30" height="24" viewBox="0 0 30 24" fill="none" xmlns="http://www.w3.org/2000/svg">
<g clip-path="url(#clip0_685_440)">
<path d="M4.07031 17.6612V15.9996C5.54584 15.9996 7.01391 15.9964 8.48882 16.0021C8.66245 16.0027 8.76762 15.9681 8.83981 15.7828C9.86664 12.942 14.3268 12.9276 15.345 15.8155C15.3748 15.8884 15.4638 15.9895 15.5248 15.9889C16.7396 16.1296 18.3215 15.801 18.3303 14.2657C18.3962 13.1676 18.367 11.8489 16.9898 11.7076C14.0736 11.4984 13.6473 10.7634 11.6502 8.87622C9.54802 7.0343 6.61873 7.8403 4.07965 7.69392V6.05114C15.1601 5.18798 11.9682 9.70107 16.9524 10.0466C19.1642 10.1006 20.3416 12.0142 20.0821 14.0753C20.2196 16.6472 17.8193 17.8547 15.6568 17.6693C15.5491 17.6788 15.3879 17.7523 15.3537 17.8383C14.3754 20.7112 9.91332 20.7093 8.8423 17.9357C8.83296 17.6291 8.65311 17.6128 8.40667 17.6172C6.95852 17.6398 5.52033 17.6549 4.07031 17.6612ZM12.1139 18.3755C13.3909 18.4603 14.3561 16.8068 13.3548 15.8306C12.7499 15.1778 11.4828 15.0076 10.657 15.9644C9.76458 16.95 10.97 18.5407 12.1145 18.3755H12.1139Z" fill="#EEEEEE"/>
<path d="M22.1507 7.50295C22.445 7.49855 22.5875 7.7423 22.4786 8.03944C22.1426 8.95978 21.8015 9.87886 21.463 10.7986C21.29 11.2685 21.1232 11.7415 20.9371 12.2058C20.8967 12.3063 20.7853 12.3779 20.7062 12.4627C20.6359 12.3716 20.5332 12.2912 20.4996 12.1882C20.0621 10.8526 19.1473 10.024 17.8436 9.59113C17.7216 9.55093 17.6214 9.4435 17.5112 9.36686C17.617 9.27388 17.7085 9.1407 17.8317 9.09422C19.1679 8.58913 20.5083 8.09724 21.8482 7.60283C21.9546 7.56326 22.0642 7.53122 22.1507 7.50232V7.50295Z" fill="#EEEEEE"/>
<path d="M16.2717 5.28784C17.0142 4.85814 17.7267 4.4454 18.4878 4.00439C18.4287 4.36185 18.3802 4.65648 18.3285 4.96933C19.5221 5.34563 20.5347 5.93553 21.012 7.22337C20.6765 7.35341 20.3548 7.47842 20.0374 7.60155C19.4188 6.64981 18.9147 6.25089 18.1263 6.10703C18.0615 6.46386 17.9968 6.82319 17.9184 7.25603C17.3484 6.57442 16.82 5.94307 16.2717 5.28784Z" fill="#00CCB8"/>
<path d="M24.6623 13.9691C24.0126 13.4169 23.3915 12.888 22.7194 12.3163C23.1333 12.2346 23.4905 12.1643 23.8744 12.0883C23.623 11.2446 23.2222 10.5586 22.3616 10.2055C22.486 9.87004 22.6074 9.544 22.7406 9.18591C24.0107 9.66398 24.597 10.6804 24.9772 11.8935C25.2772 11.8464 25.5647 11.8012 25.9294 11.7434C25.4869 12.5211 25.083 13.231 24.6623 13.9698V13.9691Z" fill="#EEEEEE"/>
</g>
<defs>
<clipPath id="clip0_685_440">
<rect width="21.8592" height="16" fill="white" transform="translate(4.07031 4.00439)"/>
</clipPath>
</defs>
</svg>
