<svg width="45" height="24" viewBox="0 0 45 24" fill="none" xmlns="http://www.w3.org/2000/svg">
<g clip-path="url(#clip0_685_921)">
<path d="M11.8855 9.11346C10.4416 8.13637 8.88633 7.52479 7.23092 7.16847C6.88247 7.09291 6.52789 7.03982 6.1825 6.95202C5.70938 6.83154 5.42633 6.39864 5.51114 5.96165C5.60311 5.48893 6.04353 5.16425 6.52686 5.23879C8.76882 5.5849 10.8738 6.31798 12.8195 7.49314C13.312 7.79127 13.7994 8.09655 14.2439 8.3712C14.7487 7.89439 15.2433 7.45537 15.7062 6.98469C17.52 5.14179 19.717 4.13918 22.2951 4.05035C23.9608 3.99317 25.6346 3.97888 27.2971 4.06975C29.4624 4.18818 31.2681 5.152 32.7681 6.70596C33.1105 7.06024 33.4589 7.41248 33.837 7.72695C34.6116 8.3712 35.5231 8.64687 36.5265 8.67341C38.3281 8.7214 39.8404 9.71585 40.1286 11.2688C40.383 12.641 40.5455 14.0877 39.7147 15.3762C38.9637 16.5412 37.857 17.1436 36.4826 17.2314C35.9206 17.2671 35.3555 17.2375 34.8047 17.2375C34.1936 18.6802 32.9674 19.7369 31.5623 19.9023C29.2846 20.1698 27.524 17.9736 27.4024 17.6347C27.2971 17.3406 27.153 17.2518 26.8495 17.2528C23.224 17.263 19.5974 17.263 15.9719 17.2528C15.6531 17.2528 15.5018 17.3498 15.369 17.6449C14.108 20.4455 10.2423 20.8416 8.44387 18.3637C8.42343 18.3361 8.40197 18.3106 8.38256 18.282C8.09337 17.8552 7.03064 16.9026 6.60963 16.6606C5.42837 15.9837 4.62008 15.0117 4.38812 13.6467C4.01514 11.4536 5.66748 9.50552 7.93805 9.39525C9.16019 9.33604 10.3813 9.23598 11.6024 9.15328C11.6975 9.14715 11.7925 9.12775 11.8875 9.11448L11.8855 9.11346ZM34.82 15.51C35.4107 15.51 36.0115 15.5753 36.5929 15.4947C37.486 15.3711 38.1421 14.8525 38.3751 13.9632C38.4967 13.4966 38.4711 12.9881 38.4824 12.4981C38.513 11.1646 37.8314 10.4418 36.4857 10.3836C35.2175 10.3284 34.0189 10.0497 32.997 9.2615C32.4606 8.848 31.9404 8.40081 31.4745 7.91073C30.0418 6.4068 28.3047 5.67986 26.2303 5.71457C25.0388 5.73499 23.8463 5.70742 22.6538 5.7258C22.2134 5.73295 21.7699 5.78298 21.3356 5.85751C19.3328 6.20056 17.7315 7.243 16.4552 8.78368C15.3414 10.1283 13.9609 10.8042 12.2023 10.8318C10.7921 10.8543 9.37784 10.9666 7.9779 11.1401C7.49661 11.2004 6.9448 11.4658 6.61372 11.815C5.57449 12.9126 6.38891 14.9556 7.95849 15.3099C8.15673 14.976 8.32329 14.6166 8.55934 14.3113C10.3629 11.9825 14.1908 12.4562 15.3659 15.1547C15.4845 15.4263 15.6071 15.5386 15.9147 15.5376C19.5586 15.5263 23.2025 15.5294 26.8465 15.5335C27.0989 15.5335 27.2736 15.5171 27.3911 15.2221C27.9858 13.7222 29.5145 12.7574 31.1352 12.8207C32.947 12.8922 34.304 13.8815 34.82 15.511V15.51ZM31.0678 18.2789C32.0488 18.3034 33.2229 17.5561 33.1462 16.3513C33.0849 15.3773 32.1387 14.5064 31.0524 14.5166C29.911 14.5268 28.9781 15.3803 28.9801 16.4115C28.9822 17.4448 29.9151 18.2789 31.0667 18.2799L31.0678 18.2789ZM11.7302 18.2789C12.8818 18.2728 13.7964 17.4366 13.7902 16.3952C13.7841 15.366 12.8614 14.5349 11.7067 14.5196C10.602 14.5053 9.63842 15.3936 9.64761 16.4156C9.65783 17.456 10.5836 18.284 11.7302 18.2779V18.2789Z" fill="#EEEEEE"/>
</g>
<defs>
<clipPath id="clip0_685_921">
<rect width="36" height="16" fill="white" transform="translate(4.3335 4.00439)"/>
</clipPath>
</defs>
</svg>
