<svg width="36" height="36" viewBox="0 0 36 36" fill="none" xmlns="http://www.w3.org/2000/svg">
<g clip-path="url(#clip0_473_7202)">
<path d="M31.6376 6.01117C31.8374 6.01117 31.9989 6.17724 31.9989 6.38271C31.9989 13.4073 31.9998 20.4309 31.998 27.4554C31.998 28.6742 31.3438 29.6059 30.2753 29.8986C30.0262 29.9671 29.7589 29.9952 29.4997 29.9952C22.8152 29.9999 16.1307 30.0009 9.44617 29.998C7.96163 29.998 6.68513 29.0129 6.25902 27.553C5.56831 25.1915 4.86664 22.8337 4.19965 20.4656C3.74069 18.8368 4.07464 17.3488 5.16501 16.085C7.27365 13.6418 9.38412 11.2005 11.5448 8.80617C13.1771 6.9982 15.2529 6.04964 17.6463 6.02525C22.3033 5.97834 26.9613 6.01117 31.6184 6.01117H31.6376ZM8.49267 16.7858H29.2862C29.4861 16.7858 29.6476 16.6198 29.6476 16.4143V8.78365C29.6476 8.57818 29.4861 8.41211 29.2862 8.41211H29.2287C25.4549 8.41211 21.6801 8.39335 17.9063 8.41962C16.0905 8.43182 14.3569 9.21243 13.1196 10.5794C11.8368 11.9971 10.5949 13.4542 9.33485 14.8934C8.96805 15.3128 8.60216 15.7322 8.2235 16.1657C8.01455 16.4049 8.1797 16.7849 8.49176 16.7849L8.49267 16.7858ZM25.371 21.5727H29.2798C29.4797 21.5727 29.6412 21.4066 29.6412 21.2012V19.5958C29.6412 19.3904 29.4797 19.2243 29.2798 19.2243H25.371C25.1711 19.2243 25.0096 19.3904 25.0096 19.5958V21.2012C25.0096 21.4066 25.1711 21.5727 25.371 21.5727Z" fill="#00CCB8"/>
<path d="M21.9554 23.2681C21.9674 22.7352 21.5544 22.4955 21.0747 22.5448V22.5393H16.2076C16.2236 21.9721 16.1716 21.3967 16.2409 20.8322C16.6659 18.7361 19.6997 19.0074 19.7543 21.1501C19.7637 21.4857 19.9422 21.6556 20.2686 21.657C20.647 21.6858 21.1054 21.6501 21.084 21.1446C21.1054 19.3499 19.4759 17.8607 17.7518 18.0059C16.2303 18.1169 14.8952 19.4704 14.8833 21.0597C14.8739 21.5556 14.8739 22.0516 14.8753 22.5461C14.4143 22.4735 13.9666 22.7777 14.0026 23.286C14.0026 24.6067 14.0026 25.9287 14.0012 27.2494C13.9786 27.6399 14.2717 28.0002 14.6607 27.9947C16.8538 27.9975 19.0469 27.9947 21.2399 27.9961C21.533 27.9961 21.7595 27.8824 21.8861 27.607C22.0633 26.1863 21.9034 24.7053 21.9541 23.2654L21.9554 23.2681Z" fill="#191919"/>
</g>
<defs>
<clipPath id="clip0_473_7202">
<rect width="28" height="24" fill="white" transform="translate(4 6)"/>
</clipPath>
</defs>
</svg>
