<svg width="36" height="32" viewBox="0 0 36 32" fill="none" xmlns="http://www.w3.org/2000/svg">
<g clip-path="url(#clip0_685_793)">
<path d="M4.3814 4.01548C9.03849 4.01548 13.6965 3.9817 18.3536 4.02955C20.7469 4.05395 22.8227 5.0025 24.4541 6.81048C26.6148 9.20391 28.7253 11.6461 30.8339 14.0893C31.9252 15.3531 32.2582 16.8411 31.7993 18.4699C31.1323 20.838 30.4306 23.1958 29.7399 25.5573C29.3129 27.0172 28.0373 28.0014 26.5527 28.0023C19.8682 28.0061 13.1837 28.0052 6.49917 27.9995C6.24004 27.9995 5.9736 27.9704 5.7236 27.9029C4.65604 27.6102 4.00182 26.6785 4.00091 25.4597C4 18.4352 4 11.4116 4 4.38702C4 4.18155 4.1615 4.01548 4.36133 4.01548H4.3814ZM27.7754 14.1709C27.3967 13.7374 27.0309 13.3181 26.6641 12.8987C25.404 11.4594 24.1622 10.0014 22.8793 8.58467C21.5964 7.16794 19.9093 6.43706 18.0926 6.42486C14.3188 6.39953 10.544 6.41736 6.77016 6.41736H6.71268C6.51286 6.41736 6.35135 6.58342 6.35135 6.7889V14.4195C6.35135 14.625 6.51286 14.7911 6.71268 14.7911H27.5062C27.8183 14.7911 27.9834 14.4102 27.7745 14.1719L27.7754 14.1709ZM10.9893 19.2064V17.6011C10.9893 17.3956 10.8278 17.2296 10.628 17.2296H6.71998C6.52015 17.2296 6.35865 17.3956 6.35865 17.6011V19.2064C6.35865 19.4119 6.52015 19.5779 6.71998 19.5779H10.6289C10.8287 19.5779 10.9902 19.4119 10.9902 19.2064H10.9893Z" fill="#EEEEEE"/>
<path d="M20.9138 18.2099C21.1447 18.9674 21.0352 19.7661 21.0593 20.5484C21.473 20.4894 21.9094 20.7048 21.9348 21.17C21.9495 22.5273 21.9348 23.8859 21.9414 25.2445C21.9655 25.8058 21.497 26.0556 21.0086 25.9897C18.9106 25.9897 16.8125 25.9897 14.7145 25.9897C14.3021 26.013 13.9898 25.6795 14.0032 25.2637C13.9992 23.9312 13.9992 22.6 14.0019 21.2675C13.9885 20.735 14.4022 20.4976 14.8814 20.5456C14.8854 20.0145 14.8774 19.4848 14.896 18.9551C14.9534 17.2479 16.547 15.8879 18.1792 16.0073C19.4204 16.102 20.5321 16.9913 20.9151 18.2099H20.9138ZM19.7207 20.5401C19.7914 19.2213 19.8448 17.6665 18.2339 17.3892C17.2063 17.2328 16.2814 17.9944 16.2146 19.0443C16.2013 19.5411 16.192 20.0433 16.2133 20.5401C17.3878 20.5401 18.5555 20.5401 19.7207 20.5401Z" fill="#191919"/>
</g>
<defs>
<clipPath id="clip0_685_793">
<rect width="28" height="24" fill="white" transform="translate(4 4.00439)"/>
</clipPath>
</defs>
</svg>
