<svg width="36" height="36" viewBox="0 0 36 36" fill="none" xmlns="http://www.w3.org/2000/svg">
<g clip-path="url(#clip0_473_6931)">
<path d="M18.0108 4C18.0108 4 18.0033 4 17.9996 4C17.9959 4 17.9922 4 17.9885 4C10.2631 4 4 10.2679 4 18C4 25.7321 10.2631 32 17.9892 32C17.993 32 17.9967 32 18.0004 32C18.0041 32 18.0078 32 18.0115 32C25.7376 32 32.0007 25.7321 32.0007 18C32.0007 10.2679 25.7369 4 18.0108 4ZM27.6213 21.9893C27.6124 22.0108 27.6028 22.0331 27.5939 22.0546C27.5894 22.065 27.585 22.0754 27.5805 22.0866C26.6272 24.2538 25.1894 25.8939 23.2656 27.001C23.2189 27.0277 23.1729 27.0552 23.1254 27.0811C23.1239 27.0811 23.1232 27.0826 23.1217 27.0834C22.5675 27.3885 21.971 27.6521 21.3352 27.8771C21.1891 27.9276 21.0422 27.9773 20.8916 28.0233C20.6564 28.0954 20.4353 28.0916 20.2454 28.0278C19.8395 27.8815 19.5732 27.4553 19.6541 26.949C19.8573 25.6705 20.0183 24.3815 20.2876 23.1164C20.3552 22.7993 20.4553 22.4957 20.5837 22.2083C20.5918 22.1898 20.6 22.1719 20.6089 22.1534C20.6163 22.137 20.6245 22.1214 20.6319 22.1051C20.7714 21.817 20.9368 21.5475 21.1252 21.298C21.6691 20.5845 22.4139 20.0366 23.2649 19.7255C23.4786 19.6498 23.7004 19.5881 23.9289 19.5436C24.3043 19.4701 24.5907 19.4493 24.8414 19.4359C25.2057 19.4159 25.2598 19.4367 26.1754 19.43C26.1828 19.43 26.3178 19.4293 26.501 19.4285C26.714 19.4285 26.9269 19.4285 27.1398 19.4322C27.8439 19.4478 28.2564 19.998 28.0694 20.6811C28.0256 20.8399 27.9797 20.9996 27.9307 21.1577C27.8357 21.4428 27.7333 21.7213 27.6221 21.9908L27.6213 21.9893ZM18.1102 19.113C18.1005 19.113 18.0901 19.113 18.0805 19.1137C18.0538 19.1144 18.0271 19.1159 18.0004 19.1159C17.9737 19.1159 17.947 19.1144 17.9202 19.1137C17.9106 19.1137 17.9002 19.1137 17.8906 19.113C17.8839 19.113 17.8772 19.1122 17.8705 19.1115C17.3356 19.084 16.817 18.9615 16.3593 18.6341C15.5951 18.0869 15.5944 17.2568 16.3556 16.7066C16.7837 16.397 17.3623 16.2374 17.9462 16.2262C17.964 16.2262 17.9826 16.2248 18.0004 16.2248C18.0189 16.2248 18.0367 16.2262 18.0545 16.2262C18.6384 16.2374 19.2171 16.397 19.6452 16.7066C20.4063 17.2568 20.4056 18.0869 19.6415 18.6341C19.1844 18.9615 18.6651 19.084 18.1302 19.1115C18.1235 19.1115 18.1168 19.1122 18.1102 19.113ZM15.1092 28.0226C14.9593 27.9766 14.8117 27.9268 14.6655 27.8763C14.0297 27.6521 13.4332 27.3878 12.879 27.0826C12.8776 27.0826 12.8768 27.0811 12.8753 27.0804C12.8279 27.0544 12.7819 27.0269 12.7351 27.0002C10.8114 25.8932 9.37357 24.2531 8.42023 22.0858C8.41578 22.0754 8.41133 22.065 8.40688 22.0539C8.39723 22.0324 8.38833 22.0101 8.37943 21.9885C8.26814 21.719 8.16576 21.4406 8.0708 21.1555C8.02183 20.9973 7.97584 20.8385 7.93206 20.6788C7.83858 20.338 7.89497 20.0299 8.0619 19.8057C8.15241 19.6839 8.30746 19.5436 8.86166 19.43C9.30309 19.3394 9.5724 19.3506 11.1601 19.4337C11.3967 19.4463 11.689 19.4664 12.0726 19.5414C12.3018 19.5867 12.5229 19.6475 12.7366 19.7233C13.5868 20.0344 14.3317 20.5823 14.8762 21.2958C15.0647 21.5453 15.2301 21.8156 15.3696 22.1029C15.377 22.1192 15.3852 22.1348 15.3926 22.1511C15.4015 22.169 15.4089 22.1875 15.4178 22.2061C15.5462 22.4934 15.6463 22.7971 15.7138 23.1141C15.9831 24.3793 16.1441 25.6682 16.3474 26.9468C16.4283 27.4531 16.1619 27.8793 15.7561 28.0256C15.5662 28.0894 15.3451 28.0931 15.1099 28.0211L15.1092 28.0226ZM12.5214 9.14457C12.5214 9.14457 13.1343 8.75032 14.0913 8.35384C14.6433 8.13258 15.2272 7.94548 15.8444 7.79402C16.0855 7.73462 16.3341 7.6975 16.5819 7.66854C16.9766 7.62325 17.3735 7.59355 17.5842 7.57425C17.7236 7.56163 17.8624 7.55494 18.0004 7.55049C18.1391 7.55494 18.2778 7.56163 18.4166 7.57425C18.6273 7.59355 19.0242 7.62325 19.4189 7.66854C19.6667 7.6975 19.9152 7.73462 20.1563 7.79402C20.7736 7.94548 21.3575 8.13258 21.9094 8.35384C22.8665 8.75032 23.4793 9.14457 23.4793 9.14457C23.9689 9.43933 24.4089 9.75636 24.8066 10.0853C26.2941 11.3556 27.3735 13.0611 28.0368 15.2061C28.0524 15.2566 28.065 15.3063 28.0754 15.3546C28.0909 15.5744 28.1021 15.9916 27.8669 16.2619C27.7007 16.4349 27.4544 16.5373 27.148 16.544C27.122 16.5433 27.096 16.5425 27.0686 16.5396C25.4594 16.3792 23.8547 16.178 22.25 15.9753C22.112 15.9582 21.9525 15.8364 21.8671 15.7169C20.9375 14.4176 19.5131 13.7598 18.0805 13.7375C18.0538 13.7375 18.0263 13.7353 17.9996 13.7353C17.9729 13.7353 17.9455 13.7367 17.9188 13.7375C16.4862 13.7598 15.0625 14.4176 14.1321 15.7169C14.0468 15.8364 13.8873 15.9582 13.7493 15.9753C12.1446 16.178 10.5398 16.3792 8.93066 16.5396C8.90395 16.5425 8.87798 16.5433 8.85128 16.544C8.54487 16.5366 8.29782 16.4341 8.13238 16.2619C7.89719 15.9916 7.90832 15.5736 7.9239 15.3546C7.93429 15.3063 7.9469 15.2566 7.96248 15.2061C8.62574 13.0611 9.7052 11.3556 11.1927 10.0853C11.5904 9.75636 12.0303 9.43933 12.52 9.14457H12.5214Z" fill="#00CCB8"/>
</g>
<defs>
<clipPath id="clip0_473_6931">
<rect width="28" height="28" fill="white" transform="translate(4 4)"/>
</clipPath>
</defs>
</svg>
