<svg width="36" height="36" viewBox="0 0 36 36" fill="none" xmlns="http://www.w3.org/2000/svg">
<g clip-path="url(#clip0_473_6941)">
<path d="M13.493 11.2625V25.1374H22.5464V11.268C24.2272 11.0849 25.8726 12.323 26.1589 14.0037C26.2401 14.4795 26.1786 14.9792 26.1817 15.4673C26.1888 16.4784 26.1399 17.494 26.2149 18.5004C26.3277 20.0158 26.5256 21.5258 26.6897 23.059C26.0019 23.164 25.3441 23.4452 24.7446 23.8599C24.1728 24.2554 23.7161 24.7543 23.3667 25.346C23.3107 25.441 23.2815 25.5599 23.2728 25.6704C23.1577 27.1688 23.048 28.6679 22.9368 30.1671C22.8918 30.7688 22.8437 31.3705 22.7964 31.9868H13.2454C13.1838 31.1542 13.1199 30.3308 13.0639 29.5067C12.9772 28.2377 12.9038 26.9679 12.8021 25.7005C12.7879 25.5197 12.6554 25.3429 12.5599 25.1745C12.4984 25.0664 12.4022 24.9783 12.3241 24.8794C11.5543 23.9063 10.6709 23.1138 9.31104 23.093C9.4325 22.1877 9.56028 21.3126 9.6644 20.4352C9.85607 18.8248 9.93573 17.2098 9.87026 15.5878C9.84739 15.0248 9.79849 14.4401 9.9168 13.8979C10.2504 12.3601 11.4091 11.4441 13.0797 11.2927C13.2043 11.2811 13.3297 11.2741 13.493 11.2625Z" fill="#EEEEEE"/>
<path d="M14.3409 11.2286H15.6992V9.93722C15.4436 9.93722 15.2014 9.93953 14.9593 9.93722C13.9639 9.92486 13.3147 9.18879 13.4346 8.22564C13.5537 7.27022 13.665 6.31325 13.7699 5.35628C13.859 4.54298 14.4498 4.00386 15.2851 4.00232C17.115 3.99923 18.9441 3.99923 20.774 4.00232C21.5935 4.00386 22.1875 4.54066 22.2766 5.33697C22.3847 6.29394 22.4959 7.25014 22.6134 8.20633C22.7333 9.18107 22.1125 9.89937 21.1061 9.9349C20.8624 9.9434 20.6178 9.93644 20.3347 9.93644V11.2286H21.7134V17.145H14.3401V11.2294L14.3409 11.2286ZM16.5439 11.2209H19.4931V9.9573H16.5439V11.2209Z" fill="#EEEEEE"/>
<path d="M14.3301 17.9873H21.7168V24.3362H14.3301V17.9873Z" fill="#EEEEEE"/>
<path d="M12.3509 31.9685C10.1266 32.1399 7.99936 31.0478 7.27923 28.5716C7.04024 27.7506 6.88722 26.9118 7.10413 26.0645C7.38729 24.96 8.06483 24.1915 9.22982 23.9513C9.52955 23.8895 9.89869 23.9752 10.1921 24.0949C10.9785 24.4162 11.4391 25.1006 11.9368 25.7324C11.9794 25.7864 11.9771 25.8799 11.9834 25.9556C12.1072 27.5976 12.2334 29.2397 12.347 30.8818C12.3714 31.2363 12.3509 31.5931 12.3509 31.9677V31.9685Z" fill="#EEEEEE"/>
<path d="M23.6268 31.991C23.697 30.9514 23.7624 29.9527 23.8318 28.9541C23.9013 27.9647 23.9691 26.9752 24.0519 25.9874C24.0653 25.8244 24.1213 25.6452 24.2144 25.5108C24.7452 24.7431 25.4701 24.2194 26.3795 23.956C26.5294 23.9128 26.7155 23.9058 26.8638 23.9491C28.1045 24.3152 28.8002 25.1555 28.9643 26.3975C29.1638 27.9067 28.5384 30.2771 26.6406 31.3492C25.7185 31.8705 24.7216 32.042 23.626 31.9903L23.6268 31.991Z" fill="#EEEEEE"/>
</g>
<defs>
<clipPath id="clip0_473_6941">
<rect width="22" height="28" fill="white" transform="translate(7 4)"/>
</clipPath>
</defs>
</svg>
