<svg width="38" height="36" viewBox="0 0 38 36" fill="none" xmlns="http://www.w3.org/2000/svg">
<g clip-path="url(#clip0_473_6992)" filter="url(#filter0_d_473_6992)">
<path d="M3.99981 10.6885C4.20584 10.1733 4.5905 9.99766 5.13184 10C8.08295 10.0134 11.0333 10.0047 13.9844 10.0071C15.9241 10.0087 17.8451 10.1781 19.7378 10.6279C23.0955 11.4259 26.0278 12.9974 28.4681 15.4639C31.0941 18.1178 32.7824 21.3326 33.9661 24.8405C34.0327 25.0382 33.9912 25.3155 33.905 25.514C33.7178 25.9465 33.3143 25.9961 32.8913 25.9961C23.6376 25.9929 14.3847 25.9914 5.13105 26C4.5905 26 4.20506 25.8267 3.99902 25.3123C3.99981 20.4377 3.99981 15.5631 3.99981 10.6885ZM30.6131 21.4358C29.4709 19.2254 28.0004 17.2686 26.0819 15.6726C24.0089 13.9482 21.6344 12.8572 19.0155 12.2837C17.4244 11.9355 15.8129 11.789 14.1857 11.789C11.4783 11.7898 8.77157 11.789 6.0641 11.789C5.97714 11.789 5.89018 11.789 5.78285 11.789V15.7963C8.85853 15.7963 11.9225 15.7963 15.0099 15.7963V18.4802C14.9159 18.3904 14.8454 18.3202 14.7709 18.2533C14.3941 17.9138 13.8692 17.9193 13.5292 18.2651C13.1971 18.603 13.172 19.1316 13.5128 19.4893C14.1011 20.1061 14.7028 20.7111 15.3162 21.3035C15.6891 21.6635 16.1952 21.6343 16.5759 21.257C17.147 20.6914 17.7134 20.121 18.2759 19.5476C18.6441 19.1726 18.6598 18.6314 18.3245 18.2777C17.9743 17.909 17.4424 17.9114 17.0413 18.2832C16.9794 18.3407 16.9151 18.3967 16.7992 18.5006V17.2458C16.7992 16.8542 16.7992 16.4627 16.7992 16.0129C17.2473 16.0893 17.6664 16.15 18.0816 16.2319C21.983 17.0015 25.347 18.7701 28.0498 21.7281C28.7024 22.4418 29.2688 23.235 29.8618 24.0023C29.9754 24.1496 30.0796 24.2205 30.2684 24.2158C30.7847 24.2032 31.3017 24.211 31.9214 24.211C31.4647 23.2382 31.0698 22.3204 30.6123 21.4358H30.6131Z" fill="#EEEEEE"/>
</g>
<defs>
<filter id="filter0_d_473_6992" x="0" y="8" width="38" height="24" filterUnits="userSpaceOnUse" color-interpolation-filters="sRGB">
<feFlood flood-opacity="0" result="BackgroundImageFix"/>
<feColorMatrix in="SourceAlpha" type="matrix" values="0 0 0 0 0 0 0 0 0 0 0 0 0 0 0 0 0 0 127 0" result="hardAlpha"/>
<feOffset dy="2"/>
<feGaussianBlur stdDeviation="2"/>
<feComposite in2="hardAlpha" operator="out"/>
<feColorMatrix type="matrix" values="0 0 0 0 0 0 0 0 0 0 0 0 0 0 0 0 0 0 1 0"/>
<feBlend mode="normal" in2="BackgroundImageFix" result="effect1_dropShadow_473_6992"/>
<feBlend mode="normal" in="SourceGraphic" in2="effect1_dropShadow_473_6992" result="shape"/>
</filter>
<clipPath id="clip0_473_6992">
<rect width="30" height="16" fill="white" transform="translate(4 10)"/>
</clipPath>
</defs>
</svg>
