<svg width="38" height="36" viewBox="0 0 38 36" fill="none" xmlns="http://www.w3.org/2000/svg">
<g clip-path="url(#clip0_473_6982)" filter="url(#filter0_d_473_6982)">
<path d="M4.00019 25.313C4.19432 25.8001 4.54736 26.0003 5.0726 26.0003C14.3579 25.9932 23.6432 25.9955 32.9286 25.9947C33.673 25.9947 34.001 25.663 34.001 24.9182C34.0002 20.3086 34.0002 15.6982 34.0002 11.0878C34.0002 10.325 33.6761 10.0018 32.909 10.0011C29.9313 10.0011 26.9528 9.99869 23.9751 10.0011C21.81 10.0034 19.6706 10.2217 17.5759 10.8002C15.0577 11.4953 12.7751 12.6491 10.7673 14.338C8.17162 16.5202 6.35323 19.2715 5.00607 22.3608C4.64285 23.1946 4.33444 24.0529 4.00019 24.8993C4.00019 25.0372 4.00019 25.1743 4.00019 25.3123V25.313ZM7.40841 21.4372C8.57319 19.1824 10.0761 17.1909 12.0472 15.5792C14.1012 13.899 16.4425 12.8366 19.0202 12.2755C20.5912 11.9335 22.181 11.7861 23.7865 11.7853C26.52 11.7853 29.2534 11.7853 31.9869 11.7853C32.055 11.7853 32.1223 11.7924 32.2147 11.7979C32.2147 14.1535 32.2147 16.5037 32.2147 18.8963C29.1477 18.8963 26.0863 18.8963 23.0006 18.8963V16.6416C23.093 16.7259 23.1673 16.7945 23.2425 16.8615C23.6213 17.1988 24.145 17.1893 24.4832 16.8402C24.8143 16.4989 24.8346 15.9748 24.4918 15.6155C23.9039 14.9992 23.3027 14.3939 22.6906 13.8013C22.3376 13.4592 21.8272 13.4703 21.4749 13.8155C20.873 14.405 20.2789 15.0023 19.6941 15.6092C19.3591 15.9567 19.3693 16.5005 19.6902 16.8355C20.0276 17.1877 20.5521 17.2003 20.9294 16.8638C21.0068 16.7953 21.0796 16.7212 21.1931 16.6132C21.1931 17.4746 21.1931 18.2745 21.1931 19.1083C20.765 19.1879 20.3274 19.2644 19.8914 19.3503C16.4401 20.0296 13.3935 21.5183 10.8284 23.9622C10.646 24.1364 10.4699 24.2199 10.2139 24.2168C8.98415 24.2042 7.75362 24.2113 6.52387 24.2113C6.41741 24.2113 6.31096 24.2113 6.10117 24.2113C6.55675 23.2388 6.95127 22.3214 7.40841 21.4364V21.4372Z" fill="#00CCB8"/>
</g>
<defs>
<filter id="filter0_d_473_6982" x="0" y="8" width="38" height="24" filterUnits="userSpaceOnUse" color-interpolation-filters="sRGB">
<feFlood flood-opacity="0" result="BackgroundImageFix"/>
<feColorMatrix in="SourceAlpha" type="matrix" values="0 0 0 0 0 0 0 0 0 0 0 0 0 0 0 0 0 0 127 0" result="hardAlpha"/>
<feOffset dy="2"/>
<feGaussianBlur stdDeviation="2"/>
<feComposite in2="hardAlpha" operator="out"/>
<feColorMatrix type="matrix" values="0 0 0 0 0 0 0 0 0 0 0 0 0 0 0 0 0 0 1 0"/>
<feBlend mode="normal" in2="BackgroundImageFix" result="effect1_dropShadow_473_6982"/>
<feBlend mode="normal" in="SourceGraphic" in2="effect1_dropShadow_473_6982" result="shape"/>
</filter>
<clipPath id="clip0_473_6982">
<rect width="30" height="16" fill="white" transform="matrix(-1 0 0 1 34 10)"/>
</clipPath>
</defs>
</svg>
