<svg width="38" height="36" viewBox="0 0 38 36" fill="none" xmlns="http://www.w3.org/2000/svg">
<g clip-path="url(#clip0_473_6985)" filter="url(#filter0_d_473_6985)">
<path d="M34.0002 10.6885C33.7942 10.1733 33.4095 9.99766 32.8682 10C29.917 10.0134 26.9667 10.0047 24.0156 10.0071C22.0759 10.0087 20.1549 10.1781 18.2622 10.6279C14.9045 11.4259 11.9722 12.9974 9.53187 15.4639C6.90587 18.1178 5.21762 21.3326 4.03388 24.8405C3.96729 25.0382 4.00881 25.3155 4.09498 25.514C4.28222 25.9465 4.68568 25.9961 5.10872 25.9961C14.3624 25.9929 23.6153 25.9914 32.8689 26C33.4095 26 33.7949 25.8267 34.001 25.3123C34.0002 20.4377 34.0002 15.5631 34.0002 10.6885ZM7.38689 21.4358C8.5291 19.2254 9.99957 17.2686 11.9181 15.6726C13.9911 13.9482 16.3656 12.8572 18.9845 12.2837C20.5756 11.9355 22.1871 11.789 23.8143 11.789C26.5217 11.7898 29.2284 11.789 31.9359 11.789C32.0229 11.789 32.1098 11.789 32.2171 11.789V15.7963C29.1415 15.7963 26.0775 15.7963 22.9901 15.7963V18.4802C23.0841 18.3904 23.1546 18.3202 23.2291 18.2533C23.6059 17.9138 24.1308 17.9193 24.4708 18.2651C24.8029 18.603 24.828 19.1316 24.4872 19.4893C23.8989 20.1061 23.2972 20.7111 22.6838 21.3035C22.3109 21.6635 21.8048 21.6343 21.4241 21.257C20.853 20.6914 20.2866 20.121 19.7241 19.5476C19.3559 19.1726 19.3402 18.6314 19.6755 18.2777C20.0257 17.909 20.5576 17.9114 20.9587 18.2832C21.0206 18.3407 21.0849 18.3967 21.2008 18.5006V17.2458C21.2008 16.8542 21.2008 16.4627 21.2008 16.0129C20.7527 16.0893 20.3336 16.15 19.9184 16.2319C16.017 17.0015 12.653 18.7701 9.95021 21.7281C9.29763 22.4418 8.73122 23.235 8.13818 24.0023C8.02458 24.1496 7.92039 24.2205 7.73159 24.2158C7.21532 24.2032 6.69827 24.211 6.07859 24.211C6.53532 23.2382 6.93015 22.3204 7.38767 21.4358H7.38689Z" fill="#EEEEEE"/>
</g>
<defs>
<filter id="filter0_d_473_6985" x="0" y="8" width="38" height="24" filterUnits="userSpaceOnUse" color-interpolation-filters="sRGB">
<feFlood flood-opacity="0" result="BackgroundImageFix"/>
<feColorMatrix in="SourceAlpha" type="matrix" values="0 0 0 0 0 0 0 0 0 0 0 0 0 0 0 0 0 0 127 0" result="hardAlpha"/>
<feOffset dy="2"/>
<feGaussianBlur stdDeviation="2"/>
<feComposite in2="hardAlpha" operator="out"/>
<feColorMatrix type="matrix" values="0 0 0 0 0 0 0 0 0 0 0 0 0 0 0 0 0 0 1 0"/>
<feBlend mode="normal" in2="BackgroundImageFix" result="effect1_dropShadow_473_6985"/>
<feBlend mode="normal" in="SourceGraphic" in2="effect1_dropShadow_473_6985" result="shape"/>
</filter>
<clipPath id="clip0_473_6985">
<rect width="30" height="16" fill="white" transform="matrix(-1 0 0 1 34 10)"/>
</clipPath>
</defs>
</svg>
