<svg width="38" height="36" viewBox="0 0 38 36" fill="none" xmlns="http://www.w3.org/2000/svg">
<g clip-path="url(#clip0_473_6989)" filter="url(#filter0_d_473_6989)">
<path d="M33.9998 25.313C33.8057 25.8001 33.4526 26.0003 32.9274 26.0003C23.6421 25.9932 14.3568 25.9955 5.07143 25.9947C4.32701 25.9947 3.99902 25.663 3.99902 24.9182C3.99981 20.3086 3.99981 15.6982 3.99981 11.0878C3.99981 10.325 4.32388 10.0018 5.091 10.0011C8.06869 10.0011 11.0472 9.99869 14.0249 10.0011C16.19 10.0034 18.3294 10.2217 20.4241 10.8002C22.9423 11.4953 25.2249 12.6491 27.2327 14.338C29.8284 16.5202 31.6468 19.2715 32.9939 22.3608C33.3571 23.1946 33.6656 24.0529 33.9998 24.8993C33.9998 25.0372 33.9998 25.1743 33.9998 25.3123V25.313ZM30.5916 21.4372C29.4268 19.1824 27.9239 17.1909 25.9528 15.5792C23.8988 13.899 21.5575 12.8366 18.9798 12.2755C17.4088 11.9335 15.819 11.7861 14.2135 11.7853C11.48 11.7853 8.74658 11.7853 6.01311 11.7853C5.94501 11.7853 5.87769 11.7924 5.78532 11.7979C5.78532 14.1535 5.78532 16.5037 5.78532 18.8963C8.85225 18.8963 11.9137 18.8963 14.9994 18.8963V16.6416C14.907 16.7259 14.8327 16.7945 14.7575 16.8615C14.3787 17.1988 13.855 17.1893 13.5168 16.8402C13.1857 16.4989 13.1654 15.9748 13.5082 15.6155C14.0961 14.9992 14.6973 14.3939 15.3094 13.8013C15.6624 13.4592 16.1728 13.4703 16.5251 13.8155C17.127 14.405 17.7211 15.0023 18.3059 15.6092C18.6409 15.9567 18.6307 16.5005 18.3098 16.8355C17.9724 17.1877 17.4479 17.2003 17.0706 16.8638C16.9932 16.7953 16.9204 16.7212 16.8069 16.6132C16.8069 17.4746 16.8069 18.2745 16.8069 19.1083C17.235 19.1879 17.6726 19.2644 18.1086 19.3503C21.5599 20.0296 24.6065 21.5183 27.1716 23.9622C27.354 24.1364 27.5301 24.2199 27.7861 24.2168C29.0159 24.2042 30.2464 24.2113 31.4761 24.2113C31.5826 24.2113 31.689 24.2113 31.8988 24.2113C31.4433 23.2388 31.0487 22.3214 30.5916 21.4364V21.4372Z" fill="#00CCB8"/>
</g>
<defs>
<filter id="filter0_d_473_6989" x="0" y="8" width="38" height="24" filterUnits="userSpaceOnUse" color-interpolation-filters="sRGB">
<feFlood flood-opacity="0" result="BackgroundImageFix"/>
<feColorMatrix in="SourceAlpha" type="matrix" values="0 0 0 0 0 0 0 0 0 0 0 0 0 0 0 0 0 0 127 0" result="hardAlpha"/>
<feOffset dy="2"/>
<feGaussianBlur stdDeviation="2"/>
<feComposite in2="hardAlpha" operator="out"/>
<feColorMatrix type="matrix" values="0 0 0 0 0 0 0 0 0 0 0 0 0 0 0 0 0 0 1 0"/>
<feBlend mode="normal" in2="BackgroundImageFix" result="effect1_dropShadow_473_6989"/>
<feBlend mode="normal" in="SourceGraphic" in2="effect1_dropShadow_473_6989" result="shape"/>
</filter>
<clipPath id="clip0_473_6989">
<rect width="30" height="16" fill="white" transform="translate(4 10)"/>
</clipPath>
</defs>
</svg>
