<svg width="62" height="65" viewBox="0 0 62 65" fill="none" xmlns="http://www.w3.org/2000/svg">
<g id="Vector" filter="url(#filter0_d_3006_475)">
<path d="M31 35.3684C26.0275 35.3684 22 37.3468 22 39.7895V42H40V39.7895C40 37.3468 35.9725 35.3684 31 35.3684ZM26.5 28.7368C26.5 29.9094 26.9741 31.0339 27.818 31.863C28.6619 32.6921 29.8065 33.1579 31 33.1579C32.1935 33.1579 33.3381 32.6921 34.182 31.863C35.0259 31.0339 35.5 29.9094 35.5 28.7368M30.4375 21C30.1 21 29.875 21.2321 29.875 21.5526V24.8684H28.75V22.1053C28.75 22.1053 26.2188 23.0558 26.2188 26.25C26.2188 26.25 25.375 26.4047 25.375 27.6316H36.625C36.5687 26.4047 35.7812 26.25 35.7812 26.25C35.7812 23.0558 33.25 22.1053 33.25 22.1053V24.8684H32.125V21.5526C32.125 21.2321 31.9113 21 31.5625 21H30.4375Z" fill="#69C9FF"/>
</g>
<defs>
<filter id="filter0_d_3006_475" x="0" y="0" width="62" height="65" filterUnits="userSpaceOnUse" color-interpolation-filters="sRGB">
<feFlood flood-opacity="0" result="BackgroundImageFix"/>
<feColorMatrix in="SourceAlpha" type="matrix" values="0 0 0 0 0 0 0 0 0 0 0 0 0 0 0 0 0 0 127 0" result="hardAlpha"/>
<feOffset dy="1"/>
<feGaussianBlur stdDeviation="11"/>
<feComposite in2="hardAlpha" operator="out"/>
<feColorMatrix type="matrix" values="0 0 0 0 0.411765 0 0 0 0 0.788235 0 0 0 0 1 0 0 0 0.25 0"/>
<feBlend mode="normal" in2="BackgroundImageFix" result="effect1_dropShadow_3006_475"/>
<feBlend mode="normal" in="SourceGraphic" in2="effect1_dropShadow_3006_475" result="shape"/>
</filter>
</defs>
</svg>
