<svg width="16" height="16" viewBox="0 0 16 16" fill="none" xmlns="http://www.w3.org/2000/svg">
<g id="Frame">
<path id="Vector" d="M2 7.33337H4C4.35362 7.33337 4.69276 7.47385 4.94281 7.7239C5.19286 7.97395 5.33333 8.31309 5.33333 8.66671V10.6667C5.33333 11.0203 5.19286 11.3595 4.94281 11.6095C4.69276 11.8596 4.35362 12 4 12H3.33333C2.97971 12 2.64057 11.8596 2.39052 11.6095C2.14048 11.3595 2 11.0203 2 10.6667V7.33337ZM2 7.33337C2 6.54544 2.15519 5.76523 2.45672 5.03727C2.75825 4.30932 3.20021 3.64788 3.75736 3.09073C4.31451 2.53358 4.97595 2.09163 5.7039 1.7901C6.43185 1.48857 7.21207 1.33337 8 1.33337C8.78793 1.33337 9.56815 1.48857 10.2961 1.7901C11.0241 2.09163 11.6855 2.53358 12.2426 3.09073C12.7998 3.64788 13.2417 4.30932 13.5433 5.03727C13.8448 5.76523 14 6.54544 14 7.33337M14 7.33337V10.6667C14 11.0203 13.8595 11.3595 13.6095 11.6095C13.3594 11.8596 13.0203 12 12.6667 12H12C11.6464 12 11.3072 11.8596 11.0572 11.6095C10.8071 11.3595 10.6667 11.0203 10.6667 10.6667V8.66671C10.6667 8.31309 10.8071 7.97395 11.0572 7.7239C11.3072 7.47385 11.6464 7.33337 12 7.33337H14Z" stroke="#00CCB8" stroke-width="1.33333" stroke-linecap="round" stroke-linejoin="round"/>
<path id="Vector_2" d="M14 10.6666V12C14 12.7072 13.719 13.3855 13.219 13.8856C12.7189 14.3857 12.0406 14.6666 11.3333 14.6666H8" stroke="#00CCB8" stroke-width="1.33333" stroke-linecap="round" stroke-linejoin="round"/>
</g>
</svg>
