<svg width="16" height="17" viewBox="0 0 16 17" fill="none" xmlns="http://www.w3.org/2000/svg">
<path d="M8.14667 1.83337H7.85333C7.49971 1.83337 7.16057 1.97385 6.91053 2.2239C6.66048 2.47395 6.52 2.81309 6.52 3.16671V3.28671C6.51976 3.52052 6.45804 3.75017 6.34103 3.9526C6.22401 4.15503 6.05583 4.32313 5.85333 4.44004L5.56667 4.60671C5.36398 4.72373 5.13405 4.78534 4.9 4.78534C4.66595 4.78534 4.43603 4.72373 4.23333 4.60671L4.13333 4.55337C3.82738 4.37688 3.46389 4.329 3.12267 4.42025C2.78145 4.51149 2.49037 4.7344 2.31333 5.04004L2.16667 5.29337C1.99018 5.59933 1.9423 5.96282 2.03354 6.30404C2.12478 6.64526 2.34769 6.93634 2.65333 7.11337L2.75333 7.18004C2.95485 7.29638 3.12241 7.46343 3.23937 7.66459C3.35632 7.86576 3.4186 8.09402 3.42 8.32671V8.66671C3.42093 8.90165 3.35977 9.13268 3.2427 9.33638C3.12563 9.54008 2.95681 9.70924 2.75333 9.82671L2.65333 9.88671C2.34769 10.0637 2.12478 10.3548 2.03354 10.696C1.9423 11.0373 1.99018 11.4008 2.16667 11.7067L2.31333 11.96C2.49037 12.2657 2.78145 12.4886 3.12267 12.5798C3.46389 12.6711 3.82738 12.6232 4.13333 12.4467L4.23333 12.3934C4.43603 12.2763 4.66595 12.2147 4.9 12.2147C5.13405 12.2147 5.36398 12.2763 5.56667 12.3934L5.85333 12.56C6.05583 12.6769 6.22401 12.8451 6.34103 13.0475C6.45804 13.2499 6.51976 13.4796 6.52 13.7134V13.8334C6.52 14.187 6.66048 14.5261 6.91053 14.7762C7.16057 15.0262 7.49971 15.1667 7.85333 15.1667H8.14667C8.50029 15.1667 8.83943 15.0262 9.08948 14.7762C9.33953 14.5261 9.48 14.187 9.48 13.8334V13.7134C9.48024 13.4796 9.54196 13.2499 9.65898 13.0475C9.77599 12.8451 9.94418 12.6769 10.1467 12.56L10.4333 12.3934C10.636 12.2763 10.866 12.2147 11.1 12.2147C11.3341 12.2147 11.564 12.2763 11.7667 12.3934L11.8667 12.4467C12.1726 12.6232 12.5361 12.6711 12.8773 12.5798C13.2186 12.4886 13.5096 12.2657 13.6867 11.96L13.8333 11.7C14.0098 11.3941 14.0577 11.0306 13.9665 10.6894C13.8752 10.3482 13.6523 10.0571 13.3467 9.88004L13.2467 9.82671C13.0432 9.70924 12.8744 9.54008 12.7573 9.33638C12.6402 9.13268 12.5791 8.90165 12.58 8.66671V8.33337C12.5791 8.09843 12.6402 7.86741 12.7573 7.6637C12.8744 7.46 13.0432 7.29085 13.2467 7.17337L13.3467 7.11337C13.6523 6.93634 13.8752 6.64526 13.9665 6.30404C14.0577 5.96282 14.0098 5.59933 13.8333 5.29337L13.6867 5.04004C13.5096 4.7344 13.2186 4.51149 12.8773 4.42025C12.5361 4.329 12.1726 4.37688 11.8667 4.55337L11.7667 4.60671C11.564 4.72373 11.3341 4.78534 11.1 4.78534C10.866 4.78534 10.636 4.72373 10.4333 4.60671L10.1467 4.44004C9.94418 4.32313 9.77599 4.15503 9.65898 3.9526C9.54196 3.75017 9.48024 3.52052 9.48 3.28671V3.16671C9.48 2.81309 9.33953 2.47395 9.08948 2.2239C8.83943 1.97385 8.50029 1.83337 8.14667 1.83337Z" stroke="white" stroke-width="1.33333" stroke-linecap="round" stroke-linejoin="round"/>
<path d="M8 10.5C9.10457 10.5 10 9.60457 10 8.5C10 7.39543 9.10457 6.5 8 6.5C6.89543 6.5 6 7.39543 6 8.5C6 9.60457 6.89543 10.5 8 10.5Z" stroke="white" stroke-width="1.33333" stroke-linecap="round" stroke-linejoin="round"/>
</svg>
