<svg width="16" height="17" viewBox="0 0 16 17" fill="none" xmlns="http://www.w3.org/2000/svg">
<path d="M8 8.5H8.00667" stroke="white" stroke-opacity="0.3" stroke-width="1.33333" stroke-linecap="round" stroke-linejoin="round"/>
<path fill-rule="evenodd" clip-rule="evenodd" d="M5.25243 1.75245C5.6275 1.37738 6.13621 1.16666 6.66664 1.16666H9.33331C9.86374 1.16666 10.3724 1.37738 10.7475 1.75245C11.1226 2.12752 11.3333 2.63623 11.3333 3.16666V3.83333H13.3333C14.4379 3.83333 15.3333 4.72876 15.3333 5.83333V9.15612C15.3334 9.16275 15.3334 9.16937 15.3333 9.17599V12.5C15.3333 13.6046 14.4379 14.5 13.3333 14.5H2.66664C1.56207 14.5 0.666639 13.6046 0.666639 12.5V9.17597C0.66654 9.16936 0.66654 9.16275 0.666639 9.15614V5.83333C0.666639 4.72876 1.56207 3.83333 2.66664 3.83333H4.66664V3.16666C4.66664 2.63623 4.87735 2.12752 5.25243 1.75245ZM5.99997 3.83333H9.99997V3.16666C9.99997 2.98985 9.92973 2.82028 9.80471 2.69526C9.67969 2.57023 9.51012 2.5 9.33331 2.5H6.66664C6.48983 2.5 6.32026 2.57023 6.19523 2.69526C6.07021 2.82028 5.99997 2.98985 5.99997 3.16666V3.83333ZM1.99997 10.3378V12.5C1.99997 12.8682 2.29845 13.1667 2.66664 13.1667H13.3333C13.7015 13.1667 14 12.8682 14 12.5V10.3378C12.1584 11.3183 10.0986 11.8355 7.99997 11.8355C5.90138 11.8355 3.84158 11.3183 1.99997 10.3378ZM14 8.80135C12.1982 9.91213 10.1212 10.5022 7.99997 10.5022C5.87872 10.5022 3.8017 9.91213 1.99997 8.80135V5.83333C1.99997 5.46514 2.29845 5.16667 2.66664 5.16667H13.3333C13.7015 5.16667 14 5.46514 14 5.83333V8.80135Z" fill="white" fill-opacity="0.3"/>
</svg>
