<svg width="16" height="17" viewBox="0 0 16 17" fill="none" xmlns="http://www.w3.org/2000/svg">
<path d="M2 7.83333L14 4.5V12.5L2 9.83333V7.83333Z" stroke="white" stroke-width="1.33333" stroke-linecap="round" stroke-linejoin="round"/>
<path d="M7.73332 11.7C7.66328 11.9539 7.54392 12.1915 7.38205 12.3992C7.22018 12.607 7.01898 12.7808 6.78993 12.9108C6.56088 13.0408 6.30847 13.1244 6.0471 13.1569C5.78574 13.1894 5.52054 13.17 5.26665 13.1C5.01276 13.0299 4.77515 12.9106 4.56739 12.7487C4.35963 12.5868 4.18579 12.3856 4.05578 12.1566C3.92578 11.9275 3.84217 11.6751 3.80972 11.4138C3.77726 11.1524 3.79661 10.8872 3.86665 10.6333" stroke="white" stroke-width="1.33333" stroke-linecap="round" stroke-linejoin="round"/>
</svg>
