<svg width="14" height="13" viewBox="0 0 14 13" fill="none" xmlns="http://www.w3.org/2000/svg">
<path d="M-6.10352e-05 8.67036C0.0638378 8.45681 0.101498 8.2306 0.196353 8.03195C0.54399 7.30313 1.13067 6.88843 1.93238 6.84381C2.50391 6.81192 3.08082 6.82191 3.65178 6.86304C3.88544 6.87969 3.99569 6.83998 4.13102 6.64283C4.51036 6.09018 5.05639 5.79429 5.72849 5.78455C6.59353 5.77206 7.45955 5.76365 8.32401 5.79012C9.02756 5.8116 9.57012 6.16061 9.94242 6.75972C10.0169 6.87894 10.0831 6.91399 10.2113 6.87245C10.2834 6.84905 10.3639 6.84289 10.4405 6.84306C11.0321 6.84481 11.6271 6.81059 12.2144 6.86313C13.1756 6.94913 13.9576 7.808 13.9845 8.77576C14.0062 9.55395 14.0033 10.3334 13.9876 11.1118C13.9736 11.8044 13.4661 12.299 12.7764 12.3301C12.7401 12.3317 12.7036 12.3318 12.6671 12.3318C8.88729 12.3318 5.1071 12.3323 1.32659 12.3334C0.883763 12.3334 0.518082 12.1872 0.243946 11.8293C0.107044 11.6507 0.0474493 11.4415 2.18162e-05 11.2269L-6.10352e-05 8.67036ZM4.55861 11.4986H9.42676C9.42949 11.469 9.43322 11.447 9.43322 11.425C9.43322 10.2302 9.44149 9.03518 9.42982 7.84038C9.42254 7.11056 8.89521 6.6082 8.15797 6.6037C7.38423 6.59879 6.61016 6.59454 5.83675 6.6082C5.64216 6.61161 5.43209 6.64924 5.2581 6.73241C4.77572 6.96278 4.5577 7.3729 4.55828 7.90632C4.55944 9.05525 4.55944 10.2044 4.55828 11.3537L4.55861 11.4986ZM3.7386 11.4996V7.97784C3.7386 7.66604 3.7386 7.66146 3.41787 7.65763C2.97201 7.65281 2.52607 7.65295 2.08005 7.65805C1.97112 7.65809 1.86265 7.67208 1.75724 7.69968C1.17089 7.86136 0.823671 8.32243 0.82094 8.94202C0.817877 9.63304 0.819948 10.3241 0.820362 11.0156C0.820362 11.3562 0.971002 11.5068 1.31318 11.5068C2.07318 11.5074 2.83315 11.5074 3.59309 11.5068C3.6368 11.5067 3.68083 11.5026 3.7386 11.4996ZM10.2586 11.4922C10.2823 11.4996 10.2909 11.5047 10.2996 11.5047C11.1278 11.5047 11.956 11.5082 12.7842 11.5028C13.0091 11.5014 13.1699 11.3241 13.171 11.0889C13.1742 10.3562 13.1776 9.62405 13.1701 8.89173C13.1634 8.23118 12.6676 7.70559 12.0657 7.6762C11.5303 7.65031 10.9929 7.66529 10.4563 7.66604C10.3901 7.66604 10.3239 7.68927 10.2586 7.70159V11.4922Z" fill="white" fill-opacity="0.3"/>
<path d="M6.99983 0.666632C8.3417 0.669796 9.43022 1.76711 9.42823 3.11493C9.42633 4.45993 8.32581 5.56465 6.99246 5.56016C5.65398 5.55558 4.56099 4.45169 4.56397 3.10761C4.56695 1.75903 5.66018 0.663552 6.99983 0.666632ZM6.99759 1.49086C6.10574 1.49003 5.38357 2.21611 5.38357 3.11269C5.38414 4.00053 6.10367 4.72785 6.98758 4.73501C7.87148 4.74217 8.60624 4.00852 8.60814 3.1156C8.60863 2.90252 8.56734 2.69143 8.48663 2.49442C8.40591 2.29741 8.28737 2.11834 8.13778 1.96746C7.98818 1.81659 7.81047 1.69687 7.61483 1.61516C7.41918 1.53345 7.20943 1.49136 6.99759 1.49128V1.49086Z" fill="white" fill-opacity="0.3"/>
<path d="M0.912796 4.76759C0.916852 3.75603 1.74596 2.92938 2.74484 2.94104C3.75 2.9527 4.56198 3.77418 4.55751 4.77475C4.55296 5.78406 3.72153 6.61395 2.72431 6.60396C1.72295 6.59405 0.90874 5.76857 0.912796 4.76759ZM2.75229 3.76785C2.20857 3.7512 1.75788 4.18804 1.7352 4.75327C1.7136 5.29035 2.15957 5.75583 2.71678 5.77798C3.24949 5.79913 3.7111 5.35113 3.73569 4.78915C3.75911 4.2539 3.30718 3.78459 2.75229 3.76785Z" fill="white" fill-opacity="0.3"/>
<path d="M11.2525 2.94095C12.254 2.93504 13.0828 3.76576 13.0795 4.77258C13.0762 5.77939 12.2624 6.59871 11.2629 6.6042C10.2635 6.6097 9.43368 5.77597 9.43475 4.76983C9.43575 3.76568 10.25 2.94686 11.2525 2.94095ZM11.2389 3.76785C10.6838 3.7855 10.2319 4.25572 10.2567 4.79006C10.2827 5.35287 10.7444 5.80003 11.2765 5.77781C11.8344 5.75441 12.2797 5.2886 12.2569 4.7521C12.2329 4.18637 11.7822 3.75061 11.2389 3.76785Z" fill="white" fill-opacity="0.3"/>
</svg>
