<svg width="24" height="25" viewBox="0 0 24 25" fill="none" xmlns="http://www.w3.org/2000/svg">
<path d="M10.4998 8.251C10.4996 7.26531 10.7528 6.29611 11.2351 5.43646C11.7174 4.57681 12.4125 3.85557 13.2538 3.34198C14.0952 2.8284 15.0544 2.53971 16.0394 2.50364C17.0244 2.46757 18.0022 2.68532 18.8788 3.136C18.9838 3.19006 19.0745 3.26814 19.1436 3.36389C19.2127 3.45963 19.2582 3.57033 19.2764 3.68699C19.2946 3.80364 19.2851 3.92295 19.2485 4.03521C19.2119 4.14746 19.1493 4.24949 19.0658 4.333L16.2998 7.1L17.3598 8.16L20.1398 5.382C20.2229 5.29926 20.3241 5.23715 20.4355 5.20063C20.5469 5.16411 20.6653 5.1542 20.7812 5.1717C20.8971 5.1892 21.0073 5.23363 21.1029 5.30141C21.1985 5.36919 21.2769 5.45844 21.3318 5.562C21.85 6.53977 22.0751 7.64632 21.98 8.74884C21.8849 9.85136 21.4737 10.903 20.7957 11.7776C20.1177 12.6522 19.2017 13.3125 18.1576 13.6794C17.1136 14.0463 15.9859 14.1042 14.9098 13.846L7.54483 21.464C7.26643 21.7521 6.93401 21.9824 6.56657 22.142C6.19913 22.3016 5.80385 22.3873 5.4033 22.3941C5.00276 22.4009 4.60479 22.3288 4.23212 22.1818C3.85945 22.0348 3.51938 21.8159 3.23133 21.5375C2.64958 20.9752 2.31501 20.2049 2.30122 19.396C2.28744 18.587 2.59557 17.8057 3.15783 17.224L10.6328 9.49C10.5439 9.08334 10.4993 8.66725 10.4998 8.251ZM16.2498 4.002C15.5857 4.00179 14.9308 4.15723 14.3375 4.45586C13.7443 4.75448 13.2294 5.18797 12.8339 5.72155C12.4385 6.25513 12.1736 6.87396 12.0606 7.5284C11.9475 8.18284 11.9894 8.85466 12.1828 9.49C12.2218 9.61809 12.2257 9.75427 12.1942 9.8844C12.1627 10.0145 12.097 10.1339 12.0038 10.23L4.23683 18.266C4.09533 18.4124 3.98406 18.5853 3.90936 18.7747C3.83467 18.9641 3.79802 19.1664 3.8015 19.37C3.80498 19.5736 3.84853 19.7745 3.92966 19.9613C4.01079 20.148 4.12791 20.317 4.27433 20.4585C4.42075 20.6 4.59361 20.7113 4.78304 20.786C4.97247 20.8607 5.17475 20.8973 5.37835 20.8938C5.58194 20.8903 5.78285 20.8468 5.96961 20.7657C6.15638 20.6845 6.32533 20.5674 6.46683 20.421L14.1428 12.481C14.2407 12.3794 14.3653 12.3076 14.5022 12.2736C14.6391 12.2396 14.7828 12.245 14.9168 12.289C15.6361 12.5268 16.4058 12.568 17.1464 12.4084C17.8869 12.2488 18.5713 11.8941 19.1288 11.3811C19.6862 10.8682 20.0964 10.2155 20.3169 9.49077C20.5374 8.76602 20.5602 7.9955 20.3828 7.259L17.8908 9.752C17.7502 9.89245 17.5596 9.97134 17.3608 9.97134C17.1621 9.97134 16.9715 9.89245 16.8308 9.752L14.7088 7.63C14.5684 7.48937 14.4895 7.29875 14.4895 7.1C14.4895 6.90125 14.5684 6.71062 14.7088 6.57L17.1758 4.103C16.8718 4.03565 16.5613 4.00178 16.2498 4.002Z" fill="#FA5A00"/>
</svg>
