<svg width="16" height="17" viewBox="0 0 16 17" fill="none" xmlns="http://www.w3.org/2000/svg">
<path fill-rule="evenodd" clip-rule="evenodd" d="M14.6666 4.5C14.6666 4.29167 14.5693 4.09531 14.4034 3.96925C14.2375 3.84318 14.0223 3.8019 13.8216 3.85766L1.82155 7.19099C1.533 7.27114 1.33331 7.53386 1.33331 7.83333V9.83333C1.33331 10.1458 1.55033 10.4163 1.85536 10.4841L3.15685 10.7733C3.12131 11.0122 3.11823 11.2553 3.14811 11.4959C3.19135 11.8442 3.30276 12.1805 3.47597 12.4857C3.64919 12.7909 3.88082 13.059 4.15764 13.2746C4.43447 13.4903 4.75106 13.6493 5.08934 13.7427C5.42763 13.836 5.78098 13.8618 6.12923 13.8185C6.47747 13.7753 6.81379 13.6639 7.11898 13.4907C7.42417 13.3174 7.69226 13.0858 7.90793 12.809C8.1124 12.5465 8.26597 12.2483 8.36089 11.9298L13.8554 13.1508C14.0528 13.1947 14.2594 13.1466 14.4171 13.02C14.5749 12.8935 14.6666 12.7022 14.6666 12.5V4.5ZM7.05272 11.6391L4.46502 11.064C4.45818 11.153 4.46023 11.2427 4.47128 11.3316C4.49295 11.5061 4.54877 11.6746 4.63556 11.8275C4.72234 11.9805 4.8384 12.1148 4.9771 12.2228C5.1158 12.3309 5.27442 12.4106 5.44391 12.4573C5.61341 12.5041 5.79045 12.517 5.96494 12.4953C6.13942 12.4737 6.30793 12.4179 6.46084 12.3311C6.61375 12.2443 6.74807 12.1282 6.85613 11.9895C6.93906 11.8831 7.00528 11.7649 7.05272 11.6391ZM2.66665 9.29855V8.34006L13.3333 5.37709V11.6689L2.66665 9.29855Z" fill="white" fill-opacity="0.3"/>
</svg>
