<svg width="16" height="17" viewBox="0 0 16 17" fill="none" xmlns="http://www.w3.org/2000/svg">
<path d="M0.999939 10.6704C1.06384 10.4568 1.1015 10.2306 1.19635 10.032C1.54399 9.30313 2.13067 8.88843 2.93238 8.84381C3.50391 8.81192 4.08082 8.82191 4.65178 8.86304C4.88544 8.87969 4.99569 8.83998 5.13102 8.64283C5.51036 8.09018 6.05639 7.79429 6.72849 7.78454C7.59353 7.77206 8.45955 7.76365 9.32401 7.79012C10.0276 7.8116 10.5701 8.16061 10.9424 8.75972C11.0169 8.87894 11.0831 8.91399 11.2113 8.87245C11.2834 8.84905 11.3639 8.84289 11.4405 8.84306C12.0321 8.84481 12.6271 8.81059 13.2144 8.86312C14.1756 8.94913 14.9576 9.80799 14.9845 10.7758C15.0062 11.5539 15.0033 12.3334 14.9876 13.1118C14.9736 13.8044 14.4661 14.299 13.7764 14.3301C13.7401 14.3317 13.7036 14.3318 13.6671 14.3318C9.88729 14.3318 6.1071 14.3323 2.32659 14.3334C1.88376 14.3334 1.51808 14.1872 1.24395 13.8293C1.10704 13.6507 1.04745 13.4415 1.00002 13.2269L0.999939 10.6704ZM5.55861 13.4986H10.4268C10.4295 13.469 10.4332 13.447 10.4332 13.425C10.4332 12.2302 10.4415 11.0352 10.4298 9.84038C10.4225 9.11056 9.89521 8.60819 9.15797 8.6037C8.38423 8.59879 7.61016 8.59454 6.83675 8.60819C6.64216 8.61161 6.43209 8.64924 6.2581 8.73241C5.77572 8.96278 5.5577 9.3729 5.55828 9.90632C5.55944 11.0552 5.55944 12.2044 5.55828 13.3537L5.55861 13.4986ZM4.7386 13.4996V9.97783C4.7386 9.66604 4.7386 9.66146 4.41787 9.65763C3.97201 9.6528 3.52607 9.65294 3.08005 9.65805C2.97112 9.65809 2.86265 9.67207 2.75724 9.69968C2.17089 9.86136 1.82367 10.3224 1.82094 10.942C1.81788 11.633 1.81995 12.3241 1.82036 13.0156C1.82036 13.3562 1.971 13.5068 2.31318 13.5068C3.07318 13.5074 3.83315 13.5074 4.59309 13.5068C4.6368 13.5067 4.68083 13.5026 4.7386 13.4996ZM11.2586 13.4922C11.2823 13.4996 11.2909 13.5047 11.2996 13.5047C12.1278 13.5047 12.956 13.5082 13.7842 13.5028C14.0091 13.5014 14.1699 13.3241 14.171 13.0889C14.1742 12.3562 14.1776 11.6241 14.1701 10.8917C14.1634 10.2312 13.6676 9.70559 13.0657 9.6762C12.5303 9.65031 11.9929 9.66529 11.4563 9.66604C11.3901 9.66604 11.3239 9.68927 11.2586 9.70159V13.4922Z" fill="white"/>
<path d="M7.99983 2.66665C9.3417 2.66981 10.4302 3.76712 10.4282 5.11495C10.4263 6.45995 9.32581 7.56467 7.99246 7.56017C6.65398 7.55559 5.56099 6.4517 5.56397 5.10762C5.56695 3.75905 6.66018 2.66357 7.99983 2.66665ZM7.99759 3.49088C7.10574 3.49005 6.38357 4.21612 6.38357 5.1127C6.38414 6.00054 7.10367 6.72786 7.98758 6.73502C8.87148 6.74218 9.60624 6.00853 9.60814 5.11561C9.60863 4.90253 9.56734 4.69144 9.48663 4.49443C9.40591 4.29742 9.28737 4.11835 9.13778 3.96748C8.98818 3.81661 8.81047 3.69689 8.61483 3.61518C8.41918 3.53347 8.20943 3.49137 7.99759 3.4913V3.49088Z" fill="white"/>
<path d="M1.9128 6.76757C1.91685 5.75602 2.74596 4.92937 3.74484 4.94102C4.75 4.95268 5.56198 5.77416 5.55751 6.77473C5.55296 7.78404 4.72153 8.61394 3.72431 8.60394C2.72295 8.59404 1.90874 7.76856 1.9128 6.76757ZM3.75229 5.76784C3.20857 5.75119 2.75788 6.18803 2.7352 6.75325C2.7136 7.29033 3.15957 7.75582 3.71678 7.77796C4.24949 7.79911 4.7111 7.35111 4.73569 6.78914C4.75911 6.25388 4.30718 5.78457 3.75229 5.76784Z" fill="white"/>
<path d="M12.2525 4.94101C13.254 4.9351 14.0828 5.76583 14.0795 6.77264C14.0762 7.77945 13.2624 8.59877 12.2629 8.60427C11.2635 8.60976 10.4337 7.77604 10.4348 6.76989C10.4357 5.76574 11.25 4.94693 12.2525 4.94101ZM12.2389 5.76791C11.6838 5.78556 11.2319 6.25579 11.2567 6.79013C11.2827 7.35293 11.7444 7.8001 12.2765 7.77787C12.8344 7.75448 13.2797 7.28866 13.2569 6.75216C13.2329 6.18644 12.7822 5.75068 12.2389 5.76791Z" fill="white"/>
</svg>
