<svg width="16" height="17" viewBox="0 0 16 17" fill="none" xmlns="http://www.w3.org/2000/svg">
<path d="M8.14667 1.83325H7.85333C7.49971 1.83325 7.16057 1.97373 6.91053 2.22378C6.66048 2.47382 6.52 2.81296 6.52 3.16659V3.28659C6.51976 3.5204 6.45804 3.75005 6.34103 3.95248C6.22401 4.15491 6.05583 4.32301 5.85333 4.43992L5.56667 4.60659C5.36398 4.72361 5.13405 4.78522 4.9 4.78522C4.66595 4.78522 4.43603 4.72361 4.23333 4.60659L4.13333 4.55325C3.82738 4.37676 3.46389 4.32888 3.12267 4.42012C2.78145 4.51137 2.49037 4.73428 2.31333 5.03992L2.16667 5.29325C1.99018 5.59921 1.9423 5.96269 2.03354 6.30392C2.12478 6.64514 2.34769 6.93622 2.65333 7.11325L2.75333 7.17992C2.95485 7.29626 3.12241 7.46331 3.23937 7.66447C3.35632 7.86563 3.4186 8.0939 3.42 8.32659V8.66659C3.42093 8.90153 3.35977 9.13255 3.2427 9.33626C3.12563 9.53996 2.95681 9.70911 2.75333 9.82659L2.65333 9.88659C2.34769 10.0636 2.12478 10.3547 2.03354 10.6959C1.9423 11.0371 1.99018 11.4006 2.16667 11.7066L2.31333 11.9599C2.49037 12.2656 2.78145 12.4885 3.12267 12.5797C3.46389 12.671 3.82738 12.6231 4.13333 12.4466L4.23333 12.3933C4.43603 12.2762 4.66595 12.2146 4.9 12.2146C5.13405 12.2146 5.36398 12.2762 5.56667 12.3933L5.85333 12.5599C6.05583 12.6768 6.22401 12.8449 6.34103 13.0474C6.45804 13.2498 6.51976 13.4794 6.52 13.7133V13.8333C6.52 14.1869 6.66048 14.526 6.91053 14.7761C7.16057 15.0261 7.49971 15.1666 7.85333 15.1666H8.14667C8.50029 15.1666 8.83943 15.0261 9.08948 14.7761C9.33953 14.526 9.48 14.1869 9.48 13.8333V13.7133C9.48024 13.4794 9.54196 13.2498 9.65898 13.0474C9.77599 12.8449 9.94418 12.6768 10.1467 12.5599L10.4333 12.3933C10.636 12.2762 10.866 12.2146 11.1 12.2146C11.3341 12.2146 11.564 12.2762 11.7667 12.3933L11.8667 12.4466C12.1726 12.6231 12.5361 12.671 12.8773 12.5797C13.2186 12.4885 13.5096 12.2656 13.6867 11.9599L13.8333 11.6999C14.0098 11.394 14.0577 11.0305 13.9665 10.6893C13.8752 10.348 13.6523 10.057 13.3467 9.87992L13.2467 9.82659C13.0432 9.70911 12.8744 9.53996 12.7573 9.33626C12.6402 9.13255 12.5791 8.90153 12.58 8.66659V8.33325C12.5791 8.09831 12.6402 7.86728 12.7573 7.66358C12.8744 7.45988 13.0432 7.29072 13.2467 7.17325L13.3467 7.11325C13.6523 6.93622 13.8752 6.64514 13.9665 6.30392C14.0577 5.96269 14.0098 5.59921 13.8333 5.29325L13.6867 5.03992C13.5096 4.73428 13.2186 4.51137 12.8773 4.42012C12.5361 4.32888 12.1726 4.37676 11.8667 4.55325L11.7667 4.60659C11.564 4.72361 11.3341 4.78522 11.1 4.78522C10.866 4.78522 10.636 4.72361 10.4333 4.60659L10.1467 4.43992C9.94418 4.32301 9.77599 4.15491 9.65898 3.95248C9.54196 3.75005 9.48024 3.5204 9.48 3.28659V3.16659C9.48 2.81296 9.33953 2.47382 9.08948 2.22378C8.83943 1.97373 8.50029 1.83325 8.14667 1.83325Z" stroke="white" stroke-opacity="0.3" stroke-width="1.33333" stroke-linecap="round" stroke-linejoin="round"/>
<path d="M8 10.5C9.10457 10.5 10 9.60457 10 8.5C10 7.39543 9.10457 6.5 8 6.5C6.89543 6.5 6 7.39543 6 8.5C6 9.60457 6.89543 10.5 8 10.5Z" stroke="white" stroke-opacity="0.3" stroke-width="1.33333" stroke-linecap="round" stroke-linejoin="round"/>
</svg>
