<svg width="16" height="16" viewBox="0 0 16 16" fill="none" xmlns="http://www.w3.org/2000/svg">
<path d="M8 8H8.00667" stroke="white" stroke-width="1.33333" stroke-linecap="round" stroke-linejoin="round"/>
<path fill-rule="evenodd" clip-rule="evenodd" d="M5.25236 1.25245C5.62744 0.877374 6.13614 0.66666 6.66658 0.66666H9.33324C9.86368 0.66666 10.3724 0.877374 10.7475 1.25245C11.1225 1.62752 11.3332 2.13623 11.3332 2.66666V3.33333H13.3332C14.4378 3.33333 15.3332 4.22876 15.3332 5.33333V8.65612C15.3333 8.66275 15.3333 8.66937 15.3332 8.67599V12C15.3332 13.1046 14.4378 14 13.3332 14H2.66658C1.56201 14 0.666578 13.1046 0.666578 12V8.67597C0.666479 8.66936 0.666479 8.66275 0.666578 8.65614V5.33333C0.666578 4.22876 1.56201 3.33333 2.66658 3.33333H4.66658V2.66666C4.66658 2.13623 4.87729 1.62752 5.25236 1.25245ZM5.99991 3.33333H9.99991V2.66666C9.99991 2.48985 9.92967 2.32028 9.80465 2.19526C9.67962 2.07023 9.51006 1.99999 9.33324 1.99999H6.66658C6.48977 1.99999 6.3202 2.07023 6.19517 2.19526C6.07015 2.32028 5.99991 2.48985 5.99991 2.66666V3.33333ZM1.99991 9.83777V12C1.99991 12.3682 2.29839 12.6667 2.66658 12.6667H13.3332C13.7014 12.6667 13.9999 12.3682 13.9999 12V9.83777C12.1583 10.8183 10.0985 11.3355 7.99991 11.3355C5.90132 11.3355 3.84151 10.8183 1.99991 9.83777ZM13.9999 8.30135C12.1982 9.41212 10.1212 10.0022 7.99991 10.0022C5.87865 10.0022 3.80164 9.41212 1.99991 8.30135V5.33333C1.99991 4.96514 2.29839 4.66667 2.66658 4.66667H13.3332C13.7014 4.66667 13.9999 4.96514 13.9999 5.33333V8.30135Z" fill="white"/>
</svg>
