<svg width="24" height="21" viewBox="0 0 24 21" fill="none" xmlns="http://www.w3.org/2000/svg">
<g clip-path="url(#clip0_12_751)">
<path d="M23.9749 10.37C23.3791 8.77782 22.7884 7.18377 22.2027 5.58782C22.1537 5.4543 22.0772 5.39798 21.9418 5.36507C20.9077 5.09296 19.8597 4.85882 18.8482 4.51774C16.5905 3.75393 14.5097 2.65538 12.6892 1.08727C12.4647 0.897426 12.2433 0.698089 12.0163 0.500019C11.9348 0.571527 11.8696 0.626577 11.8062 0.685428C11.0369 1.39269 10.2038 2.02593 9.31779 2.5769C7.07834 3.95327 4.65952 4.85502 2.09208 5.36887C2.03167 5.37483 1.97446 5.39913 1.92801 5.43856C1.88155 5.47798 1.84801 5.53068 1.83182 5.58972C1.55296 6.35921 1.26972 7.12725 0.982077 7.89379C0.657227 8.76264 0.327358 9.63022 0 10.4978V10.5927C0.0446777 10.6184 0.0866958 10.6485 0.125425 10.6826C0.945074 11.5514 1.7666 12.419 2.57685 13.2967C2.66386 13.4008 2.71357 13.5315 2.71795 13.6676C2.72986 14.4965 2.72234 15.3249 2.72422 16.1539C2.73112 18.6047 4.58866 20.4893 7.02001 20.4943C10.3521 20.5015 13.6845 20.5015 17.017 20.4943C19.4465 20.4886 21.299 18.6041 21.3065 16.1482C21.3065 15.3198 21.3009 14.4908 21.3134 13.6619C21.3192 13.5258 21.3705 13.3958 21.4589 13.2929C22.2641 12.4209 23.0765 11.5561 23.8959 10.6984C23.995 10.5953 24.0288 10.513 23.9749 10.37ZM19.7067 17.2132C19.289 18.3396 18.2436 19.0642 17.017 19.0667C15.1155 19.0711 13.2147 19.0667 11.3102 19.0667C9.86778 19.0667 8.43104 19.0711 6.99179 19.0667C6.41665 19.0703 5.85408 18.897 5.37903 18.5698C4.90399 18.2426 4.53903 17.7771 4.33279 17.2353C4.29955 17.1486 4.27761 17.0575 4.24249 16.943H19.7788C19.755 17.0423 19.7381 17.1303 19.7067 17.2132ZM19.8767 15.4806H4.14528V13.8909H19.8779L19.8767 15.4806ZM22.2459 10.3757C21.6295 11.0154 21.0287 11.6704 20.4135 12.3102C20.3323 12.3876 20.226 12.4326 20.1143 12.4367C14.7165 12.4431 9.31863 12.4431 3.92077 12.4367C3.80934 12.4325 3.70323 12.3875 3.62226 12.3102C3.00141 11.6641 2.39435 11.0047 1.77413 10.3586C1.66187 10.2415 1.65685 10.151 1.71141 10.008C2.10441 8.96176 2.49239 7.91361 2.87536 6.86356C2.89308 6.79689 2.92959 6.73683 2.98046 6.69067C3.03133 6.64451 3.09437 6.61422 3.16195 6.60348C6.21102 5.8884 9.04123 4.6829 11.5522 2.76801C11.7015 2.65411 11.8482 2.53577 11.9962 2.41997C12.0019 2.41554 12.0113 2.41997 11.9962 2.41997C12.5832 2.83509 13.1445 3.2635 13.7353 3.64509C15.8882 5.03727 18.2292 5.9789 20.7145 6.56045C20.981 6.62373 21.1209 6.73195 21.2162 6.99583C21.568 7.9982 21.9418 8.99361 22.3181 9.98712C22.3764 10.1466 22.3701 10.2466 22.2459 10.3757Z" fill="#00A6FB"/>
<path d="M14.4558 6.62308C14.4558 6.556 14.4558 6.48956 14.4558 6.42248C14.4558 6.3554 14.3824 6.2725 14.3197 6.23263C13.5916 5.7441 12.8573 5.26443 12.1292 4.77717C12.0857 4.74314 12.0325 4.72406 11.9774 4.72275C11.9226 4.72398 11.8695 4.74306 11.8263 4.77717C11.0982 5.26633 10.3638 5.746 9.63513 6.23263C9.57242 6.2744 9.49778 6.3592 9.49904 6.42248C9.50029 6.48576 9.49904 6.5598 9.50281 6.62878C9.49528 6.8357 9.50281 7.0439 9.50281 7.25083V7.26855C9.50281 7.34385 9.50281 7.41853 9.50281 7.4932V7.51282C9.50281 7.66786 9.50281 7.82352 9.50281 7.97856C9.51264 8.27883 9.56069 8.57659 9.64578 8.86449C9.64578 8.87272 9.65017 8.88096 9.65268 8.88918C9.95182 10.0067 10.7451 10.7281 11.8683 11.0996C11.9019 11.1094 11.9369 11.113 11.9718 11.1103C12.0066 11.113 12.0417 11.1094 12.0753 11.0996C13.1947 10.7288 13.9874 10.0112 14.2877 8.89867C14.3786 8.59986 14.43 8.29028 14.4408 7.97793C14.4458 7.83048 14.4452 7.68304 14.4408 7.53496C14.4408 7.41979 14.4408 7.30462 14.4408 7.18944V7.15907C14.4408 6.98062 14.4477 6.80153 14.4408 6.62308H14.4558ZM13.0417 7.83554C13.0348 7.91781 13.026 8.00894 13.0159 8.11082C12.957 8.70503 12.661 9.15559 12.1812 9.49794C12.1303 9.53743 12.0704 9.56333 12.0069 9.57324H11.9831H11.9781H11.9542C11.8909 9.56347 11.8311 9.53755 11.7805 9.49794C11.3001 9.15559 11.0041 8.70503 10.9458 8.11082C10.9358 8.00831 10.9264 7.91717 10.9201 7.83491C10.8681 7.22741 10.9201 7.11414 11.4124 6.77685C11.4805 6.73002 11.5579 6.67792 11.6444 6.62055C11.8112 6.50917 11.9041 6.46108 11.9812 6.44969C12.0583 6.46108 12.1499 6.50917 12.3167 6.62055C12.4039 6.67877 12.4816 6.73002 12.55 6.77748C13.041 7.11414 13.0937 7.22741 13.0417 7.83554Z" fill="#00A6FB"/>
</g>
<defs>
<clipPath id="clip0_12_751">
<rect width="24" height="20" fill="white" transform="translate(0 0.5)"/>
</clipPath>
</defs>
</svg>
