<svg width="24" height="25" viewBox="0 0 24 25" fill="none" xmlns="http://www.w3.org/2000/svg">
<path d="M19 14.5V8L14 4.5L9 8V9.5H7V7L14 2L21 7V14.5H19ZM14.5 8.5H15.5V7.5H14.5V8.5ZM12.5 8.5H13.5V7.5H12.5V8.5ZM14.5 10.5H15.5V9.5H14.5V10.5ZM12.5 10.5H13.5V9.5H12.5V10.5ZM7 19L13.95 20.9L19.9 19.05C19.8167 18.9 19.6957 18.7707 19.537 18.662C19.3783 18.5533 19.1993 18.4993 19 18.5H13.95C13.5 18.5 13.1417 18.4833 12.875 18.45C12.6083 18.4167 12.3333 18.35 12.05 18.25L9.725 17.475L10.275 15.525L12.3 16.2C12.5833 16.2833 12.9167 16.35 13.3 16.4C13.6833 16.45 14.25 16.4833 15 16.5C15 16.3167 14.946 16.1417 14.838 15.975C14.73 15.8083 14.6007 15.7 14.45 15.65L8.6 13.5H7V19ZM1 22.5V11.5H8.6C8.71667 11.5 8.83333 11.5127 8.95 11.538C9.06667 11.5633 9.175 11.5923 9.275 11.625L15.15 13.8C15.7 14 16.146 14.35 16.488 14.85C16.83 15.35 17.0007 15.9 17 16.5H19C19.8333 16.5 20.5417 16.775 21.125 17.325C21.7083 17.875 22 18.6 22 19.5V20.5L14 23L7 21.05V22.5H1ZM3 20.5H5V13.5H3V20.5Z" fill="#B5B5B5"/>
</svg>
