<svg width="16" height="16" viewBox="0 0 16 16" fill="none" xmlns="http://www.w3.org/2000/svg">
<g clip-path="url(#clip0_313_2465)">
<path d="M1.33301 14.6667L1.99967 14H3.99967L9.99967 8" stroke="#00CCB8" stroke-width="1.33333" stroke-linecap="round" stroke-linejoin="round"/>
<path d="M2 14V12L8 6" stroke="#00CCB8" stroke-width="1.33333" stroke-linecap="round" stroke-linejoin="round"/>
<path d="M10.0002 3.99997L12.2669 1.73331C12.5321 1.46809 12.8918 1.31909 13.2669 1.31909C13.642 1.31909 14.0017 1.46809 14.2669 1.73331C14.5321 1.99852 14.6811 2.35823 14.6811 2.73331C14.6811 3.10838 14.5321 3.46809 14.2669 3.73331L12.0002 5.99997L12.2669 6.26664C12.3982 6.39796 12.5024 6.55386 12.5734 6.72544C12.6445 6.89702 12.6811 7.08092 12.6811 7.26664C12.6811 7.45236 12.6445 7.63625 12.5734 7.80783C12.5024 7.97942 12.3982 8.13532 12.2669 8.26664C12.1356 8.39796 11.9797 8.50213 11.8081 8.5732C11.6365 8.64427 11.4526 8.68085 11.2669 8.68085C11.0812 8.68085 10.8973 8.64427 10.7257 8.5732C10.5541 8.50213 10.3982 8.39796 10.2669 8.26664L7.73355 5.73331C7.60223 5.60198 7.49806 5.44608 7.42699 5.2745C7.35592 5.10292 7.31934 4.91902 7.31934 4.73331C7.31934 4.54759 7.35592 4.36369 7.42699 4.19211C7.49806 4.02053 7.60223 3.86463 7.73355 3.73331C7.86487 3.60198 8.02077 3.49781 8.19235 3.42674C8.36393 3.35567 8.54783 3.31909 8.73355 3.31909C8.91927 3.31909 9.10317 3.35567 9.27475 3.42674C9.44633 3.49781 9.60223 3.60198 9.73355 3.73331L10.0002 3.99997Z" stroke="#00CCB8" stroke-width="1.33333" stroke-linecap="round" stroke-linejoin="round"/>
</g>
<defs>
<clipPath id="clip0_313_2465">
<rect width="16" height="16" fill="white"/>
</clipPath>
</defs>
</svg>
