<svg width="16" height="16" viewBox="0 0 16 16" fill="none" xmlns="http://www.w3.org/2000/svg">
<path fill-rule="evenodd" clip-rule="evenodd" d="M2.66668 7.33337C2.66668 4.75605 4.75601 2.66671 7.33334 2.66671C9.91067 2.66671 12 4.75605 12 7.33337C12 9.9107 9.91067 12 7.33334 12C4.75601 12 2.66668 9.9107 2.66668 7.33337ZM7.33334 1.33337C4.01963 1.33337 1.33334 4.01967 1.33334 7.33337C1.33334 10.6471 4.01963 13.3334 7.33334 13.3334C8.75 13.3334 10.052 12.8424 11.0784 12.0213L13.5286 14.4715C13.7889 14.7318 14.211 14.7318 14.4714 14.4715C14.7317 14.2111 14.7317 13.789 14.4714 13.5287L12.0212 11.0785C12.8424 10.0521 13.3333 8.75007 13.3333 7.33337C13.3333 4.01967 10.6471 1.33337 7.33334 1.33337Z" fill="white" fill-opacity="0.5"/>
</svg>
