<svg width="24" height="25" viewBox="0 0 24 25" fill="none" xmlns="http://www.w3.org/2000/svg">
<g clip-path="url(#clip0_15_4763)">
<path d="M0 16.2206C0.10954 15.8545 0.174101 15.4667 0.336709 15.1262C0.932654 13.8768 1.93838 13.1658 3.31275 13.0893C4.29251 13.0347 5.28149 13.0518 6.26026 13.1223C6.66082 13.1509 6.84983 13.0828 7.08182 12.7448C7.73211 11.7974 8.66817 11.2902 9.82033 11.2735C11.3032 11.2521 12.7879 11.2376 14.2698 11.283C15.4759 11.3199 16.406 11.9182 17.0442 12.9452C17.1719 13.1496 17.2854 13.2097 17.505 13.1384C17.6288 13.0983 17.7667 13.0878 17.8981 13.0881C18.9122 13.0911 19.9322 13.0324 20.939 13.1225C22.5868 13.2699 23.9274 14.7422 23.9735 16.4012C24.0106 17.7353 24.0057 19.0715 23.9787 20.4059C23.9547 21.5932 23.0848 22.441 21.9024 22.4944C21.8401 22.4971 21.7775 22.4973 21.7151 22.4973C15.2354 22.4973 8.7551 22.4982 2.27424 22.5C1.51512 22.5 0.888242 22.2493 0.418297 21.6359C0.183608 21.3298 0.081446 20.9711 0.00014203 20.6032L0 16.2206ZM7.81483 21.069H16.1602C16.1649 21.0182 16.1713 20.9805 16.1713 20.9429C16.1713 18.8945 16.1855 16.846 16.1654 14.7977C16.153 13.5466 15.249 12.6854 13.9851 12.6777C12.6587 12.6693 11.3318 12.662 10.0059 12.6854C9.67234 12.6913 9.31222 12.7558 9.01396 12.8984C8.18701 13.2933 7.81327 13.9964 7.81426 14.9108C7.81625 16.8804 7.81625 18.8503 7.81426 20.8205L7.81483 21.069ZM6.40911 21.0706V15.0334C6.40911 14.4989 6.40911 14.491 5.85928 14.4845C5.09495 14.4762 4.33049 14.4764 3.56588 14.4852C3.37916 14.4852 3.1932 14.5092 3.01251 14.5565C2.00734 14.8337 1.41211 15.6241 1.40742 16.6863C1.40217 17.8709 1.40572 19.0555 1.40643 20.2409C1.40643 20.8248 1.66467 21.083 2.25125 21.083C3.5541 21.084 4.85691 21.084 6.15967 21.083C6.23458 21.0829 6.31007 21.0757 6.40911 21.0706ZM17.5862 21.058C17.6268 21.0707 17.6415 21.0794 17.6564 21.0794C19.0762 21.0794 20.496 21.0854 21.9158 21.0762C22.3013 21.0737 22.577 20.7699 22.5788 20.3665C22.5843 19.1106 22.5902 17.8555 22.5774 16.6001C22.5659 15.4677 21.716 14.5667 20.6841 14.5163C19.7662 14.4719 18.8449 14.4976 17.9252 14.4989C17.8117 14.4989 17.6982 14.5387 17.5862 14.5598V21.058Z" fill="#00CCB8"/>
<path d="M11.9998 2.50001C14.3001 2.50543 16.1661 4.38653 16.1627 6.69708C16.1595 9.00278 14.2729 10.8966 11.9872 10.8889C9.69262 10.881 7.81894 8.98865 7.82405 6.68452C7.82915 4.37269 9.70326 2.49473 11.9998 2.50001ZM11.9959 3.91297C10.4671 3.91155 9.22906 5.15624 9.22906 6.69323C9.23005 8.21523 10.4635 9.46206 11.9788 9.47434C13.494 9.48661 14.7536 8.22893 14.7569 6.69822C14.7577 6.33294 14.6869 5.97108 14.5486 5.63334C14.4102 5.29561 14.207 4.98864 13.9505 4.73C13.6941 4.47136 13.3895 4.26613 13.0541 4.12606C12.7187 3.98599 12.3591 3.91382 11.9959 3.91369V3.91297Z" fill="#00CCB8"/>
<path d="M1.56491 9.5301C1.57186 7.79601 2.99319 6.37891 4.70554 6.39889C6.42867 6.41887 7.82063 7.82712 7.81297 9.54238C7.80516 11.2726 6.37986 12.6953 4.67035 12.6782C2.95374 12.6612 1.55795 11.2461 1.56491 9.5301ZM4.71831 7.81628C3.78622 7.78773 3.01362 8.5366 2.97474 9.50555C2.93771 10.4263 3.70222 11.2242 4.65744 11.2622C5.57065 11.2984 6.36198 10.5305 6.40413 9.56707C6.44428 8.6495 5.66955 7.84497 4.71831 7.81628Z" fill="#00CCB8"/>
<path d="M19.29 6.39898C21.0069 6.38885 22.4277 7.81294 22.422 9.5389C22.4163 11.2649 21.0213 12.6694 19.3079 12.6788C17.5946 12.6882 16.1721 11.259 16.174 9.53419C16.1757 7.8128 17.5716 6.40911 19.29 6.39898ZM19.2668 7.81651C18.3151 7.84677 17.5405 8.65287 17.5829 9.56887C17.6276 10.5337 18.4191 11.3002 19.3312 11.2621C20.2875 11.222 21.0509 10.4235 21.0119 9.50379C20.9707 8.53398 20.1981 7.78697 19.2668 7.81651Z" fill="#00CCB8"/>
</g>
<defs>
<clipPath id="clip0_15_4763">
<rect width="24" height="24" fill="white" transform="translate(0 0.5)"/>
</clipPath>
</defs>
</svg>
