<svg width="24" height="25" viewBox="0 0 24 25" fill="none" xmlns="http://www.w3.org/2000/svg">
<g clip-path="url(#clip0_12_845)">
<path d="M15 4.5C15.5304 4.5 16.0391 4.71071 16.4142 5.08579C16.7893 5.46086 17 5.96957 17 6.5V7.5H18.52C18.8198 7.50004 19.1157 7.56746 19.3859 7.69728C19.6561 7.8271 19.8936 8.01599 20.081 8.25L21.561 10.101C21.8451 10.4557 21.9999 10.8966 22 11.351V15.5C22 16.0304 21.7893 16.5391 21.4142 16.9142C21.0391 17.2893 20.5304 17.5 20 17.5C20 18.2956 19.6839 19.0587 19.1213 19.6213C18.5587 20.1839 17.7956 20.5 17 20.5C16.2044 20.5 15.4413 20.1839 14.8787 19.6213C14.3161 19.0587 14 18.2956 14 17.5H10C10 17.894 9.9224 18.2841 9.77164 18.6481C9.62087 19.012 9.3999 19.3427 9.12132 19.6213C8.84274 19.8999 8.51203 20.1209 8.14805 20.2716C7.78407 20.4224 7.39397 20.5 7 20.5C6.60603 20.5 6.21593 20.4224 5.85195 20.2716C5.48797 20.1209 5.15726 19.8999 4.87868 19.6213C4.6001 19.3427 4.37913 19.012 4.22836 18.6481C4.0776 18.2841 4 17.894 4 17.5C3.46957 17.5 2.96086 17.2893 2.58579 16.9142C2.21071 16.5391 2 16.0304 2 15.5V6.5C2 5.96957 2.21071 5.46086 2.58579 5.08579C2.96086 4.71071 3.46957 4.5 4 4.5H15ZM7 16.5C6.73478 16.5 6.48043 16.6054 6.29289 16.7929C6.10536 16.9804 6 17.2348 6 17.5C6 17.7652 6.10536 18.0196 6.29289 18.2071C6.48043 18.3946 6.73478 18.5 7 18.5C7.26522 18.5 7.51957 18.3946 7.70711 18.2071C7.89464 18.0196 8 17.7652 8 17.5C8 17.2348 7.89464 16.9804 7.70711 16.7929C7.51957 16.6054 7.26522 16.5 7 16.5ZM17 16.5C16.7348 16.5 16.4804 16.6054 16.2929 16.7929C16.1054 16.9804 16 17.2348 16 17.5C16 17.7652 16.1054 18.0196 16.2929 18.2071C16.4804 18.3946 16.7348 18.5 17 18.5C17.2652 18.5 17.5196 18.3946 17.7071 18.2071C17.8946 18.0196 18 17.7652 18 17.5C18 17.2348 17.8946 16.9804 17.7071 16.7929C17.5196 16.6054 17.2652 16.5 17 16.5ZM15 6.5H4V15.5H4.764C5.03445 15.1969 5.3637 14.952 5.73173 14.7801C6.09976 14.6082 6.4989 14.5128 6.9049 14.4999C7.3109 14.487 7.71529 14.5568 8.0935 14.705C8.4717 14.8532 8.81584 15.0767 9.105 15.362L9.236 15.5H14.764L14.879 15.379L15 15.264V6.5ZM18.52 9.5H17V14.5C17.82 14.5 18.563 14.83 19.105 15.362L19.236 15.5H20V11.35L18.52 9.5Z" fill="#00A6FB"/>
</g>
<defs>
<clipPath id="clip0_12_845">
<rect width="24" height="24" fill="white" transform="translate(0 0.5)"/>
</clipPath>
</defs>
</svg>
