<svg width="24" height="25" viewBox="0 0 24 25" fill="none" xmlns="http://www.w3.org/2000/svg">
<path d="M22.5 11H21.435L18.8672 6.50563C18.736 6.27609 18.5464 6.08531 18.3178 5.95261C18.0891 5.81992 17.8294 5.75002 17.565 5.75001H15.5081L14.3831 2.94313C14.2727 2.66446 14.0809 2.42548 13.8328 2.25727C13.5846 2.08907 13.2916 1.99943 12.9919 2.00001H11.0081C10.708 1.99905 10.4146 2.08851 10.1661 2.25674C9.91763 2.42497 9.72558 2.66416 9.615 2.94313L8.49188 5.75001H6.435C6.17061 5.75002 5.91092 5.81992 5.68224 5.95261C5.45356 6.08531 5.26402 6.27609 5.13281 6.50563L2.565 11H1.5C1.30109 11 1.11032 11.079 0.96967 11.2197C0.829018 11.3603 0.75 11.5511 0.75 11.75C0.75 11.9489 0.829018 12.1397 0.96967 12.2803C1.11032 12.421 1.30109 12.5 1.5 12.5H2.25V20C2.25 20.3978 2.40804 20.7794 2.68934 21.0607C2.97064 21.342 3.35218 21.5 3.75 21.5H6C6.39782 21.5 6.77936 21.342 7.06066 21.0607C7.34196 20.7794 7.5 20.3978 7.5 20V18.5H16.5V20C16.5 20.3978 16.658 20.7794 16.9393 21.0607C17.2206 21.342 17.6022 21.5 18 21.5H20.25C20.6478 21.5 21.0294 21.342 21.3107 21.0607C21.592 20.7794 21.75 20.3978 21.75 20V12.5H22.5C22.6989 12.5 22.8897 12.421 23.0303 12.2803C23.171 12.1397 23.25 11.9489 23.25 11.75C23.25 11.5511 23.171 11.3603 23.0303 11.2197C22.8897 11.079 22.6989 11 22.5 11ZM11.0081 3.50001H12.9919L13.8919 5.75001H10.1081L11.0081 3.50001ZM6.435 7.25001H17.565L19.7072 11H4.29281L6.435 7.25001ZM6 20H3.75V18.5H6V20ZM18 20V18.5H20.25V20H18ZM20.25 17H3.75V12.5H20.25V17ZM5.25 14.75C5.25 14.5511 5.32902 14.3603 5.46967 14.2197C5.61032 14.079 5.80109 14 6 14H7.5C7.69891 14 7.88968 14.079 8.03033 14.2197C8.17098 14.3603 8.25 14.5511 8.25 14.75C8.25 14.9489 8.17098 15.1397 8.03033 15.2803C7.88968 15.421 7.69891 15.5 7.5 15.5H6C5.80109 15.5 5.61032 15.421 5.46967 15.2803C5.32902 15.1397 5.25 14.9489 5.25 14.75ZM15.75 14.75C15.75 14.5511 15.829 14.3603 15.9697 14.2197C16.1103 14.079 16.3011 14 16.5 14H18C18.1989 14 18.3897 14.079 18.5303 14.2197C18.671 14.3603 18.75 14.5511 18.75 14.75C18.75 14.9489 18.671 15.1397 18.5303 15.2803C18.3897 15.421 18.1989 15.5 18 15.5H16.5C16.3011 15.5 16.1103 15.421 15.9697 15.2803C15.829 15.1397 15.75 14.9489 15.75 14.75Z" fill="#FDB813"/>
</svg>
