<svg width="1103" height="400" viewBox="0 0 1103 400" fill="none" xmlns="http://www.w3.org/2000/svg">
<g clip-path="url(#clip0_256_3483)">
<path d="M140.063 249.522L103.188 298.361H79.5947L117.864 249.522H140.063Z" fill="#FD0000"/>
<path d="M151.977 233.743H130.228L165.727 188.438H186.183L151.977 233.743Z" fill="#FBAE17"/>
<path d="M226.97 134.417L198.101 172.655H178.095L208.058 134.417H226.97Z" fill="#FBAE17"/>
<path d="M263.486 86.0527L238.884 118.638H220.421L245.953 86.0527H263.486Z" fill="#FBAE17"/>
<path d="M289.51 51.5846L275.404 70.27H258.32L272.962 51.5846H289.51Z" fill="#39B54A"/>
<path d="M318.293 13.465L301.427 35.8019H285.328L302.832 13.465H318.293Z" fill="#39B54A"/>
<path d="M31.3181 400H0L67.4667 315.438H140.702L125.747 330.393H85.951L31.3181 400Z" fill="#FD0000"/>
<path d="M356.716 0L347.43 16.6136L186.943 303.777L133.165 400H99.0986L156.726 303.777L338.663 0H356.716Z" fill="#FEFDFE"/>
<path d="M962.937 249.522L999.812 298.361H1023.41L985.135 249.522H962.937Z" fill="#FD0000"/>
<path d="M916.816 188.438H937.272L972.772 233.743H951.022L916.816 188.438Z" fill="#FBAE17"/>
<path d="M876.03 134.417L904.899 172.655H924.906L894.942 134.417H876.03Z" fill="#FBAE17"/>
<path d="M839.515 86.0527L864.116 118.638H882.579L857.047 86.0527H839.515Z" fill="#FBAE17"/>
<path d="M813.49 51.5846L827.597 70.27H844.68L830.039 51.5846H813.49Z" fill="#39B54A"/>
<path d="M784.707 13.465L801.573 35.8019H817.672L800.168 13.465H784.707Z" fill="#39B54A"/>
<path d="M1071.68 400H1103L1035.53 315.438H962.299L977.254 330.393H1017.05L1071.68 400Z" fill="#FD0000"/>
<path d="M746.283 0L755.57 16.6136L916.057 303.777L969.834 400H1003.9L946.273 303.777L764.336 0H746.283Z" fill="#FEFDFE"/>
<path d="M886.29 337.133C860.273 331.438 833.219 326.414 805.883 322.199L808.599 304.576C836.303 308.848 863.721 313.94 890.101 319.713L886.29 337.129V337.133Z" fill="#FD0000"/>
<path d="M210.896 337.218L207.085 319.802C208.326 319.531 238.064 313.066 288.99 305.81L291.503 323.461C241.301 330.614 211.192 337.154 210.896 337.218Z" fill="#FD0000"/>
<path d="M309.089 321.047L306.75 303.371C333.651 299.808 361.329 296.752 389.011 294.285L390.594 312.043C363.162 314.489 335.74 317.517 309.089 321.047Z" fill="#FD0000"/>
<path d="M788.368 319.61C761.933 315.876 734.569 312.781 707.033 310.421L708.555 292.655C736.412 295.044 764.104 298.175 790.859 301.955L788.368 319.61Z" fill="#FD0000"/>
<path d="M408.284 310.545L406.861 292.773C434.344 290.573 462.136 288.929 489.465 287.891L490.142 305.706C463.063 306.733 435.52 308.363 408.284 310.542V310.545Z" fill="#FD0000"/>
<path d="M689.373 309.005C662.66 307.011 635.139 305.642 607.571 304.933L608.031 287.11C635.888 287.827 663.701 289.21 690.702 291.225L689.376 309.005H689.373Z" fill="#FD0000"/>
<path d="M507.877 305.118L507.367 287.296C525.438 286.778 543.644 286.515 561.483 286.515C571.016 286.515 580.648 286.589 590.117 286.739L589.839 304.565C580.463 304.419 570.923 304.344 561.483 304.344C543.815 304.344 525.777 304.605 507.877 305.118Z" fill="#FD0000"/>
</g>
<defs>
<clipPath id="clip0_256_3483">
<rect width="1103" height="400" fill="white"/>
</clipPath>
</defs>
</svg>
