<svg width="36" height="36" viewBox="0 0 36 36" fill="none" xmlns="http://www.w3.org/2000/svg">
<path d="M30 28.4762V15.5238C30 15.2872 29.9458 15.0539 29.8416 14.8423C29.7375 14.6308 29.5863 14.4467 29.4 14.3048L18.9 6.30476C18.6404 6.10694 18.3246 6 18 6C17.6754 6 17.3596 6.10694 17.1 6.30476L6.6 14.3048C6.41371 14.4467 6.2625 14.6308 6.15836 14.8423C6.05422 15.0539 6 15.2872 6 15.5238V28.4762C6 28.8803 6.15804 29.2679 6.43934 29.5537C6.72064 29.8395 7.10218 30 7.5 30H13.5C13.8978 30 14.2794 29.8395 14.5607 29.5537C14.842 29.2679 15 28.8803 15 28.4762V23.9048C15 23.5006 15.158 23.113 15.4393 22.8273C15.7206 22.5415 16.1022 22.381 16.5 22.381H19.5C19.8978 22.381 20.2794 22.5415 20.5607 22.8273C20.842 23.113 21 23.5006 21 23.9048V28.4762C21 28.8803 21.158 29.2679 21.4393 29.5537C21.7206 29.8395 22.1022 30 22.5 30H28.5C28.8978 30 29.2794 29.8395 29.5607 29.5537C29.842 29.2679 30 28.8803 30 28.4762Z" stroke="#EEEEEE" stroke-width="3" stroke-linecap="round" stroke-linejoin="round"/>
</svg>
