<svg width="36" height="36" viewBox="0 0 36 36" fill="none" xmlns="http://www.w3.org/2000/svg">
<path d="M13.5 27V7.5L31.5 4.5V24" stroke="#EEEEEE" stroke-width="3" stroke-linecap="round" stroke-linejoin="round"/>
<path d="M9 31.5C11.4853 31.5 13.5 29.4853 13.5 27C13.5 24.5147 11.4853 22.5 9 22.5C6.51472 22.5 4.5 24.5147 4.5 27C4.5 29.4853 6.51472 31.5 9 31.5Z" stroke="#EEEEEE" stroke-width="3" stroke-linecap="round" stroke-linejoin="round"/>
<path d="M27 28.5C29.4853 28.5 31.5 26.4853 31.5 24C31.5 21.5147 29.4853 19.5 27 19.5C24.5147 19.5 22.5 21.5147 22.5 24C22.5 26.4853 24.5147 28.5 27 28.5Z" stroke="#EEEEEE" stroke-width="3" stroke-linecap="round" stroke-linejoin="round"/>
</svg>
